<svg xmlns="http://www.w3.org/2000/svg" viewBox="0 0 750 500"><g id="freepik--background-complete--inject-283"><g><path d="M691.59378,150.4582l5.887-9.4906-2.9066-1.8005c-.8548-.5296-1.3181-1.4962-1.2324-2.498,.0475-.5537,.06522-1.1111,.0528-1.6696-.0218-1.0027,.502-1.9358,1.3857-2.4097l3.0128-1.6157-5.2803-9.8455-3.0124,1.6156c-.8838,.474-1.951,.3941-2.7739-.1788-.4586-.3192-.9327-.6129-1.4201-.8796-.882-.4828-1.4308-1.4037-1.399-2.4085l.1082-3.4177-11.1628-.3468-.1034,3.4298c-.0303,1.0058-.6466,1.8809-1.5565,2.3106-.2471,.1165-.49188,.2401-.7345,.3701-.2425,.1301-.4809,.2657-.71438,.407-.85722,.5177-1.92172,.5479-2.773,.0205l-2.92772-1.8136-5.8869,9.4906,2.9119,1.8073c.8545,.5305,1.3171,1.4981,1.23,2.5-.0479,.5515-.0662,1.1066-.0547,1.6629,.0208,1.0015-.5028,1.9336-1.38558,2.407l-3.01372,1.6162,5.28,9.8454,3.01372-1.6161c.88258-.4735,1.94888-.3939,2.77158,.1775,.457,.3174,.9296,.6092,1.4156,.8743,.8827,.482,1.43282,1.4026,1.4019,2.4079l-.1055,3.4255,11.1627,.347,.1065-3.4272c.0311-1.0024,.6457-1.8741,1.5525-2.3025,.248-.1172,.49472-.2416,.7398-.3731,.2425-.1299,.48092-.2657,.7148-.407,.8615-.5204,1.9314-.5501,2.7867-.0194l2.9092,1.8047Zm-9.4515-7.0483c-4.4521,2.3877-9.9922,.7155-12.3798-3.7366-2.3877-4.4522-.7199-10.0001,3.73252-12.3878,4.45218-2.3877,10.00418-.7119,12.39188,3.7403,2.3877,4.4523,.7076,9.9964-3.7446,12.3841Z" style="fill:#ebebeb;"></path><path d="M118.1452,203.2345l-3.9101-6.7767-2.0739,1.1982c-.61,.3525-1.3602,.3186-1.9503-.0661-.3261-.2128-.6643-.4081-1.0133-.5855-.6261-.3183-1.0289-.9507-1.0289-1.6532v-2.3951h-7.8265v2.3951c0,.7025-.4028,1.3349-1.0288,1.6532-.3491,.1774-.6872,.3727-1.0134,.5855-.5898,.3845-1.3401,.4186-1.9501,.0661l-2.0741-1.1982-3.9102,6.7767,2.0835,1.1995c.6107,.3517,.947,1.022,.9109,1.726-.0097,.1911-.0146,.3832-.0146,.576,0,.1927,.0049,.3848,.0146,.5757,.036,.7008-.298,1.3679-.9054,1.7189l-2.089,1.2069,3.9102,6.7768,2.0799-1.1993c.6103-.3519,1.3608-.3172,1.9505,.0684,.3248,.2121,.6615,.4073,1.0088,.5842,.6252,.3189,1.0272,.9508,1.0272,1.6526v2.3956h7.8265v-2.3956c0-.7018,.402-1.3337,1.0272-1.6526,.3474-.1769,.684-.3721,1.0085-.5842,.59-.3855,1.3405-.4203,1.9508-.0684l2.0799,1.1993,3.9101-6.7768-2.0805-1.2002c-.6086-.3511-.9432-1.0194-.9075-1.7211,.0097-.1918,.0145-.3853,.0145-.5802,0-.1928-.0048-.3849-.0145-.576-.0361-.7041,.2998-1.3746,.9106-1.727l2.0774-1.1985Zm-7.4807,3.5015c0,3.5393-2.8667,6.4058-6.4059,6.4058s-6.4123-2.8665-6.4123-6.4058,2.873-6.4121,6.4123-6.4121,6.4059,2.8728,6.4059,6.4121Z" style="fill:#ebebeb;"></path><g><path d="M78.0382,265.5998c-16.8324,0-30.4712,13.6387-30.4712,30.4712,0,16.8252,13.6388,30.4712,30.4712,30.4712,16.8252,0,30.4712-13.646,30.4712-30.4712,0-16.8325-13.646-30.4712-30.4712-30.4712Zm0,44.6979c-7.8609,0-14.2339-6.3657-14.2339-14.2267s6.373-14.2339,14.2339-14.2339,14.234,6.373,14.234,14.2339-6.373,14.2267-14.234,14.2267Z" style="fill:#ebebeb;"></path><polygon points="83.8969 266.863 72.1789 266.863 72.8267 258.5682 83.249 258.5682 83.8969 266.863" style="fill:#ebebeb;"></polygon><polygon points="61.5932 270.811 53.3074 279.097 47.9002 272.7736 55.2698 265.4039 61.5932 270.811" style="fill:#ebebeb;"></polygon><polygon points="48.6139 289.3738 48.6139 301.0918 40.319 300.4439 40.319 290.0217 48.6139 289.3738" style="fill:#ebebeb;"></polygon><polygon points="52.5619 311.6774 60.8478 319.9633 54.5245 325.3704 47.1548 318.0008 52.5619 311.6774" style="fill:#ebebeb;"></polygon><polygon points="71.1247 324.6568 82.8426 324.6568 82.1948 332.9515 71.7725 332.9515 71.1247 324.6568" style="fill:#ebebeb;"></polygon><polygon points="93.4283 320.7087 101.7142 312.4228 107.1213 318.7462 99.7517 326.1159 93.4283 320.7087" style="fill:#ebebeb;"></polygon><polygon points="106.4077 302.146 106.4077 290.428 114.7024 291.0759 114.7024 301.4981 106.4077 302.146" style="fill:#ebebeb;"></polygon><polygon points="102.4596 279.8424 94.1737 271.5565 100.497 266.1493 107.8668 273.519 102.4596 279.8424" style="fill:#ebebeb;"></polygon></g><g><path d="M73.0143,90.9422c0-1.2487,.1663-4.5795,.1663-5.9947,0-6.0792-2.165-8.8279-7.8272-8.9942-2.6653-.1663-4.2468-1.7477-4.2468-3.996,0-2.2497,1.5815-3.8312,4.2468-3.9974,5.6622-.2495,7.8272-2.915,7.8272-9.0775,0-1.415-.1663-4.7457-.1663-5.9947,0-8.078,3.4138-13.241,16.3209-16.0714,2.5808-.5835,4.5795,.9994,4.5795,3.4139,0,1.9988-1.332,3.0813-2.3314,3.4138-8.0765,2.4977-9.2437,5.08-9.2437,10.7421,0,1.6661,.1679,4.4133,.1679,6.1625,0,6.495-3.1644,9.6595-8.6617,11.4087,5.5805,1.831,8.6617,4.9122,8.6617,11.4073,0,1.7492-.1679,4.4964-.1679,6.1624,0,5.6622,1.1672,8.2445,9.2437,10.7422,.9994,.3325,2.3314,1.415,2.3314,3.4138,0,2.4159-1.9987,3.9974-4.5795,3.4154-12.9071-2.8319-16.3209-7.995-16.3209-16.1562Z" style="fill:#ebebeb;"></path><path d="M121.8107,52.8877c0,1.249-.1663,4.5797-.1663,5.9947,0,6.1625,2.2482,8.828,7.9117,9.0775,2.5809,.1662,4.1637,1.7477,4.1637,3.9974,0,2.2483-1.5828,3.8297-4.1637,3.996-5.6635,.1663-7.9117,2.915-7.9117,8.9942,0,1.4152,.1663,4.746,.1663,5.9947,0,8.1612-3.4138,13.3243-16.321,16.1562-2.5807,.582-4.5795-.9995-4.5795-3.4154,0-1.9988,1.332-3.0813,2.4145-3.4138,7.995-2.4977,9.1607-5.08,9.1607-10.7422,0-1.666-.1665-4.4132-.1665-6.1624,0-6.4951,3.1645-9.6595,8.6602-11.4073-5.5803-1.8324-8.6602-4.9137-8.6602-11.4087,0-1.7492,.1665-4.4964,.1665-6.1625,0-5.6621-1.1657-8.2444-9.1607-10.7421-1.0825-.3325-2.4145-1.415-2.4145-3.4138,0-2.4145,1.9988-3.9974,4.5795-3.4139,12.9072,2.8304,16.321,7.9934,16.321,16.0714Z" style="fill:#ebebeb;"></path></g><g><path d="M689.603,261.1421l-12.75972-12.8723c-1.3506-1.3479-1.3506-3.5031,0-4.8471,1.2919-1.2951,3.49972-1.2951,4.8438,0l15.1318,15.3494c.1659,.105,.2709,.2665,.3236,.3764,.1121,0,.1121,.1083,.1121,.1083,.1055,.1055,.1583,.3225,.27042,.4841,0,.0533,.05268,.0533,.05268,.1049,.05332,.1654,.05332,.2709,.105,.433,0,.0561,.1132,.1077,.1132,.2176v.3753c0,.0517,.0522,.2138,.0522,.2704,0,.1615-.0522,.2132-.0522,.322v.3764c0,.0555-.1132,.1088-.1132,.2692-.05168,.0539-.05168,.2154-.105,.3231,0,.0533-.05268,.1621-.1648,.2149-.0528,.161-.0528,.2698-.1583,.4313,0,0-.1121,.0528-.1648,.1094-.05278,.161-.105,.2703-.2709,.3225l-15.1318,15.35c-.6979,.6451-1.5617,.9682-2.4777,.9682-.8639,0-1.6671-.3231-2.3661-.9682-1.3506-1.3485-1.3506-3.4469,0-4.8476l12.75972-12.8712Z" style="fill:#ebebeb;"></path><path d="M661.50948,279.6159c-.3237,.161-.7506,.2132-1.0743,.2132-1.1341,0-2.2605-.6457-2.7491-1.7759l-13.1943-31.4539c-.6456-1.4528,.0539-3.2332,1.51-3.8222,1.56222-.6495,3.2821,.0527,3.92722,1.5577l13.19488,31.4017c.64612,1.5095-.0533,3.2854-1.6144,3.8794Z" style="fill:#ebebeb;"></path><path d="M618.16308,262.5949c0-.1088-.0516-.1088-.0516-.1621-.0533-.1077-.0533-.2692-.1588-.4835,0-.0533-.0522-.0533-.0522-.1088v-.4319c0-.0533-.0599-.2143-.0599-.2665,0-.0566,.0599-.2187,.0599-.2704v-.3753c0-.1099,.0522-.1099,.0522-.1615,.1055-.2182,.1055-.3237,.1588-.4891,0-.0516,.0516-.0516,.0516-.1049,.0605-.1616,.166-.2704,.2703-.4841,0,0,0-.1083,.0534-.1083,.1121-.1099,.2176-.2714,.383-.3764l15.1318-15.3494c1.3446-1.2951,3.5525-1.2951,4.8432,0,1.3518,1.344,1.3518,3.4992,0,4.8471l-12.7585,12.8723,12.7585,12.8712c1.3518,1.4007,1.3518,3.4991,0,4.8476-.6984,.6451-1.5017,.9682-2.4177,.9682-.8633,0-1.7804-.3231-2.4255-.9682l-15.1318-15.35c-.1654-.1088-.2709-.2703-.383-.3791-.0534,0-.0534-.0528-.0534-.0528-.1043-.2137-.2098-.3753-.2703-.4841Z" style="fill:#ebebeb;"></path></g></g></g><g id="freepik--Floor--inject-283"><polygon points="38.7317 396.2052 122.7987 395.9563 206.86589 395.866 375 395.6946 543.13409 395.8649 627.20118 395.9548 711.26828 396.2052 627.20118 396.4554 543.13409 396.5453 375 396.7156 206.86589 396.5441 122.7987 396.4539 38.7317 396.2052" style="fill:#263238;"></polygon></g><g id="freepik--Database--inject-283"><g><g><path d="M707.52808,369.233v25.5976c0,6.9907-29.3144,12.6503-65.4636,12.6503-36.1599,0-63.6526-5.6596-63.6526-12.6503v-25.5976h129.1162Z" style="fill:#455a64;"></path><path d="M707.525,368.2623c0-6.9886-29.30832-12.654-65.46192-12.654s-63.6509,5.6654-63.6509,12.654,27.4972,12.654,63.6509,12.654,65.46192-5.6654,65.46192-12.654Z" style="fill:#37474f;"></path><g><path d="M653.48058,390.9522v3.2176c-21.2197,.7661-40.68158-.6129-61.6342-4.1562v-3.2655c20.9419,3.5912,40.4252,4.9893,61.6342,4.2041Z" style="fill:#37474f;"></path><path d="M668.36748,390.0424v3.2272c-2.7126,.2202-5.4358,.4214-8.159,.5746v-3.2273c2.71252-.1532,5.4357-.3447,8.159-.5745Z" style="fill:#37474f;"></path><path d="M681.25718,388.6634v3.2464c-2.6911,.3447-5.393,.6512-8.0841,.9193v-3.2464c2.7018-.2585,5.3823-.5746,8.0841-.9193Z" style="fill:#37474f;"></path><path d="M694.09368,386.7481v3.2655c-2.6271,.4501-5.2542,.8619-7.892,1.2354v-3.256c2.6378-.3735,5.2649-.7852,7.892-1.2449Z" style="fill:#FFC727;"></path></g></g><g><path d="M707.52808,337.2997v25.5975c0,6.9907-29.3144,12.6503-65.4636,12.6503-36.1599,0-63.6526-5.6596-63.6526-12.6503v-25.5975h129.1162Z" style="fill:#455a64;"></path><path d="M707.525,336.3289c0-6.9886-29.30832-12.654-65.46192-12.654s-63.6509,5.6654-63.6509,12.654,27.4972,12.654,63.6509,12.654,65.46192-5.6654,65.46192-12.654Z" style="fill:#37474f;"></path><g><path d="M653.48058,359.0188v3.2176c-21.2197,.7661-40.68158-.6129-61.6342-4.1562v-3.2655c20.9419,3.5912,40.4252,4.9893,61.6342,4.2041Z" style="fill:#37474f;"></path><path d="M668.36748,358.109v3.2272c-2.7126,.2203-5.4358,.4214-8.159,.5746v-3.2272c2.71252-.1532,5.4357-.3448,8.159-.5746Z" style="fill:#37474f;"></path><path d="M681.25718,356.73v3.2464c-2.6911,.3447-5.393,.6512-8.0841,.9193v-3.2463c2.7018-.2586,5.3823-.5747,8.0841-.9194Z" style="fill:#37474f;"></path><path d="M694.09368,354.8147v3.2655c-2.6271,.4502-5.2542,.8619-7.892,1.2354v-3.2559c2.6378-.3735,5.2649-.7853,7.892-1.245Z" style="fill:#FFC727;"></path></g></g><g><path d="M707.52808,305.3663v25.5975c0,6.9907-29.3144,12.6503-65.4636,12.6503-36.1599,0-63.6526-5.6596-63.6526-12.6503v-25.5975h129.1162Z" style="fill:#455a64;"></path><path d="M707.525,304.3955c0-6.9886-29.30832-12.654-65.46192-12.654s-63.6509,5.6654-63.6509,12.654,27.4972,12.654,63.6509,12.654,65.46192-5.6654,65.46192-12.654Z" style="fill:#37474f;"></path><g><path d="M653.48058,327.0854v3.2176c-21.2197,.7661-40.68158-.6129-61.6342-4.1561v-3.2655c20.9419,3.5911,40.4252,4.9892,61.6342,4.204Z" style="fill:#37474f;"></path><path d="M668.36748,326.1756v3.2272c-2.7126,.2203-5.4358,.4214-8.159,.5746v-3.2272c2.71252-.1532,5.4357-.3448,8.159-.5746Z" style="fill:#37474f;"></path><path d="M681.25718,324.7966v3.2464c-2.6911,.3447-5.393,.6512-8.0841,.9193v-3.2463c2.7018-.2586,5.3823-.5746,8.0841-.9194Z" style="fill:#37474f;"></path><path d="M694.09368,322.8814v3.2655c-2.6271,.4501-5.2542,.8619-7.892,1.2353v-3.2559c2.6378-.3735,5.2649-.7853,7.892-1.2449Z" style="fill:#FFC727;"></path></g></g></g></g><g id="freepik--Device--inject-283"><g><rect x="122.9425" y="75.7499" width="504.11499" height="337.2158" style="fill:#dbdbdb;"></rect><rect x="126.6061" y="79.8632" width="496.78779" height="328.9893" style="fill:#263238;"></rect><g><rect x="148.604" y="101.0105" width="452.792" height="286.6947" style="fill:#fff;"></rect><g><rect x="148.604" y="101.0105" width="452.792" height="7.4469" style="fill:#455a64;"></rect><g><path d="M155.6422,104.7339c0,.7809-.6329,1.4139-1.4137,1.4139s-1.4139-.633-1.4139-1.4139c0-.7808,.6331-1.4138,1.4139-1.4138s1.4137,.633,1.4137,1.4138Z" style="fill:#c7c7c7;"></path><path d="M161.4154,104.7339c0,.7809-.6331,1.4139-1.4139,1.4139s-1.4138-.633-1.4138-1.4139c0-.7808,.633-1.4138,1.4138-1.4138s1.4139,.633,1.4139,1.4138Z" style="fill:#fff;"></path><path d="M167.1885,104.7339c0,.7809-.633,1.4139-1.4139,1.4139-.7807,0-1.4137-.633-1.4137-1.4139,0-.7808,.633-1.4138,1.4137-1.4138,.7809,0,1.4139,.633,1.4139,1.4138Z" style="fill:#FFC727;"></path></g></g><g><path d="M374.93809,296.3978c-28.69509,0-52.0402-23.3447-52.0402-52.0398s23.34511-52.0402,52.0402-52.0402,52.0402,23.3451,52.0402,52.0402-23.3451,52.0398-52.0402,52.0398Zm0-100.2031c-26.5572,0-48.1633,21.6058-48.1633,48.1633s21.6061,48.1629,48.1633,48.1629,48.1633-21.6061,48.1633-48.1629-21.6061-48.1633-48.1633-48.1633Z" style="fill:#FFC727;"></path><path d="M374.93809,276.7218c-17.8455,0-32.3642-14.5187-32.3642-32.3638s14.5187-32.3646,32.3642-32.3646,32.3642,14.5187,32.3642,32.3646-14.5187,32.3638-32.3642,32.3638Zm0-60.8515c-15.7079,0-28.4873,12.7794-28.4873,28.4877,0,15.7075,12.7794,28.4869,28.4873,28.4869s28.4873-12.7794,28.4873-28.4869c0-15.7083-12.77939-28.4877-28.4873-28.4877Z" style="fill:#FFC727;"></path><g><circle cx="374.93819" cy="160.9447" r="12.6387" style="fill:#FFC727;"></circle><path d="M387.57689,327.7709c0,6.9708-5.668,12.6388-12.6387,12.6388-6.9629,0-12.6387-5.668-12.6387-12.6388,0-6.9629,5.6758-12.6386,12.6387-12.6386,6.9707,0,12.6387,5.6757,12.6387,12.6386Z" style="fill:#FFC727;"></path><rect x="372.99959" y="172.0704" width="3.8769" height="41.7714" style="fill:#FFC727;"></rect><rect x="372.99959" y="274.8742" width="3.8769" height="41.7714" style="fill:#FFC727;"></rect></g><g><circle cx="478.90146" cy="244.35782" r="12.63862" transform="translate(195.79749 701.42401) rotate(-85.25897)" style="fill:#FFC727;"></circle><circle cx="270.97477" cy="244.35782" r="12.63862" transform="translate(5.74129 494.9357) rotate(-85.41581)" style="fill:#FFC727;"></circle><rect x="426.00439" y="242.4193" width="41.7713" height="3.8769" style="fill:#FFC727;"></rect><rect x="282.10019" y="242.4193" width="41.7713" height="3.8769" style="fill:#FFC727;"></rect></g><g><path d="M456.94179,215.9226c-6.969,0-12.6389-5.67-12.6389-12.6393s5.6699-12.6389,12.6389-12.6389,12.6389,5.6699,12.6389,12.6389-5.6699,12.6393-12.6389,12.6393Zm0-21.4013c-4.8314,0-8.762,3.9306-8.762,8.762,0,4.8317,3.9306,8.7624,8.762,8.7624s8.762-3.9307,8.762-8.7624c0-4.8314-3.9306-8.762-8.762-8.762Z" style="fill:#FFC727;"></path><polygon points="400.64069 227.9584 397.89969 225.2173 421.77179 201.3448 446.24129 201.3448 446.24129 205.2217 423.37779 205.2217 400.64069 227.9584" style="fill:#FFC727;"></polygon></g><g><path d="M293.06159,215.9226c-6.969,0-12.6389-5.67-12.6389-12.6393s5.6699-12.6389,12.6389-12.6389,12.6389,5.6699,12.6389,12.6389-5.6699,12.6393-12.6389,12.6393Zm0-21.4013c-4.8314,0-8.762,3.9306-8.762,8.762,0,4.8317,3.9306,8.7624,8.762,8.7624s8.762-3.9307,8.762-8.7624c0-4.8314-3.93059-8.762-8.762-8.762Z" style="fill:#FFC727;"></path><polygon points="349.36269 227.9584 326.62559 205.2217 303.76209 205.2217 303.76209 201.3448 328.23169 201.3448 352.10379 225.2173 349.36269 227.9584" style="fill:#FFC727;"></polygon></g><g><path d="M293.06159,298.0713c-6.969,0-12.6389-5.67-12.6389-12.6386,0-6.9693,5.6699-12.6393,12.6389-12.6393s12.6389,5.67,12.6389,12.6393c0,6.9686-5.6699,12.6386-12.6389,12.6386Zm0-21.401c-4.8314,0-8.762,3.9307-8.762,8.7624,0,4.831,3.9306,8.7617,8.762,8.7617s8.762-3.9307,8.762-8.7617c0-4.8317-3.93059-8.7624-8.762-8.7624Z" style="fill:#FFC727;"></path><polygon points="328.23169 287.3712 303.76209 287.3712 303.76209 283.4943 326.62559 283.4943 349.36269 260.7576 352.10379 263.4987 328.23169 287.3712" style="fill:#FFC727;"></polygon></g><g><path d="M456.94179,298.0713c-6.969,0-12.6389-5.67-12.6389-12.6386,0-6.9693,5.6699-12.6393,12.6389-12.6393s12.6389,5.67,12.6389,12.6393c0,6.9686-5.6699,12.6386-12.6389,12.6386Zm0-21.401c-4.8314,0-8.762,3.9307-8.762,8.7624,0,4.831,3.9306,8.7617,8.762,8.7617s8.762-3.9307,8.762-8.7617c0-4.8317-3.9306-8.7624-8.762-8.7624Z" style="fill:#FFC727;"></path><polygon points="446.24129 287.3712 421.77179 287.3712 397.89969 263.4987 400.64069 260.7576 423.37779 283.4943 446.24129 283.4943 446.24129 287.3712" style="fill:#FFC727;"></polygon></g><g><path d="M351.83949,183.055c0,3.0812-2.5054,5.5867-5.5866,5.5867-3.0778,0-5.5867-2.5055-5.5867-5.5867,0-3.0778,2.5089-5.5867,5.5867-5.5867,3.0812,0,5.5866,2.5089,5.5866,5.5867Z" style="fill:#FFC727;"></path><path d="M333.34429,165.8695c0,3.0813-2.5054,5.5867-5.5866,5.5867-3.0778,0-5.58669-2.5054-5.58669-5.5867,0-3.0778,2.50889-5.5866,5.58669-5.5866,3.0812,0,5.5866,2.5088,5.5866,5.5866Z" style="fill:#FFC727;"></path><path d="M409.21019,183.055c0,3.0812-2.5054,5.5867-5.5866,5.5867-3.0778,0-5.5867-2.5055-5.5867-5.5867,0-3.0778,2.5089-5.5867,5.5867-5.5867,3.0812,0,5.5866,2.5089,5.5866,5.5867Z" style="fill:#FFC727;"></path><path d="M427.70539,165.8695c0,3.0813-2.50539,5.5867-5.5866,5.5867-3.07779,0-5.5867-2.5054-5.5867-5.5867,0-3.0778,2.50891-5.5866,5.5867-5.5866,3.08121,0,5.5866,2.5088,5.5866,5.5866Z" style="fill:#FFC727;"></path></g><g><path d="M333.34429,322.8461c0,3.0813-2.5054,5.5867-5.5866,5.5867-3.0778,0-5.58669-2.5054-5.58669-5.5867,0-3.0778,2.50889-5.5866,5.58669-5.5866,3.0812,0,5.5866,2.5088,5.5866,5.5866Z" style="fill:#FFC727;"></path><path d="M351.83949,305.6607c0,3.0812-2.5054,5.5866-5.5866,5.5866-3.0778,0-5.5867-2.5054-5.5867-5.5866,0-3.0778,2.5089-5.5867,5.5867-5.5867,3.0812,0,5.5866,2.5089,5.5866,5.5867Z" style="fill:#FFC727;"></path><path d="M427.70539,322.8461c0,3.0813-2.50539,5.5867-5.5866,5.5867-3.07779,0-5.5867-2.5054-5.5867-5.5867,0-3.0778,2.50891-5.5866,5.5867-5.5866,3.08121,0,5.5866,2.5088,5.5866,5.5866Z" style="fill:#FFC727;"></path><path d="M409.21019,305.6607c0,3.0812-2.5054,5.5866-5.5866,5.5866-3.0778,0-5.5867-2.5054-5.5867-5.5866,0-3.0778,2.5089-5.5867,5.5867-5.5867,3.0812,0,5.5866,2.5089,5.5866,5.5867Z" style="fill:#FFC727;"></path></g><g><path d="M365.123,249.8525h-7.215l-1.45561,3.859c-.2672,.6529-.891,1.0397-1.5438,1.0397-.208,0-.3869-.029-.56459-.0894-.86081-.3265-1.27661-1.2767-.97921-2.1375l6.56221-17.4911c.26709-.6529,.92-1.0687,1.574-1.0397,.68309-.029,1.30569,.3868,1.57289,1.0397l6.5634,17.4911c.2962,.8608-.1185,1.811-.9805,2.1375-.1487,.0604-.3554,.0894-.5634,.0894-.654,0-1.2778-.3868-1.5148-1.0397l-1.45559-3.859Zm-1.21741-3.2665l-2.40459-6.3857-2.40581,6.3857h4.8104Z" style="fill:#FFC727;"></path><path d="M380.66409,246.6754h-3.6522v6.4437c0,.8898-.7423,1.6321-1.6635,1.6321-.8898,0-1.6333-.7423-1.6333-1.6321v-17.5201c0-.9212,.7435-1.6345,1.6333-1.6345h5.3157c3.5338,0,6.3845,2.8507,6.3845,6.3857,0,3.4721-2.8507,6.3252-6.3845,6.3252Zm-3.6522-3.298h3.6522c1.7228,0,3.0587-1.3661,3.08891-3.0272-.03021-1.724-1.36611-3.0901-3.08891-3.0901h-3.6522v6.1173Z" style="fill:#FFC727;"></path><path d="M391.24489,235.599c0-.9212,.7133-1.6345,1.6333-1.6345,.891,0,1.6635,.7133,1.6635,1.6345v17.5201c0,.9188-.7725,1.6321-1.6635,1.6321-.92,0-1.6333-.7133-1.6333-1.6321v-17.5201Z" style="fill:#FFC727;"></path></g></g></g><g><rect x="57.2725" y="438.2586" width="635.45498" height="23.1446" style="fill:#c7c7c7;"></rect><polygon points="57.2725 438.2586 122.9331 412.971 627.06648 412.971 692.72748 438.2586 57.2725 438.2586" style="fill:#ebebeb;"></polygon><polygon points="128.7967 429.2895 171.1686 412.971 578.83119 412.971 621.20318 429.2895 128.7967 429.2895" style="fill:#263238;"></polygon></g></g></g><g id="freepik--Tab--inject-283"><g><rect x="412.52329" y="45.7849" width="253.53609" height="168.2608" style="fill:#263238;"></rect><g><rect x="412.52329" y="45.7849" width="253.53609" height="7.4467" style="fill:#455a64;"></rect><g><path d="M419.56159,49.5083c0,.7808-.633,1.4137-1.4137,1.4137-.78089,0-1.414-.6329-1.414-1.4137s.63311-1.4138,1.414-1.4138c.7807,0,1.4137,.633,1.4137,1.4138Z" style="fill:#c7c7c7;"></path><path d="M425.33479,49.5083c0,.7808-.6331,1.4137-1.4139,1.4137-.78089,0-1.4138-.6329-1.4138-1.4137s.63291-1.4138,1.4138-1.4138c.7808,0,1.4139,.633,1.4139,1.4138Z" style="fill:#fff;"></path><path d="M431.10779,49.5083c0,.7808-.633,1.4137-1.41379,1.4137s-1.41381-.6329-1.41381-1.4137,.633-1.4138,1.41381-1.4138,1.41379,.633,1.41379,1.4138Z" style="fill:#FFC727;"></path></g></g><g><g><rect x="433.68919" y="86.6361" width="7.3949" height="1.4473" style="fill:#ebebeb;"></rect><rect x="449.80959" y="86.6361" width="120.7865" height="1.4473" style="fill:#ebebeb;"></rect><rect x="575.13969" y="86.6361" width="14.0461" height="1.4473" style="fill:#FFC727;"></rect><rect x="597.61828" y="120.8306" width="37.4291" height="1.4471" style="fill:#ebebeb;"></rect><rect x="592.23929" y="86.6361" width="44.7475" height="1.4473" style="fill:#a6a6a6;"></rect><rect x="433.68919" y="93.475" width="7.3946" height="1.4473" style="fill:#ebebeb;"></rect><rect x="457.01889" y="93.475" width="55.667" height="1.4473" style="fill:#a6a6a6;"></rect><rect x="573.22539" y="120.8306" width="21.0568" height="1.4471" style="fill:#a6a6a6;"></rect><rect x="449.80959" y="113.9917" width="53.1705" height="1.4472" style="fill:#a6a6a6;"></rect><rect x="457.01889" y="100.3138" width="37.3009" height="1.4473" style="fill:#FFC727;"></rect><rect x="584.53259" y="107.1528" width="54.0978" height="1.4472" style="fill:#a6a6a6;"></rect><rect x="543.06439" y="140.7178" width="27.5317" height="1.4472" style="fill:#a6a6a6;"></rect><rect x="498.45859" y="100.3138" width="95.5286" height="1.4473" style="fill:#a6a6a6;"></rect><rect x="449.80959" y="120.8306" width="118.6023" height="1.4471" style="fill:#FFC727;"></rect><rect x="516.18069" y="93.475" width="71.4388" height="1.4473" style="fill:#ebebeb;"></rect><rect x="599.91178" y="100.3138" width="23.9848" height="1.4473" style="fill:#ebebeb;"></rect><rect x="433.68919" y="100.3138" width="7.3946" height="1.4473" style="fill:#ebebeb;"></rect><rect x="433.68919" y="107.1528" width="7.3949" height="1.4472" style="fill:#a6a6a6;"></rect><rect x="449.80959" y="107.1528" width="43.70341" height="1.4472" style="fill:#ebebeb;"></rect><rect x="457.01889" y="127.6693" width="43.7033" height="1.4473" style="fill:#ebebeb;"></rect><rect x="574.47149" y="134.5082" width="61.013" height="1.4473" style="fill:#FFC727;"></rect><rect x="496.53949" y="134.5082" width="74.111" height="1.4473" style="fill:#ebebeb;"></rect><rect x="457.01889" y="134.5082" width="32.8504" height="1.4473" style="fill:#a6a6a6;"></rect><rect x="505.98889" y="113.9917" width="83.1969" height="1.4472" style="fill:#ebebeb;"></rect><rect x="592.23929" y="113.9917" width="44.7475" height="1.4472" style="fill:#FFC727;"></rect><rect x="497.95539" y="107.1528" width="83.14" height="1.4472" style="fill:#FFC727;"></rect><rect x="433.68919" y="113.9917" width="7.3949" height="1.4472" style="fill:#ebebeb;"></rect><rect x="433.68919" y="120.8306" width="7.3949" height="1.4471" style="fill:#ebebeb;"></rect><rect x="433.68919" y="127.6693" width="7.3946" height="1.4473" style="fill:#a6a6a6;"></rect><rect x="433.68919" y="134.5082" width="7.3946" height="1.4473" style="fill:#ebebeb;"></rect><rect x="433.68919" y="140.7178" width="7.3949" height="1.4472" style="fill:#ebebeb;"></rect><rect x="449.80959" y="140.7178" width="86.7079" height="1.4472" style="fill:#ebebeb;"></rect><rect x="433.68919" y="147.5566" width="7.3946" height="1.4472" style="fill:#ebebeb;"></rect><rect x="457.01889" y="147.5566" width="55.667" height="1.4472" style="fill:#a6a6a6;"></rect><rect x="449.80959" y="168.0732" width="53.1705" height="1.4472" style="fill:#a6a6a6;"></rect><rect x="457.01889" y="154.3954" width="37.3009" height="1.4473" style="fill:#FFC727;"></rect><rect x="542.44089" y="181.7509" width="27.3009" height="1.4473" style="fill:#FFC727;"></rect><rect x="457.01889" y="195.4286" width="37.3009" height="1.4473" style="fill:#FFC727;"></rect><rect x="498.45859" y="154.3954" width="95.5286" height="1.4473" style="fill:#a6a6a6;"></rect><rect x="449.80959" y="174.9121" width="118.6023" height="1.4472" style="fill:#FFC727;"></rect><rect x="516.18069" y="147.5566" width="71.4388" height="1.4472" style="fill:#ebebeb;"></rect><rect x="587.94179" y="161.2343" width="23.94" height="1.4473" style="fill:#ebebeb;"></rect><rect x="433.68919" y="154.3954" width="7.3946" height="1.4473" style="fill:#ebebeb;"></rect><rect x="433.68919" y="161.2343" width="7.3949" height="1.4473" style="fill:#a6a6a6;"></rect><rect x="449.80959" y="161.2343" width="43.70341" height="1.4473" style="fill:#ebebeb;"></rect><rect x="505.98889" y="168.0732" width="83.1969" height="1.4472" style="fill:#ebebeb;"></rect><rect x="497.95539" y="161.2343" width="83.14" height="1.4473" style="fill:#FFC727;"></rect><rect x="433.68919" y="168.0732" width="7.3949" height="1.4472" style="fill:#ebebeb;"></rect><rect x="433.68919" y="181.7509" width="7.3949" height="1.4473" style="fill:#ebebeb;"></rect><rect x="449.80959" y="181.7509" width="86.7079" height="1.4473" style="fill:#ebebeb;"></rect><rect x="433.68919" y="188.5897" width="7.3946" height="1.4473" style="fill:#ebebeb;"></rect><rect x="457.01889" y="188.5897" width="55.667" height="1.4473" style="fill:#a6a6a6;"></rect><rect x="498.45859" y="195.4286" width="95.5286" height="1.4473" style="fill:#a6a6a6;"></rect><rect x="433.68919" y="195.4286" width="7.3946" height="1.4473" style="fill:#ebebeb;"></rect></g><g><path d="M437.27589,73.6277c.1999,.2073,.1999,.5178,0,.7174-.1035,.0955-.2223,.1433-.3502,.1433-.1355,0-.2633-.0478-.3666-.1433l-2.2393-2.2715c-.0245-.0078-.0323-.024-.0401-.0478-.0078-.0083-.0244-.0161-.0244-.0161-.0155-.024-.0155-.0401-.0234-.0639-.0166-.0078-.0244-.0239-.0244-.0318-.0079-.016-.0079-.0398-.01549-.0478,0-.0237-.01681-.0316-.01681-.0399v-.0556c0-.0162-.0077-.0238-.0077-.0477,0-.0084,.0077-.0324,.0077-.04v-.0556c0-.0162,.01681-.0239,.01681-.0322,.00759-.0239,.00759-.0396,.01549-.0641,0-.0075,.0078-.0075,.0078-.0154,.0166-.024,.0245-.0561,.04-.0717,0,0,0-.0161,.0166-.0161,.0078-.0162,.0234-.0401,.0479-.0556l2.2393-2.2715c.19891-.1916,.5256-.1916,.7168,0,.1999,.1989,.1999,.5178,0,.7173l-1.8882,1.9049,1.8882,1.9047Z" style="fill:#FFC727;"></path><path d="M439.30619,73.8827l1.9526-4.6469c.0955-.2228,.35-.3266,.58121-.2306,.21549,.0872,.319,.3507,.22339,.5657l-1.9525,4.6547c-.0724,.1673-.239,.2628-.40689,.2628-.04791,0-.11111-.0077-.15891-.0316-.231-.0879-.3345-.3507-.2389-.5741Z" style="fill:#FFC727;"></path><path d="M445.91959,72.0097s0,.0078-.0078,.0078c-.0166,.016-.0323,.0399-.0567,.0561l-2.2393,2.2715c-.0954,.0955-.2312,.1433-.3589,.1433-.1356,0-.2545-.0478-.3578-.1433-.2-.1996-.2-.5101,0-.7174l1.8881-1.9047-1.8881-1.9049c-.2-.1995-.2-.5184,0-.7173,.191-.1916,.5178-.1916,.7167,0l2.2393,2.2715c.0244,.0155,.0401,.0394,.0567,.0556,.0078,0,.0078,.0161,.0078,.0161,.0155,.0316,.0311,.0477,.0401,.0717,0,.0079,.0076,.0079,.0076,.0154,.0078,.0245,.0078,.0402,.0235,.0724,0,.0077,.0077,.0077,.0077,.0239v.0556c0,.0076,.0089,.0316,.0089,.04,0,.0077-.0089,.0315-.0089,.0394v.0639c0,.0083-.0077,.0083-.0077,.0162-.0157,.0317-.0157,.0555-.0235,.0715,0,.0079-.0076,.0079-.0076,.024-.009,.0161-.0246,.04-.0401,.0717Z" style="fill:#FFC727;"></path></g></g></g></g><g id="freepik--Lines--inject-283"><g><g><polygon points="649.50977 292.05176 648.50977 292.05176 648.50977 255.25098 627.23438 255.25098 627.23438 254.25098 649.50977 254.25098 649.50977 292.05176" style="fill:#FFC727;"></polygon><path d="M651.26593,291.93851c0,1.24573-1.01013,2.25589-2.25586,2.25589s-2.25586-1.01016-2.25586-2.25589,1.01019-2.25583,2.25586-2.25583,2.25586,1.01016,2.25586,2.25583Z" style="fill:#FFC727;"></path><circle cx="627.34753" cy="254.7512" r="2.25586" style="fill:#FFC727;"></circle></g><g><polygon points="359.59521 75.86963 358.59521 75.86963 358.59521 58.89014 412.80176 58.89014 412.80176 59.89014 359.59521 59.89014 359.59521 75.86963" style="fill:#FFC727;"></polygon><circle cx="359.09518" cy="75.75663" r="2.25587" transform="translate(151.68515 378.52634) rotate(-67.49995)" style="fill:#FFC727;"></circle><path d="M412.689,61.64606c1.24573,0,2.25589-1.01016,2.25589-2.25586s-1.01016-2.25586-2.25589-2.25586-2.25583,1.01016-2.25583,2.25586,1.01016,2.25586,2.25583,2.25586Z" style="fill:#FFC727;"></path></g></g></g><g id="freepik--Cloud--inject-283"><g><g><path d="M104.659,93.2442c0,8.7428,6.7642,15.9028,15.3508,16.5379v.0462h93.9265c10.7675,0,19.492-8.7247,19.492-19.4921,0-10.1512-7.7582-18.4984-17.67-19.4094-.56129-17.6422-15.0377-31.7783-32.818-31.7783-14.1544,0-26.2197,8.9546-30.8304,21.5075-2.6228-1.3249-5.5771-2.0613-8.7151-2.0613-10.3628,0-18.8388,8.0803-19.4554,18.2864-.8743-.1472-1.7762-.2208-2.6966-.2208-9.1569,0-16.5838,7.4269-16.5838,16.5839Z" style="fill:#FFC727;"></path><path d="M104.659,93.2442c0,8.7428,6.7642,15.9028,15.3508,16.5379v.0462h93.9265c10.7675,0,19.492-8.7247,19.492-19.4921,0-10.1512-7.7582-18.4984-17.67-19.4094-.56129-17.6422-15.0377-31.7783-32.818-31.7783-14.1544,0-26.2197,8.9546-30.8304,21.5075-2.6228-1.3249-5.5771-2.0613-8.7151-2.0613-10.3628,0-18.8388,8.0803-19.4554,18.2864-.8743-.1472-1.7762-.2208-2.6966-.2208-9.1569,0-16.5838,7.4269-16.5838,16.5839Z" style="opacity:.1;"></path></g><path d="M95.2935,93.2442c0,8.7428,6.7642,15.9028,15.3508,16.5379v.0462h93.9267c10.76739,0,19.49179-8.7247,19.49179-19.4921,0-10.1512-7.7581-18.4984-17.6699-19.4094-.5613-17.6422-15.0377-31.7783-32.8181-31.7783-14.1543,0-26.2196,8.9546-30.8304,21.5075-2.6228-1.3249-5.5769-2.0613-8.715-2.0613-10.3628,0-18.8388,8.0803-19.4554,18.2864-.8743-.1472-1.7762-.2208-2.6966-.2208-9.1569,0-16.5839,7.4269-16.5839,16.5839Z" style="fill:#FFC727;"></path><g><rect x="148.5934" y="90.7964" width="22.1696" height="19.0319" style="fill:#fff;"></rect><polygon points="140.9844 90.7964 178.372 90.7964 159.6782 72.1474 140.9844 90.7964" style="fill:#fff;"></polygon></g></g></g><g id="freepik--Character--inject-283"><g><g><g><g><path d="M379.25959,425.9756c-2.8288,1.0879-84.9984,2.5807-88.2143,.7431-.3505-.2056-.2538-3.8323-1.4627-13.2134-.0603-.4473-1.9341-2.1881-4.8598-4.6423-10.9887-9.2119-36.8111-28.6269-36.8111-28.6269l40.26831-33.7076,40.47459,37.1409,10.3362,10.1548s33.5716,18.128,36.896,20.5216c3.3005,2.4057,6.2017,10.5418,3.3728,11.6298Z" style="fill:#ad6359;"></path><path d="M379.25859,425.9716c-2.8324,1.096-85.00059,2.5828-88.2127,.7488-.3474-.2061-.2495-3.8306-1.465-13.2172-.0541-.4451-1.93189-2.1812-4.8616-4.6445-3.8196-3.2013-5.6342-4.663-11.3205-9.0905l52.1336-19.1672,3.1252,3.0711,10.3305,10.1569s33.57491,18.1223,36.8956,20.5206c3.2988,2.3982,6.2071,10.5368,3.3749,11.622Z" style="fill:#ebebeb;"></path></g><g><path d="M384.92149,427.1082c-2.8546,.9922-90.40249,1.9505-93.5542,.0103-.7407-.4557-1.4198-5.5401-1.963-12.5063-.0681-.8729-8.9355-7.9621-10.1496-9.2742l53.6479-18.0692,6.7745,6.375s39.4811,18.3707,42.7085,20.8699c3.2112,2.4995,5.3899,11.6026,2.5359,12.5945Z" style="fill:#FFC727;"></path><g><path d="M383.70629,423.8407c-13.75429-.1769-74.7662,.4073-88.376,1.2778-.111,.0069-.1098,.0823,.0015,.0862,13.6289,.4731,74.6343-.5609,88.3778-1.1388,.2896-.0119,.2876-.2214-.0033-.2252Z" style="fill:#263238;"></path><g><path d="M344.05319,394.2223c-5.423-.9462-12.03119-.0385-16.1209,3.8649-.1586,.1514,.05871,.3744,.2335,.3169,5.3189-1.7448,10.2916-2.8835,15.8736-3.4976,.3934-.0435,.4019-.6158,.0138-.6842Z" style="fill:#263238;"></path><path d="M347.986,396.5302c-5.42261-.9463-12.03041-.0381-16.12041,3.8655-.15859,.1513,.0588,.3741,.2335,.3169,5.31891-1.7455,10.2915-2.8838,15.8736-3.4983,.3937-.0425,.402-.6154,.01331-.6841Z" style="fill:#263238;"></path><path d="M351.91949,398.839c-5.4228-.9467-12.0313-.0389-16.1206,3.8646-.1587,.1514,.0588,.3741,.2335,.3169,5.3188-1.745,10.2914-2.8832,15.87361-3.4978,.39339-.0433,.40189-.6159,.01349-.6837Z" style="fill:#263238;"></path><path d="M355.85279,401.1474c-5.4229-.9469-12.031-.039-16.1207,3.8644-.1589,.1515,.0586,.3742,.2335,.317,5.319-1.7449,10.2913-2.8834,15.8736-3.4977,.3935-.0433,.4016-.6162,.0136-.6837Z" style="fill:#263238;"></path><g><path d="M353.90069,381.5923c-2.1602-2.9035-6.1045-1.5402-8.3408,.3846-3.6224,3.1165-6.7684,7.9553-8.18889,12.4918-.03511,.1121,.04019,.1788,.12949,.1939,.0211,.4113,.3956,.8428,.8569,.6658,4.44861-1.7067,9.4162-2.9801,13.20861-6.0012,2.214-1.7636,4.37819-4.9884,2.33469-7.7349Zm-9.328,9.7692c-2.1679,.8925-4.36569,1.6732-6.5001,2.6459,1.6043-2.4323,3.0951-4.9213,4.943-7.1907,.8821-1.0827,1.8082-2.1784,2.8317-3.1321,1.592-1.4835,7.9293-4.6756,7.0449,1.2727-.4873,3.2791-5.7359,5.3397-8.3195,6.4042Z" style="fill:#263238;"></path><path d="M323.60129,393.2169c4.4822,1.8488,9.6082,1.6924,14.3562,2.0966,.4919,.0421,.7319-.4768,.6377-.8775,.0813-.0397,.1354-.1244,.07081-.222-2.62511-3.964-6.99061-7.7387-11.336-9.7265-2.68331-1.2278-6.85081-1.4418-8.11961,1.9471-1.2005,3.2063,1.7742,5.7029,4.3909,6.7823Zm-2.4878-3.8295c-2.5014-5.4687,4.473-4.1626,6.41451-3.1791,1.24759,.6316,2.44209,1.4266,3.58979,2.2222,2.406,1.6667,4.5293,3.6435,6.746,5.5348-2.3204-.3417-4.6489-.4813-6.9793-.7366-2.7772-.3046-8.3916-.827-9.771-3.8413Z" style="fill:#263238;"></path></g></g></g></g></g><g><path d="M329.22119,381.4902l-50.688,26.265s-51.7114-43.4293-56.5484-43.7814c-4.6974-.3422-75.8787,47.847-111.6413,47.997-37.0424,.1553-38.9162-38.6538-38.9162-38.6538l54.0349-12.4088c38.951-19.1975,79.5235-53.6755,106.0592-50.4598,28.82,3.4938,97.6998,71.0418,97.6998,71.0418Z" style="fill:#455a64;"></path><g><path d="M316.83909,374.801c-8.5563,4.2291-6.1569,2.901-14.668,7.2207-4.1649,2.1139-25.1244,12.6896-28.6814,15.3079-.0785,.0578-.0071,.1949,.0851,.1638,4.1889-1.4024,24.914-12.4279,29.0399-14.6177,8.4305-4.4743,5.9637-3.2768,14.346-7.8403,.1572-.0856,.0392-.3135-.1216-.2344Z" style="fill:#263238;"></path><path d="M269.55629,395.646c-9.909-8.7382-41.285-32.8122-42.6025-33.8693-1.0602-.851-2.1324-1.9596-3.3803-2.5354-1.06449-.491-2.1104-.2211-3.1272,.253-1.5006,.6996-2.9714,1.469-4.4595,2.1954-2.9285,1.4296-5.8569,2.859-8.7853,4.2886-11.35549,5.5431-22.647,11.2301-34.09049,16.5902-11.0043,5.1542-18.8604,10.0063-30.3539,13.9702-11.4307,3.9419-23.2433,6.9413-35.258,8.4063-1.481,.1805-2.9656,.3363-4.4511,.4746-.1077,.0097-.1061,.1747,.004,.1695,11.8045-.5738,23.4231-2.9878,34.7007-6.4547,11.3865-3.5003,19.1126-8.045,29.9265-13.0208,11.2074-5.1574,22.2533-10.6749,33.301-16.1645,5.8325-2.8983,11.652-5.8251,17.50081-8.6898,1.32619-.6495,3.21459-2.0572,4.72969-1.3605,.6537,.3004,1.20131,.8323,1.7486,1.2879,.6485,.5394,1.297,1.0788,1.9451,1.6185,2.5075,2.0859,41.2122,31.9946,42.5175,32.9822,.0976,.0739,.2307-.0563,.1344-.1414Z" style="fill:#263238;"></path></g></g></g><g><g><path d="M107.3267,299.8922c5.2848,20.8658,15.8187,45.7839,20.1651,49.7693,5.497,5.0405,41.3274,13.7087,43.1084,13.8608,4.4101,.3461,12.5152-31.5196,7.8159-32.0916-7.1547-.8708-33.1156-1.7024-34.7057-3.2633-1.6494-1.6326-12.9009-15.1883-24.5032-30.5306-8.0073-10.602-15.1597-10.6914-11.8805,2.2554Z" style="fill:#ad6359;"></path><g><path d="M167.0303,361.8937c.53,.2539,8.0559,3.8307,12.6876,5.0617,3.4554,.9185,13.4734,3.2957,14.8623-.4082,.9506-2.5251-4.7759-4.6164-8.7924-6.1856-2.1157-.8266-4.7483-2.9633-4.1604-4.3249,1.0276-2.3801,6.4773-.1342,10.0721,1.8487,6.9519,3.8344,16.2542,10.8078,20.3689,7.2327,1.5534-1.3518-.3398-3.7074-3.0843-5.9972,4.4293,2.6412,9.1385,4.7838,10.9237,3.3507,1.02521-.8162,1.0493-1.906,.4408-3.136,1.3586,.4082,2.5485,.2959,3.3596-.6011,1.3872-1.5176,.6459-3.6953-.9578-5.909,.4969-.0632,.9389-.3266,1.2707-.8761,2.9043-4.6512-12.4379-17.4767-17.67009-18.5922-15.3933-3.2981-31.5127-2.2603-31.5127-2.2603-5.9071,4.9406-7.8205,30.7866-7.808,30.7968Z" style="fill:#ad6359;"></path><g><path d="M189.2313,347.2954c3.6186,.484,7.1984,1.7535,10.3009,3.7031,3.9389,2.4752,6.581,5.4166,9.9053,8.3638,.0874,.0775-.0301,.2157-.1179,.1381-1.5841-1.4009-8.135-6.654-9.8239-7.8434-3.095-2.1798-6.5312-3.6821-10.2765-4.2992-.0404-.0066-.0282-.0677,.0121-.0624Z" style="fill:#263238;"></path><path d="M191.9395,340.7347c4.0485,1.0099,8.1972,2.0306,11.9748,3.8507,4.1341,1.9918,7.4088,5.3163,10.6271,8.5139,1.93261,1.9205,3.8252,3.8811,5.6682,5.888,.0771,.0841-.0347,.2223-.1179,.1381-3.2668-3.3049-6.6318-6.5154-10.09469-9.6146-3.25761-2.9155-6.86751-5.1217-10.98981-6.5878-2.3224-.826-4.7037-1.4728-7.0813-2.117-.0447-.0122-.032-.083,.0136-.0713Z" style="fill:#263238;"></path><path d="M196.1116,334.9566c3.9278,.7155,7.3543,1.326,10.8633,3.3439,4.6455,2.6714,9.1747,7.2463,10.7642,8.8683,1.75591,1.7921,3.4498,3.6406,5.1161,5.5159,.0679,.0762-.06319,.1963-.1334,.1208-3.80379-4.0962-7.89-7.976-12.19179-11.5462-2.05551-1.7061-4.28131-3.1825-6.766-4.1877-2.45651-.9938-5.07671-1.5292-7.6576-2.0882-.0169-.0038-.0121-.0298,.0052-.0268Z" style="fill:#263238;"></path></g></g></g><g><path d="M174.2799,329.3137l-9.448,36.0478s-30.7622-7.1577-36.6011-12.8625c-5.839-5.7048-17.5973-36.067-21.3475-50.8794-3.7503-14.8125,3.8341-14.8171,11.2539-5.7279,7.4198,9.0891,25.8616,31.0952,26.8538,31.5441,.9923,.4489,29.2889,1.8779,29.2889,1.8779Z" style="fill:#FFC727;"></path><path d="M161.6183,348.9495c1.0415-3.9423,2.115-7.8775,3.0096-11.8613,.5081-2.2631,1.029-4.5247,1.5156-6.7933,.0184-.0857-.1264-.1312-.1526-.0462-1.2031,3.9133-2.4006,7.8413-3.4232,11.8119-1.0175,3.9503-2.0682,7.892-3.0342,11.857-.5492,2.2545-1.0284,4.5181-1.4394,6.8062-.0082,.0455,.065,.0687,.0803,.0244,1.3361-3.8746,2.395-7.8289,3.4439-11.7987Z" style="fill:#263238;"></path><path d="M165.7568,361.8294l-.9288,3.5295s-30.7603-7.1574-36.5955-12.8614c-5.846-5.7041-17.6038-36.06-21.3519-50.8774-3.748-14.8174,3.8355-14.8174,11.2551-5.7259,2.2074,2.7099,5.409,6.5782,8.8293,10.6759l38.7918,55.2593Z" style="opacity:.1;"></path></g></g><g><path d="M70.6531,376.5357s-4.8775,35.2266,13.0996,48.3975c17.9771,13.171,146.22189,7.1893,165.47749,.2417,19.2555-6.9476,18.806-38.382-2.7203-44.9444-20.4733-6.2415-106.7023-6.7062-108.8564-7.4827-.5387-.1942,7.4647-5.3668,7.4194-5.6638l-19.7964-5.3275-54.6234,14.7792Z" style="fill:#455a64;"></path><g><path d="M97.2065,374.757c-.0298-.1487-.2609-.0928-.2557,.05,.1505,3.958-1.176,8.1725-3.6741,11.2612-2.8651,3.5426-7.1961,5.6179-11.1118,7.7667-.3761,.2069-.0659,.7964,.3268,.6639,2.4032-.81,4.7604-1.95,6.9318-3.2673,1.9773-1.2,3.7919-2.6826,5.1423-4.5762,2.4894-3.4917,3.4883-7.6797,2.6407-11.8983Z" style="fill:#263238;"></path><path d="M136.1192,369.1016c-.9267-1.1052-1.9319-2.1526-2.8966-3.2253-2.2811-2.5357-4.5726-5.0826-6.9562-7.5227-.2255-.2309-.6404,.1205-.4313,.3752,1.6161,1.9715,3.3209,3.8758,4.9989,5.7948,.8602,.9838,1.7233,1.9645,2.5923,2.9402,.8118,.9113,1.8091,1.8097,2.4237,2.8705,.638,1.1019-.1191,2.0876-1.2778,2.251-1.0372,.146-2.0154-.3519-2.8348-.9369-1.8615-1.3287-3.3555-3.2705-4.9219-4.9182-.9585-1.0081-1.9165-2.0147-2.8891-3.0094-1.0338-1.0579-2.1316-2.0569-3.1623-3.1128-.0666-.068-.1864,.0342-.127,.1104,.9095,1.1609,1.7536,2.3807,2.6645,3.5456,.9103,1.1635,1.8324,2.3152,2.7701,3.457,.8875,1.0811,1.8041,2.1372,2.7455,3.172,.7995,.8789,1.7038,1.7311,2.7551,2.3026,1.6986,.9237,4.5971,1.0375,5.4107-1.1439,.402-1.0774-.1815-2.1368-.8638-2.9501Z" style="fill:#263238;"></path><path d="M246.57089,425.3819c-6.6985,.3504-13.3837,.9661-20.0824,1.3351-6.6439,.3661-13.2936,.6273-19.9458,.7886-13.3599,.3239-26.7293,.2637-40.08669-.2085-13.4965-.4771-28.065-1.3293-41.5027-2.7316-6.4301-.6712-12.9427-1.1909-19.3138-2.338-5.7479-1.0351-11.0031-3.2317-15.4152-7.2312-8.946-8.1102-12.7301-20.3506-14.5113-32.1059-.2387-1.5774-.444-3.1589-.6261-4.744-.0123-.1077-.1751-.0992-.1643,.0097,1.1898,12.076,3.4963,24.6296,11.4357,34.1023,3.4349,4.0982,7.7419,7.4056,12.7231,9.2095,6.071,2.1985,12.7392,2.5372,19.0922,3.182,13.491,1.3695,28.119,2.285,41.6614,2.8778,13.628,.5965,27.2751,.7945,40.91189,.5365,13.6353-.2581,27.2716-.9094,40.8637-2.0375,1.66041-.138,3.3147-.2915,4.9691-.4923,.094-.0115,.0874-.1574-.0088-.1525Z" style="fill:#263238;"></path><path d="M202.57689,375.3206c-4.2401-.4761-8.4713-.9404-12.7285-1.2393-4.299-.3018-8.6024-.5406-12.9061-.7598-8.5125-.433-17.0442-.7915-25.5672-.9039-4.8429-.0643-9.6761,.0752-14.5134,.2989-.156,.0074-.1347,.2285,.0139,.237,8.535,.4846,17.0665,.7339,25.6098,1.0133,8.5246,.279,17.0433,.7393,25.5557,1.2629,4.828,.2972,9.6566,.4887,14.4877,.7192,.3549,.017,.404-.5883,.0481-.6283Z" style="fill:#263238;"></path><path d="M146.0598,366.6221c-3.3763,1.5288-6.5231,3.4877-9.5904,5.5582-3.0286,2.0444-6.1175,4.1753-8.8291,6.6293-.0778,.0706,.0322,.1665,.1103,.1273,3.2635-1.645,6.384-3.6717,9.4786-5.6152,3.1077-1.9514,6.1971-3.9403,9.0495-6.2546,.2016-.1633,.0598-.5713-.2189-.445Z" style="fill:#263238;"></path></g></g><g><g><g><path d="M70.4323,380.0261l68.2641-20.3586-7.7906-24.6309s5.1477-8.0289,2.5309-15.3797c-2.3338-6.5558-18.8437-25.6776-22.1245-28.1823-5.6283-4.2969-15.4282-5.4171-20.5124,1.0841-20.9562,26.7978-20.3675,87.4674-20.3675,87.4674Z" style="fill:#ebebeb;"></path><path d="M92.4908,290.8072l9.7472-2.7756h.0109c.2185,.011,.4262,.0328,.6338,.0656l-10.818,3.0924c.1311-.142,.2731-.2622,.4261-.3824Zm-6.2504,8.6762l25.8103-7.3759c-.0765-.0656-.1421-.1311-.2077-.1858l-25.4387,7.2667c-.0655,.0983-.1202,.1967-.1639,.295Zm-3.7371,7.7038l34.5193-9.8565c-.0656-.0655-.1312-.142-.1858-.2076l-34.2133,9.769c-.0546,.0984-.0984,.1967-.1202,.2951Zm-2.7974,7.4196l41.8952-11.9545-.1639-.1967-41.6439,11.878c-.0218,.0874-.0546,.1858-.0874,.2732Zm-2.1745,7.2557l48.386-13.8121c-.0437-.0656-.0984-.1311-.153-.1967l-48.1675,13.7356c-.0218,.0874-.0437,.1858-.0655,.2732Zm-1.7484,7.1246l54.1556-15.4512c-.0437-.0656-.0874-.1421-.142-.2076l-53.959,15.3965c-.0109,.0874-.0327,.1749-.0546,.2623Zm-1.4096,7.0371l58.8871-16.7952c-.0218-.0765-.0546-.153-.0874-.2295l-58.756,16.7625c-.0109,.0874-.0328,.1748-.0437,.2622Zm-1.1474,6.9607l60.8868-17.3744c.011-.0874,.011-.1748,.0219-.2513l-60.865,17.3635c-.0218,.0874-.0327,.1748-.0437,.2622Zm-.9179,6.8951l59.7832-17.0574c.0328-.0984,.0765-.1858,.1311-.2842l-59.8815,17.0794-.0328,.2622Zm-.7212,6.8405l60.7011-17.3197-.0765-.2295-60.6027,17.287c-.0109,.0874-.0109,.1748-.0219,.2622Zm-.5463,6.7859l63.1706-18.0191-.0765-.2404-63.0723,17.9972c-.0109,.0874-.0218,.1748-.0218,.2623Zm-.3825,6.7421l65.4763-18.6857-.0765-.2185-65.3889,18.6419c0,.0875,0,.1749-.0109,.2623Zm-.1967,6.4362c-.0109,.0874-.0109,.1639,0,.2513l67.5962-19.2867-.0765-.2294-67.5197,19.2648Z" style="fill:#263238;"></path></g><g><path d="M120.6029,332.1706c-3.0746,1.3147-6.1264,2.742-8.9766,4.4991-1.4181,.8743-2.7858,1.8082-4.1417,2.7756-.6758,.4823-1.363,.9396-2.0564,1.395-.7118,.4675-1.4857,.9377-2.2943,1.2178-.0729,.0252-.0366,.1343,.0373,.1135,.8013-.2253,1.5676-.4431,2.3338-.7738,.7284-.314,1.4273-.7083,2.1063-1.118,1.4467-.873,2.8522-1.8126,4.2899-2.7004,2.9003-1.7911,5.7998-3.5806,8.8232-5.1584,.139-.0727,.0241-.3125-.1215-.2504Z" style="fill:#263238;"></path><path d="M129.3567,332.5433c-2.6946,.5465-5.4049,1.23-8.0217,2.079-1.3164,.4269-2.5974,.9267-3.8729,1.4629-.6088,.2562-1.2129,.5232-1.8137,.7974-.6611,.3017-1.2824,.6928-1.9472,.9848-.0691,.0302-.0345,.1426,.0372,.1134,.6356-.2565,1.3163-.4088,1.9657-.628,.6526-.22,1.3033-.4453,1.9558-.666,1.3063-.4416,2.6166-.8683,3.9192-1.3223,2.6071-.9089,5.2116-1.7874,7.8487-2.6055,.1427-.0444,.0684-.2439-.0711-.2157Z" style="fill:#263238;"></path></g><g><path d="M96.6042,288.7457s7.1369,21.9735,7.9593,40.6436c1.3274,30.134,6.1149,72.7912,7.5609,84.4897,1.4461,11.6985-34.4981,48.1127-44.0198,43.8954-4.6416-2.0559-7.9743-27.2746-3.3254-76.2175,1.7246-18.1569,9.199-62.5375,20.0383-81.6856,7.5823-13.3944,11.7867-11.1256,11.7867-11.1256Z" style="fill:#FFC727;"></path><g style="opacity:.1;"><path d="M101.637,386.4622c-2.2935,1.9206-4.5742,3.9136-6.7206,5.9983-1.9999,1.9424-3.9922,3.8937-6.0875,5.7345-2.05,1.8013-4.1801,3.5102-6.4679,5.0021-2.3482,1.531-4.8078,2.6801-7.4441,3.6115-.0934,.0328-.0865,.1948,.0254,.1844,8.7511-.8087,15.8485-7.6565,21.5145-13.77,1.9141-2.0652,3.7567-4.2343,5.5306-6.4205,.1996-.2458-.1094-.5423-.3504-.3403Z"></path><path d="M101.8069,390.1511c-2.5621,3.4452-5.2715,6.7093-8.4608,9.5996-3.1121,2.8206-6.6034,5.2154-10.2884,7.223-2.138,1.1646-4.3683,2.2053-6.615,3.1425-.1379,.0575-.0885,.2548,.063,.2262,8.5429-1.6091,16.3394-6.9334,21.6023-13.7729,1.5156-1.9697,2.8613-4.0451,3.8625-6.3259,.0492-.1125-.0918-.1891-.1636-.0925Z"></path><path d="M102.039,394.853c.4723,5.9707,.4368,16.3482,.1901,18.6083-.225,2.0636-.5683,4.1643-1.5883,6.002-1.9092,3.4408-5.6084,6.1052-9.1171,7.7293-3.2936,1.5246-7.5503,2.3728-10.82,.3343-1.975-1.2312-2.4888-3.6029-3.0327-5.7126-.6706-2.6012-1.194-5.2471-1.4492-7.9227-.0113-.1185-.1945-.1217-.1879,.0005,.1304,2.4397,.3087,4.8745,.6571,7.2938,.313,2.1733,.5455,4.6052,1.9522,6.388,2.5139,3.1861,7.1008,3.3842,10.7299,2.4091,2.2452-.6032,4.3529-1.7123,6.2585-3.0291,1.7912-1.2375,3.5216-2.6571,4.8904-4.36,1.3636-1.6965,2.0787-3.6617,2.7298-5.7432,.9879-3.1587,.332-16.4335-1.0718-21.9979-.0223-.0887-.148-.0897-.141,.0002Z"></path></g></g><path d="M109.4417,290.2559c6.682,6.0867,20.0667,27.0404,21.6988,31.7447,2.0592,5.9352-.2347,13.036-.2347,13.036l7.7906,24.6309-5.9812-24.4044s4.2394-6.569,2.1803-14.7002c-2.0592-8.1312-18.9047-25.1493-21.2318-27.5719-2.3272-2.4225-4.222-2.7351-4.222-2.7351Z" style="fill:#FFC727;"></path></g><g><g><path d="M97.8862,288.2346c-.0511,1.3071,3.6148,10.8908,9.2994,12.1733,1.8521,.4142,4.5654-9.594,4.5654-9.594l.3694-.6929,5.1605-9.7049-10.0016-11.14-1.4714-1.5151s-7.8926,19.9205-7.9217,20.4736Z" style="fill:#ad6359;"></path><path d="M105.8096,267.7609s-1.8689,4.6996-4.0338,10.2456c1.3789,6.0364,8.8334,11.6744,10.3446,12.1145l5.1595-9.7006-9.997-11.1458-1.4733-1.5137Z" style="fill:#263238;"></path></g><g><path d="M102.601,263.4721c1.4571,1.2694,3.5662,1.7081,5.3795,.9478,1.7809-.7494,2.9497-2.5229,3.09-4.4193,1.6466,1.2532,3.8298,1.6799,5.6598,.359,1.8936-1.3668,2.2101-3.7876,1.1828-5.7815-.0075-.0145-.0334-.0048-.0273,.0113,.7371,1.9147,.4029,4.2202-1.3609,5.4579-1.5082,1.0581-3.1216,.8528-4.5417,.072,1.5158,.2266,3.1131-.0112,4.3397-.9841,1.3448-1.0681,1.9934-2.9065,1.4993-4.5451,1.8839-.5182,3.7145-1.7265,4.425-3.6165,.5994-1.5889,.2715-3.4687-.961-4.6343,1.7334-.869,2.9061-2.7616,2.751-4.7298-.1423-1.8486-1.395-3.4468-3.0744-4.1474,2.5139-1.5023,2.6277-5.1761,.1634-6.8297,.8046-.683,1.0651-1.8229,.7689-2.849-.3371-1.1836-1.3338-1.9958-2.3838-2.5749,.2853-1.0498,.0897-2.2292-.6655-3.0557-1.0085-1.1038-2.6134-1.2187-3.8123-.4488-.837-1.7639-1.9914-3.5609-3.8517-4.3387-1.5305-.639-3.445-.4966-4.6325,.7135-1.9193-2.9536-5.9538-3.5721-8.6786-1.3238-1.103-.9591-2.6725-1.1912-4.0586-.7101-1.396,.4846-2.1707,1.1798-2.5058,1.5431-1.0591-.7844-2.5334-.758-3.6081,.0084-1.0577,.7538-1.4691,1.9002-1.585,3.1137-.2036,.2613-.4428,.4732-.8031,.6616-1.6214,.8508-2.6925,2.3331-2.9173,4.1486-2.1316,.3312-3.5363,2.672-2.8321,4.7063-1.9685,.9775-2.783,3.5815-1.7405,5.5088-1.4566,.9326-2.484,2.4491-2.7279,4.1777-.1877,1.3239,.1733,2.8805,1.3686,3.5617-.8339,.6431-.7404,1.9503-.1628,2.7937,.219,.3201,.4936,.5997,.7761,.8624,.338,.3103,.8526,.6175,1.0624,1.0355,.222,.4307,.079,.9737,.0949,1.4334,.0123,.3298,.0617,.661,.1425,.9821,.6235,2.4258,3.0339,4.1798,5.516,4.0055,.0716,1.778,1.5769,3.0093,3.1522,3.6237,.5197,.2022,1.0466,.3122,1.5901,.4207,.5017,.0997,.9326,.2169,1.3153,.5902,.2304,.226,.4085,.5028,.638,.7318,.7812,.7743,1.8319,.8749,2.874,.858,.3809,4.744,6.1022,5.7822,9.1414,2.6603Zm-15.1155-45.1787c1.0282-.9966,2.4392-1.1765,3.7206-.5937-.0657,.0783-.106,.1328-.106,.1328,0,0-.4434-.0736-.6625-.0861-.4001-.0173-.8021,.0275-1.1913,.1265-.8086,.2048-1.5612,.6513-2.1159,1.2739-.2497,.28-.4435,.595-.6165,.9251-.023,.0444-.0457,.0787-.0681,.1207,.1881-.7009,.4779-1.3547,1.0397-1.8992Zm31.0514,4.919c-.7449-1.0699-2.1255-1.5974-3.3758-1.2427-.0143-.0315-.0309-.0631-.0454-.0947,1.2302-.5431,2.5031-.6986,3.5339,.4691,.7203,.8161,.7727,1.766,.5181,2.6821l-.0176-.0093c-.0378-.6353-.2275-1.2547-.6132-1.8045Zm-24.866,37.5953l.0473-.0007c1.0838,2.9892,4.282,4.383,7.0858,3.4672-3.0231,1.2282-6.3497,.5364-7.1331-3.4665Z" style="fill:#263238;"></path><path d="M133.3714,266.8908c-.5609,19.2827-12.1733,21.124-16.3312,20.9984-3.7744-.1139-16.6119-.9816-18.0467-20.2187-1.4342-19.2376,7.7084-25.0723,16.3545-25.2683,8.6469-.1963,18.5846,5.2058,18.0234,24.4886Z" style="fill:#ad6359;"></path><g><path d="M130.8181,264.5595c-.4391-.122-.824-.3075-1.2455-.4729-.476-.1867-.8742-.2866-1.1782-.7248-.1633-.2352-.0829-.6476,.1304-.8276,.497-.4191,1.1368-.3351,1.7188-.1339,.6316,.2187,1.0625,.5488,1.4138,1.1161,.3401,.5499-.2601,1.2039-.8393,1.0431Z" style="fill:#263238;"></path><path d="M117.7929,263.0726c.4557,.0007,.8762-.0746,1.327-.1204,.5088-.052,.919-.0409,1.3298-.381,.2201-.1826,.2539-.6018,.0967-.8322-.3658-.5374-1.0045-.6287-1.6191-.5914-.6673,.0407-1.171,.2426-1.662,.6946-.4755,.438-.0735,1.2294,.5276,1.2304Z" style="fill:#263238;"></path><g><g><path d="M120.3564,267.5646c-.0051-.0509-.108,.0522-.1114,.106-.0818,1.3114-.3963,2.8-1.6201,3.1226-.038,.0102-.0404,.076,.004,.0741,1.4628-.0672,1.8603-2.0471,1.7275-3.3027Z" style="fill:#263238;"></path><path d="M119.3175,266.0889c-2.0882-.3579-2.6505,3.8447-.7158,4.1764,1.9037,.3262,2.4661-3.8765,.7158-4.1764Z" style="fill:#263238;"></path></g><path d="M118.4624,266.2007c-.3987,.1885-.8146,.5601-1.2628,.5448-.519-.0178-.8469-.5098-1.1248-.9777-.0287-.0485-.0701-.0167-.0783,.0388-.1197,.8038,.0797,1.6712,.9266,1.9068,.7731,.2151,1.4338-.4226,1.7431-1.2051,.0576-.145-.0433-.3838-.2038-.3076Z" style="fill:#263238;"></path></g><g><g><path d="M127.7792,268.2916c.0144-.0489,.0974,.0704,.0911,.1242-.1502,1.3054-.1024,2.826,1.0455,3.3589,.0357,.0165,.0266,.082-.0169,.0721-1.4282-.3233-1.4713-2.3425-1.1197-3.5552Z" style="fill:#263238;"></path><path d="M129.0616,267.0217c2.1186,.0151,1.9329,4.2512-.03,4.2374-1.9313-.0138-1.7459-4.2498,.03-4.2374Z" style="fill:#263238;"></path></g><path d="M129.9328,267.3392c.3248,.2392,.6379,.6616,1.0368,.7054,.4619,.0506,.8249-.3924,1.1402-.8187,.0327-.044,.0645-.0072,.0636,.049-.0131,.8107-.318,1.6421-1.1025,1.7634-.7156,.1109-1.2064-.607-1.364-1.4218-.0295-.151,.095-.3738,.2259-.2773Z" style="fill:#263238;"></path></g><path d="M117.9245,278.0496c.2087,.3873,.3828,.885,.8259,1.0649,.4252,.1725,.9978,.1349,1.4463,.1044,.0443-.0031,.0715,.0514,.0343,.081-.4755,.3797-1.2543,.468-1.804,.1854-.5366-.2761-.6649-.8542-.6408-1.4164,.0033-.0786,.108-.0754,.1383-.0193Z" style="fill:#263238;"></path><path d="M124.871,274.5987s-.2125,1.9691-.4364,2.867c-.0213,.0839-.2484,.0695-.5576,.0114-.0158,.0009-.0254,.0045-.0356-.008-1.6469-.1483-3.1067-1.0944-3.7467-2.629-.0402-.1034,.0968-.1676,.1645-.091,.9665,1.1646,2.2185,1.7153,3.6183,2.0899,.1257-.2327,.2512-3.3841,.3962-3.3594,.5012,.0807,1.3848,.656,1.9233,.9708,.5614-4.0885,.4627-8.2338,1.0826-12.2965,.0248-.1446,.239-.1362,.2489,.0003,.411,4.3375-.1317,9.0567-.6028,13.2939-.0537,.5291-1.7335-.6067-2.0547-.8494Z" style="fill:#263238;"></path><g><path d="M123.3325,277.2205s-1.1254,.8538-2.3461,.9245c-.4498,.0272-.9054-.0431-1.3293-.3-.8722-.5238-.6426-1.3975-.2528-2.0887,.3185-.5687,.7548-1.0117,.7548-1.0117,0,0,1.002,1.6937,3.1734,2.4759Z" style="fill:#263238;"></path><path d="M120.9864,278.145c-.4498,.0272-.9054-.0431-1.3293-.3-.8722-.5238-.6426-1.3975-.2528-2.0887,.9822,.3993,1.7838,1.3793,1.5821,2.3887Z" style="fill:#ff99ba;"></path></g></g><g><path d="M101.3557,269.8641c3.5731,.4838,4.5638-7.7031,4.5638-7.7031,0,0,12.4487-.9219,16.1535-13.3403,0,0,3.0566,6.4266,11.0082,10.0779,0,0-.4118-13.6112-11.1751-16.35,0,0-13.3433-4.9913-20.963,5.5639-7.6198,10.555-1.9857,21.4269,.4126,21.7516Z" style="fill:#263238;"></path><path d="M122.093,247.9032c.0366,1.904-.4107,3.8157-1.1766,5.5839-.7665,1.7684-1.8775,3.418-3.3078,4.7388-.3301,.3587-.7463,.6209-1.1156,.935l-.5703,.4521c-.2017,.1342-.4101,.2585-.6178,.3828-.4189,.2435-.8271,.5052-1.2527,.7316-.4403,.1995-.8848,.3883-1.3296,.5722-.2228,.0902-.4413,.1909-.6669,.2724l-.6927,.1995-1.3796,.3944c-.9395,.1743-1.8867,.3001-2.8248,.4109,.9056-.3039,1.8242-.5103,2.7101-.818l1.3111-.5007,.6532-.248c.2114-.0972,.4145-.2127,.6217-.3178,.4112-.2169,.8228-.4292,1.2393-.6309,.3975-.2343,.7759-.5018,1.1639-.7497l.5796-.3758,.5339-.4374c.345-.3029,.7365-.555,1.0438-.8982,1.368-1.2343,2.4292-2.7694,3.304-4.3961,.434-.8188,.7893-1.6812,1.0838-2.5679,.3123-.8833,.5326-1.7973,.69-2.7331Z" style="fill:#263238;"></path></g><g><path d="M103.2539,269.5177s-3.4873-6.4669-6.3746-5.2907c-2.8868,1.1762-.7495,10.2115,2.2992,11.7675,3.0483,1.5561,4.5441-1.2375,4.5441-1.2375l-.4687-5.2393Z" style="fill:#ad6359;"></path><path d="M97.5567,266.8018c-.0508-.0107-.0691,.0602-.0269,.0831,2.1289,1.1646,3.0645,3.3728,3.6386,5.6164-.5684-.9039-1.4203-1.462-2.6197-.8-.0629,.0346-.0176,.1323,.0466,.1266,.938-.0898,1.5797,.1457,2.1129,.9503,.3774,.5698,.6006,1.2606,.8445,1.8964,.0811,.2118,.4543,.1467,.4049-.0922l-.0122-.0535c.3872-2.8421-1.3638-7.0853-4.3887-7.7271Z" style="fill:#263238;"></path></g><g><g><path d="M97.7296,274.404c-.0445,.9115-2.4356-2.3893-2.5269-2.8625-.0911-.4733-1.7784-1.9667-2.1684-2.9064s-1.0709-3.6426-1.087-4.281c-.0161-.6383-1.0351-2.3205-.9286-3.4333,.1064-1.1125,1.4473-10.9932,8.7098-17.043,7.2624-6.0499,13.2168-5.9434,13.2168-5.9434,0,0,4.2022-.3523,9.0332,.4278,4.8311,.7799,10.7846,12.8152,10.7798,13.0678-.0049,.2524-.4046,.9916-.2381,1.6976,.1666,.706,.8435,1.4843,.4052,2.1034-.4383,.6189,.386,2.3997,.3073,3.1022-.0784,.7025-.2809,.8637-.1999,1.3544,.081,.4908-1.0678-12.0709-15.5572-17.7259,0,0-18.7883,12.8596-19.746,32.4423Z" style="fill:#FFC727;"></path><path d="M133.0205,259.551c-.0013,.042,.0037,.086,.0134,.1355,.0078,.0405,.005-.0073-.0134-.1355Z" style="fill:#FFC727;"></path><path d="M133.0199,259.5511c-.0015,.0422,.0045,.0892,.0134,.1357,.0078,.0403,.0051-.0073-.0134-.1357Z" style="fill:#FFC727;"></path><path d="M128.3697,244.6542c.1769-.034,.3545-.0298,.5227,.0087l.0006,.0031c.3365,.4945,.6592,.9855,.9616,1.4704l.0005,.0031c-.0907,.4966-.4775,.9088-1.0046,1.0104-.6913,.1331-1.3566-.3175-1.4892-1.0057-.1327-.6884,.3172-1.3567,1.0084-1.49Zm-7.0952-.8999c.7608,.429,1.4746,.8798,2.1433,1.3459,.2074-.2747,.2991-.6331,.2287-.9991-.1326-.688-.7982-1.1386-1.4895-1.0054-.3937,.0759-.7118,.3267-.8825,.6586Zm7.997,7.0825c.5021,.7037,.9411,1.3973,1.3214,2.0699,.6051-.1968,.9785-.8121,.8561-1.4477-.1331-.6913-.7987-1.1419-1.4899-1.0087-.2761,.0533-.5098,.1915-.6876,.3865Zm-26.4409-9.246c.2127,.57,.8132,.9171,1.4302,.7983,.6882-.1325,1.1387-.798,1.0061-1.4862-.0424-.2202-.1382-.417-.2752-.5771-.6916,.3645-1.4154,.7804-2.1611,1.265Zm-.7181,10.7105c.1328,.689,.7989,1.14,1.488,1.0073,.6889-.1327,1.1398-.7989,1.0072-1.4879-.1327-.689-.7989-1.1401-1.488-1.0073-.6889,.1327-1.1399,.7989-1.0072,1.4879Zm16.5643-13.5701c.1325,.6883,.7986,1.1418,1.4867,1.0093,.6884-.1326,1.1383-.8012,1.0057-1.4893l-.0018-.0094c-.8327-.1161-1.6425-.198-2.4029-.2573l-.0032,.0007c-.1006,.2284-.1347,.4855-.0845,.746Zm-7.1033,2.2499c.1329,.689,.7988,1.1399,1.4879,1.0072s1.1399-.7989,1.0071-1.4878c-.1326-.689-.7987-1.1401-1.4879-1.0073-.689,.1328-1.1398,.7989-1.0071,1.4879Zm-4.1642,5.7745c.1328,.689,.799,1.1398,1.488,1.0071,.689-.1328,1.1401-.7989,1.0074-1.4879-.1328-.689-.799-1.1398-1.4879-1.0071-.689,.1326-1.1402,.7987-1.0075,1.4879Zm-9.6048,.5563c.1327,.689,.7989,1.1399,1.4879,1.0073,.6891-.1328,1.1401-.7989,1.0074-1.488s-.7989-1.1401-1.4879-1.0073c-.6891,.1327-1.1401,.7989-1.0074,1.488Zm-.956,9.619c.1327,.6889,.7989,1.1399,1.4879,1.0071,.689-.1326,1.1399-.7988,1.0072-1.4879-.1327-.689-.7989-1.1399-1.488-1.0072-.689,.1326-1.1399,.7988-1.0071,1.488Zm-.2785,14.3485c.1231,.6386,.7044,1.07,1.3358,1.0255,.0913-.8279,.2165-1.6462,.374-2.448-.2162-.087-.4562-.1149-.7043-.067-.6882,.1325-1.1388,.7981-1.0055,1.4895Zm3.9455-9.8942c.0437,.2263,.1433,.4258,.287,.5876,.319-.714,.657-1.4125,1.0141-2.0953-.097-.0038-.1957,.0024-.2947,.0213-.6884,.1327-1.1389,.7981-1.0064,1.4864Zm-7.5942-7.7291c.2772,.2038,.6319,.293,.9916,.2238,.6881-.1326,1.1386-.7982,1.0061-1.4864-.0998-.5177-.5019-.9031-.9879-1.0055-.3819,.7711-.7172,1.5334-1.0098,2.2681Zm1.6588,10.4084c.1328,.6889,.799,1.1398,1.4879,1.0071,.6891-.1328,1.14-.7989,1.0073-1.4879-.1326-.689-.7988-1.14-1.4878-1.0072-.6891,.1327-1.1401,.7989-1.0074,1.488Zm-2.4095,1.5677c.1401,.6097,.3257,1.3231,.504,1.9318,.2143-.2728,.311-.6387,.2399-1.0076-.0823-.4277-.3692-.7648-.7439-.9242Zm-1.0918-5.1845c.208,.0788,.437,.099,.6695,.0543,.6883-.1326,1.1386-.7982,1.0056-1.4895-.1141-.592-.6219-1.0085-1.2013-1.0288-.2586,1.0785-.4014,1.9388-.4738,2.464Z" style="fill:#fff; opacity:.3;"></path><g><path d="M95.2027,271.5415c-.0625-.9003,.0743-1.7966,.1901-2.6877,.1168-.8924,.2639-1.7813,.4186-2.6684,.3121-1.7733,.6351-3.5473,1.0364-5.3004,.0992-.4366,.1933-.8806,.3201-1.3002,.1351-.4014,.3662-.7855,.6014-1.165,.4735-.7592,1.0065-1.486,1.5257-2.2208,.5244-.7318,1.0631-1.4545,1.6075-2.1728l1.6295-2.1597c-1.1899,1.3571-2.3339,2.7534-3.432,4.1878-.5523,.7151-1.0798,1.449-1.5737,2.2123-.2417,.3829-.4877,.774-.646,1.2267-.1382,.4426-.2359,.8807-.3402,1.3224-.3776,1.7689-.7058,3.5442-.9674,5.3316-.1262,.8943-.2471,1.7893-.3327,2.689-.0414,.4497-.0751,.9008-.0908,1.3527-.0189,.4504-.024,.9072,.0535,1.3525Z" style="fill:#050400; opacity:.1;"></path><path d="M97.7525,253.1411c-.7864,.7363-1.4943,1.5521-2.165,2.3962-.6692,.8457-1.2879,1.7345-1.8271,2.6726-.5277,.9423-1.0269,1.9114-1.3464,2.951-.325,1.0321-.5323,2.1143-.4667,3.1932,.0311-.2684,.0596-.535,.084-.8006,.0066-.1335,.0354-.2642,.0666-.3946l.0869-.3907c.0295-.1297,.0501-.2613,.084-.3899l.1192-.3816c.0856-.2524,.1444-.5122,.2554-.7559l.2962-.7411,.3407-.7224c.1072-.2434,.2393-.4755,.364-.7111,.1258-.2348,.2474-.4719,.389-.6983,.5249-.9288,1.1295-1.8119,1.7473-2.6852,.3076-.4379,.6319-.8645,.9632-1.2857,.3235-.4281,.664-.8428,1.0087-1.2559Z" style="fill:#050400; opacity:.1;"></path><path d="M132.4089,252.5506c-.3708-.9591-.9373-1.8237-1.4738-2.692-.5455-.8665-1.1266-1.7087-1.7183-2.5429-.6076-.8255-1.1828-1.6635-1.8805-2.4357-.7081-.7541-1.5204-1.4011-2.4089-1.9108,.4078,.3088,.8034,.6303,1.172,.9808,.3748,.3425,.7325,.703,1.0552,1.0911,.3204,.3865,.6158,.8,.9139,1.2147l.8915,1.2433,1.774,2.4936c.2968,.4151,.5852,.8355,.8691,1.2589,.2887,.4206,.57,.8452,.8058,1.299Z" style="fill:#050400; opacity:.1;"></path><path d="M132.7981,255.6825c-.2142-.708-.5121-1.3854-.8196-2.0559-.309-.6706-.6528-1.3246-1.0327-1.9618-.1951-.3147-.3965-.6311-.6295-.9247-.237-.2823-.4673-.5702-.7108-.8471l-.7228-.8366c-.2498-.2714-.491-.5496-.7477-.8144,.2014,.3105,.4185,.6074,.6269,.9113l.6521,.8891c.2148,.2982,.443,.5857,.6643,.8784,.2173,.2881,.4097,.5945,.5975,.9074,.3802,.6224,.7288,1.2674,1.0869,1.9076,.1781,.3207,.352,.644,.5224,.9693,.1787,.3218,.3449,.6487,.513,.9774Z" style="fill:#050400; opacity:.1;"></path></g><path d="M101.2303,242.6998c2.3949,1.3005,7.8892,4.2031,9.2017,4.2236,.3064,.0051,.7689-.0485,1.3341-.1349,3.2158-3.1176,5.7096-4.826,5.7096-4.826,1.8146,.7082,3.4218,1.5238,4.8407,2.4144,1.6695-.8136,3.5496-2.2366,4.2312-2.7699-1.4912-1.6996-3.083-3.0037-4.5698-3.2447-4.8315-.7797-9.0331-.4268-9.0331-.4268,0,0-5.1489-.0917-11.7144,4.7643Z" style="fill:#050400; opacity:.1;"></path></g><g><g><path d="M116.8557,239.1465s5.6387-5.9572,12.74-5.2951c0,0-1.7091,6.8215-4.6211,8.5796-1.4483,.8746-6.9817,.2127-7.4299-.8232-.448-1.0355-.689-2.4613-.689-2.4613Z" style="fill:#FFC727;"></path><path d="M125.4871,234.1624c-.0361,.5633-.4463,1.0537-1.0292,1.1661-.4712,.0908-.9342-.0934-1.2166-.4408,.7091-.291,1.4551-.5408,2.2458-.7253Zm.6089,5.6473c.0729,.3782,.3054,.684,.6156,.859,.4647-.6748,.8825-1.4433,1.2386-2.2158-.2486-.1387-.548-.1904-.8487-.1325-.6882,.1327-1.1381,.8013-1.0055,1.4893Zm-7.4207-1.0777c.1327,.689,.7989,1.14,1.4879,1.0071,.689-.1327,1.1401-.7988,1.0073-1.4878-.1327-.6891-.7989-1.1399-1.4879-1.0072-.6889,.1327-1.14,.7989-1.0073,1.4879Z" style="fill:#fff; opacity:.3;"></path><path d="M116.8551,239.1507s.2466,1.419,.6891,2.4485c.0133,.0405,.0403,.0878,.0871,.1281,.027,.0471,.0738,.0875,.1344,.1347,.0403,.0203,.0741,.0539,.1277,.0807,.5711,.3709,1.7272,.6483,2.9712,.7845,.0417-.9547,.0297-2.2057-.1236-3.1405-.1333-.8074-.8919-1.6423-1.6779-2.3225-1.4068,1.0268-2.208,1.8865-2.208,1.8865Z" style="fill:#050400; opacity:.1;"></path></g><g><path d="M114.9645,239.7364s-9.3524-3.5067-14.4373-2.3817c0,0,1.4822,5.5634,6.06,7.8186,2.0505,1.0104,9.2183-1.6028,9.112-2.8117-.106-1.2087-.7347-2.6252-.7347-2.6252Z" style="fill:#FFC727;"></path><path d="M103.7797,239.8947c.6891-.1328,1.3551,.3183,1.4879,1.0073,.1328,.6891-.3183,1.3552-1.0072,1.4879-.6891,.1328-1.3552-.3184-1.488-1.0073-.1327-.6891,.3183-1.3552,1.0073-1.4879Zm7.7938,1.0864c.1329,.689,.7988,1.1399,1.4879,1.0072s1.1399-.7989,1.0071-1.4878c-.1326-.689-.7987-1.1401-1.4879-1.0073-.689,.1328-1.1398,.7989-1.0071,1.4879Zm-3.5187,4.4131c.3107-.0052,.6454-.0375,.9961-.0858-.1995-.0676-.4148-.0839-.6349-.0417-.1303,.0251-.2506,.0678-.3612,.1275Z" style="fill:#fff; opacity:.3;"></path><path d="M112.8202,239.0105c-.3643,.8601-.7293,2.124-.4954,3.2338,.1268,.619,.4959,1.2584,.9387,1.8507,1.4266-.5965,2.4698-1.2674,2.4369-1.7382-.1059-1.1972-.736-2.6237-.736-2.6237,0,0-.8332-.3172-2.1442-.7226Z" style="fill:#050400; opacity:.1;"></path></g><path d="M113.4951,241.7139c.4831,1.7256,2.2737,2.7328,3.9994,2.2498,1.7257-.4831,2.7332-2.2737,2.25-3.9994-.4834-1.7256-2.2737-2.7327-3.9993-2.2497-1.7259,.4831-2.733,2.2737-2.2501,3.9993Z" style="fill:#FFC727;"></path></g></g></g></g><g><path d="M84.4787,300.1734c-14.7614,27.0187-28.2367,78.8249-20.7913,86.4169,8.2928,8.456,28.7928-29.3638,28.1881-31.0572-.4571-1.2797,2.026-31.1174,4.1503-52.91,2.1223-21.772-7.8966-9.1309-11.5471-2.4497Z" style="fill:#ffc4c0;"></path><g><path d="M92.0787,355.5099c.0613-3.1316,3.7634-42.5999,4.5142-54.9603,.6738-11.095-2.3791-14.6968-8.9691-6.054-12.1332,15.9124-32.5903,59.8953-33.0346,79.7465-.4282,19.1232,14.5437,16.3955,24.1603,4.8866,7.8731-9.4221,13.3292-23.6188,13.3292-23.6188Z" style="fill:#FFC727;"></path><g><path d="M91.6225,360.6058c.72967-14.55731,2.03115-29.8115,3.7573-44.29801-.73857,14.57395-2.02433,29.82195-3.7573,44.29801h0Z" style="fill:#263238;"></path><path d="M94.8035,324.8916c.10359-2.0107,.7265-3.83772,1.69675-5.59001,.03116,2.01538-.61861,3.90291-1.69675,5.59001h0Z" style="fill:#263238;"></path></g></g></g><g><g><path d="M64.7507,385.8214c7.9541,2.9785,19.6229-3.4341,50.5194-16.8224,4.2754-1.8525-.6819-35.5418-5.3492-33.7981-5.8786,2.1964-28.2165,11.9935-29.7597,12.9163-13.0146,7.7824-20.806,35.6836-15.4105,37.7042Z" style="fill:#ad6359;"></path><g><path d="M110.9072,330.6265c9.6302-4.352,12.7707-3.9909,18.9479-11.98,4.0533-5.2424,9.1404-4.9041,7.9444,1.8833-1.9562,11.1017-13.2017,19.3258-17.9215,21.0545l-8.9708-10.9578Z" style="fill:#ad6359;"></path><path d="M87.0777,348.1383s9.4401-9.5838,19.2439-15.237c6.7796-3.9093,21.8238-9.5282,42.81,.7298,5.5427,2.7093,8.7891,10.4842-.3391,8.333-6.6563-1.5687-10.0743-3.7811-14.1171-3.7255,0,0,5.1776,10.0396,2.2564,14.7642-1.3053,2.1115-5.0035,7.7912-8.5133,11.8027,0,0-1.0791-.5296-2.3511-1.3954,0,0-3.1454,4.1558-10.925,5.661l-28.0647-20.9328Z" style="fill:#ad6359;"></path><g><path d="M113.3878,330.2034c4.0245,.7935,12.5256,2.6172,18.9608,6.5282,7.148,4.3439,19.7466,14.6385,16.4853,19.882-2.3912,3.8447-7.5468,.3371-7.5468,.3371,0,0,4.3104,5.3527,1.3907,8.3534-2.6606,2.7342-6.4864-.2182-6.4864-.2182,0,0,2.0565,3.6966-1.0136,5.8366-3.6926,2.5745-7.3965-5.5951-13.3899-6.2194-1.3457-.1401-8.4001-34.4997-8.4001-34.4997Z" style="fill:#ad6359;"></path><g><path d="M126.499,343.5187c3.6625,1.3663,11.1841,6.604,14.7958,13.2584,.0817,.1507,.0119,.2935-.0921,.1717-5.5326-6.482-11.9117-11.4266-14.7447-13.3629-.0378-.026,0-.0826,.041-.0672Z" style="fill:#263238;"></path><path d="M122.3237,350.8616c3.0389,1.5039,10.5502,7.2485,13.9784,14.1173,.0767,.1536-.0033,.2919-.102,.1659-5.5016-7.0106-11.2089-12.1166-13.9215-14.2183-.0361-.0283,.0059-.0844,.0451-.0649Z" style="fill:#263238;"></path></g></g></g></g><g><path d="M102.7892,334.3177l-2.2919,49.3205s-34.6006,7.5471-41.284,3.1984c-4.7773-3.1086,6.1894-29.5187,20.3254-38.604l23.2505-13.9149Z" style="fill:#FFC727;"></path><path d="M66.6812,364.8535c.7664-3.225,4.7673-11.2861,12.8587-16.6551,.0711-.0472,.1627,.0553,.0949,.1103-5.6399,4.5828-11.8248,13.5527-12.8271,16.5937-.0264,.0798-.1458,.0319-.1265-.0489Z" style="fill:#263238;"></path><path d="M92.35,378.7119c-.1539-4.769-.0536-9.5412,.0603-14.3134,.1141-4.7751,.2181-9.5521,.4512-14.3247,.1317-2.6961,.2474-5.3948,.4729-8.0863,.0058-.0706,.125-.0784,.1273-.0044,.1558,4.7609,.0748,9.5394-.0072,14.3041-.0822,4.7761-.2145,9.5555-.3914,14.3303-.1001,2.698-.2487,5.3944-.4732,8.0863-.0109,.133-.2353,.1479-.2399,.0081Z" style="fill:#263238;"></path><path d="M102.5558,333.9666c-1.7214,.7089-3.3094,1.6699-4.9194,2.603-1.608,.9319-3.2006,1.8915-4.7835,2.8652-3.1484,1.937-10.0417,5.6826-15.1384,10.0927-.0564,.0488,.4689,.0738,.5223,.0227,2.3194-2.2244,22.7361-13.7568,24.2553-14.8865,.0242,.1414,.0507,.2824,.0966,.4235,.0311,.0958,.1801,.1267,.212,.0108,.0753-.2749,.0735-.5355,.1285-.8133,.0449-.2283-.1505-.4098-.3734-.3181Z" style="fill:#263238;"></path><path d="M101.0308,375.24249c-.00504,2.89163-.09476,5.77973-.20352,8.66788-7.12191,1.57061-14.31552,2.80966-21.56103,3.63857-4.87716,.4256-17.74593,2.15654-21.18873-1.37065,3.69909,3.4067,21.01135,.3416,26.40756-.2912,5.16532-.73011,10.83674-1.6771,15.94434-2.58047l-.26987,.31003c.24629-2.79567,.52256-5.58796,.87125-8.37415h0Z" style="fill:#263238;"></path></g></g><g><rect x="112.7332" y="375.0386" width="78.3913" height="3.5161" style="fill:#c7c7c7;"></rect><polygon points="146.4866 375.0386 143.8028 378.5547 208.10449 378.5547 208.10449 375.0386 146.4866 375.0386" style="fill:#a6a6a6;"></polygon><g><polygon points="149.865 378.5512 226.263 378.5512 241.77239 326.6642 165.3745 326.6642 149.865 378.5512" style="fill:#a6a6a6;"></polygon><polygon points="152.5085 378.5512 228.90639 378.5512 244.41579 326.6642 168.018 326.6642 152.5085 378.5512" style="fill:#c7c7c7;"></polygon><path d="M195.2773,352.6079c-.498,2.5681,1.1804,4.6502,3.7486,4.6502s5.05411-2.0821,5.5519-4.6502c.49821-2.5685-1.1803-4.6504-3.7486-4.6504s-5.0539,2.0819-5.5519,4.6504Z" style="fill:#fff;"></path></g></g></g></g></g><g id="freepik--Speech_Bubble--inject-283"><g><polygon points="134.2949 190.999 134.2949 234.3752 140.3834 234.3752 140.3834 244.8968 150.9051 234.3752 208.646 234.3752 208.646 190.999 134.2949 190.999" style="fill:#fff;"></polygon><g><path d="M134.29489,190.99899l.15569,21.75255c.07361,7.23303,.11624,14.42795,.1243,21.62357l-.27988-.27989,6.0883-.0163,.29558-.00079,.00079,.29718,.02817,10.52139-.55379-.22939,10.49339-10.54962c.12174-.1306,.09709-.10616,.25776-.10676,16.99476-.04134,40.98131-.1463,57.74057-.11685l-.48081,.48103,.11687-43.37601,.36407,.36407c-18.5339-.01824-55.81935-.22556-74.35101-.36418h0Zm0,0c18.5253-.13614,55.82458-.34244,74.3511-.36409l.36319-.00125,.00099,.36545,.11685,43.37601,.0013,.47864-.48242,.00249c-16.67241,.06098-40.8173-.10721-57.74075-.11668l.25746-.10669-10.54973,10.49329-.55603,.55305,.00211-.7825,.02815-10.52139,.29619,.29617-6.0883-.0163-.2804-.00075c-.04066-12.73075,.24039-30.76703,.28029-43.65544h0Z" style="fill:#263238;"></path><path d="M139.80469,246.28223l.03076-11.3623-5.01025-.01318v.07227l-.07275-.07275-.98682-.00293-.00098-.24805c-.00098-.24414-.00146-.49072-.00195-.73877l-.06982-.06982h.06982c-.01562-7.30713,.06787-16.24414,.14844-24.89648,.06006-6.48242,.11719-12.60498,.13379-17.95117l-.00195-.25195,.25195,.00195c18.69238-.1377,56.01855-.34229,74.35059-.36426l.61328-.00146,.00146,.61523,.11914,44.10352-.73193,.00439c-10.05957,.03662-22.79443-.01025-35.10986-.05469-7.96826-.0293-15.72217-.05762-22.37939-.06201l-10.19971,10.14502,.00049,.13574-.09668-.04004-1.05762,1.05176Zm.50391-1.28125v.0752l.05273-.05273-.05273-.02246Zm.64746-.78516l.00049,.21533,9.69873-9.64648v-.04492c0-.16748,.04688-.18701,.41162-.33789l.34424-.14258-.50537,.00146-.04932-.00049-.02246,.02393-9.87793,9.93164Zm-.62061-9.29443l-.02441,9.23389,.14453-.14502-.02441-9.08887h-.0957Zm.5957,.00146l.02295,8.58594,9.51611-9.56738c.12549-.13428,.19189-.19043,.37744-.18115,4.72021-.01074,9.90967-.02686,15.33154-.04346,13.92285-.04346,29.66846-.09277,41.73779-.07373l.11328-42.03027c-18.48535-.02246-54.93799-.22363-73.4834-.36182l.15381,21.49854c.07275,7.14111,.11426,14.23486,.12354,21.09424l5.01416-.01318v-.05615l.05615,.05615,1.0332-.00342,.00342,1.0376,.05811,.05811h-.05811Zm10.72949-.43262c6.54395,.00537,14.10938,.03271,21.87891,.06152,12.01855,.04346,24.43652,.0874,34.375,.05713l.00098-.46582c-12.07031-.02148-27.81299,.02979-41.73486,.07373-5.04199,.01562-9.8833,.03027-14.28711,.0415l-.23291,.23193Zm57.21533-.47266l-.59033,.59033,.35938-.00146,.23242-.00146-.00146-.5874Zm-74.05127,.38916l5.01221,.01318v-.08936l-5.01221,.01318v.06299Zm5.56934-.07764l.03564,.03516v-.03516h-.03564Zm-6.10547-10.52979c-.02148,3.54492-.03271,6.94287-.02588,10.0459h.06152c-.00439-3.30127-.0166-6.65723-.03564-10.0459Zm74.12842,9.84424c.07666,0,.15283,.00049,.22949,.00049l.22852,.00049-.11328-42.03125h-.23145l-.11328,42.03027Zm.104-42.75879l.23975,.23975-.00098-.24023-.11328,.00049h-.12549Zm-32.22363,.11523c12.01807,.05859,23.61133,.10303,31.73389,.11279l.00098-.22705c-8.11523,.01074-19.70947,.05615-31.73486,.11426Z" style="fill:#263238;"></path></g><g><path d="M161.4866,219.6336c.7098,.7361,.7098,1.8388,0,2.5474-.3672,.339-.7894,.5088-1.2433,.5088-.4814,0-.9353-.1698-1.302-.5088l-7.9516-8.0663c-.0872-.0274-.1147-.0849-.1424-.1695-.0277-.0297-.0866-.0574-.0866-.0574-.0554-.0849-.0554-.1421-.0832-.2267-.0589-.0277-.0866-.0849-.0866-.1129-.028-.0566-.028-.1415-.0551-.1698,0-.0843-.0595-.1123-.0595-.1415v-.1978c0-.0572-.0274-.0843-.0274-.1692,0-.0297,.0274-.1149,.0274-.1421v-.1972c0-.0577,.0595-.0849,.0595-.1143,.0271-.0852,.0271-.1406,.0551-.2276,0-.0271,.0277-.0271,.0277-.0551,.0589-.0849,.0867-.199,.1421-.2544,0,0,0-.0569,.0589-.0569,.0277-.0577,.0829-.1426,.1701-.1978l7.9516-8.0659c.7063-.6806,1.8665-.6806,2.5453,0,.7098,.7062,.7098,1.8387,0,2.547l-6.705,6.7643,6.705,6.7637Z" style="fill:#FFC727;"></path><path d="M168.6961,220.5392l6.9338-16.5013c.339-.7909,1.2428-1.1599,2.0637-.8186,.7652,.3095,1.1328,1.2451,.7935,2.0085l-6.9335,16.5287c-.2567,.594-.8487,.9333-1.4447,.9333-.17,0-.3943-.0275-.5644-.1121-.8204-.3121-1.188-1.2453-.8484-2.0385Z" style="fill:#FFC727;"></path><path d="M192.1805,213.8878s0,.0277-.028,.0277c-.0589,.0572-.1144,.142-.2013,.1992l-7.9516,8.0663c-.339,.339-.821,.5088-1.2746,.5088-.4813,0-.9035-.1698-1.2705-.5088-.7103-.7086-.7103-1.8113,0-2.5474l6.7045-6.7637-6.7045-6.7643c-.7103-.7083-.7103-1.8408,0-2.547,.6783-.6806,1.8385-.6806,2.5451,0l7.9516,8.0659c.0869,.0552,.1424,.1401,.2013,.1978,.028,0,.028,.0569,.028,.0569,.0548,.1123,.1103,.1695,.1421,.2544,0,.028,.0271,.028,.0271,.0551,.028,.087,.028,.1424,.0834,.257,0,.0272,.0275,.0272,.0275,.0849v.1972c0,.0272,.0315,.1124,.0315,.1421,0,.0274-.0315,.112-.0315,.14v.227c0,.0292-.0275,.0292-.0275,.0572-.0554,.1126-.0554,.1975-.0834,.2541,0,.028-.0271,.028-.0271,.0852-.0318,.0571-.0873,.142-.1421,.2544Z" style="fill:#FFC727;"></path></g></g></g></svg>
