<svg xmlns="http://www.w3.org/2000/svg" viewBox="0 0 750 500"><g id="freepik--background-complete--inject-412"><path d="M690,63.93c-43.43.67-91.7.65-135.16,0,43.46-.64,91.72-.66,135.16,0Z" style="fill:#ebebeb"></path><path d="M705.33,78.84c-44.74.66-94.48.65-139.26,0,44.79-.65,94.51-.66,139.26,0Z" style="fill:#ebebeb"></path><path d="M676,63.93a54.35,54.35,0,0,1,0,14.91,54,54,0,0,1,0-14.91Z" style="fill:#ebebeb"></path><path d="M607.87,63.93a54.35,54.35,0,0,1,0,14.91,54,54,0,0,1,0-14.91Z" style="fill:#ebebeb"></path><path d="M642,78.78a53.88,53.88,0,0,1,0,14.9,54.27,54.27,0,0,1,0-14.9Z" style="fill:#ebebeb"></path><path d="M297.05,402.14c-43.43.66-91.7.64-135.16,0,43.46-.65,91.72-.67,135.16,0Z" style="fill:#ebebeb"></path><path d="M312.35,417c-44.74.67-94.48.65-139.26,0,44.79-.65,94.51-.66,139.26,0Z" style="fill:#ebebeb"></path><path d="M283.06,402.14a54.27,54.27,0,0,1,0,14.9,53.88,53.88,0,0,1,0-14.9Z" style="fill:#ebebeb"></path><path d="M214.89,402.14a54.27,54.27,0,0,1,0,14.9,53.88,53.88,0,0,1,0-14.9Z" style="fill:#ebebeb"></path><path d="M249,417a53.88,53.88,0,0,1,0,14.9,54.27,54.27,0,0,1,0-14.9Z" style="fill:#ebebeb"></path><path d="M143.91,63.93c-30.37.67-64.14.65-94.52,0,30.39-.64,64.15-.66,94.52,0Z" style="fill:#ebebeb"></path><path d="M159.21,78.84c-36.8.66-77.72.65-114.54,0,36.83-.65,77.73-.66,114.54,0Z" style="fill:#ebebeb"></path><path d="M61.75,63.93a54.35,54.35,0,0,1,0,14.91,54,54,0,0,1,0-14.91Z" style="fill:#ebebeb"></path><path d="M95.83,78.78a53.88,53.88,0,0,1,0,14.9,54.27,54.27,0,0,1,0-14.9Z" style="fill:#ebebeb"></path><path d="M642.78,402.17c-43.43.66-91.71.64-135.17,0,43.47-.65,91.73-.67,135.17,0Z" style="fill:#ebebeb"></path><path d="M675.18,417.07c-44.74.67-94.48.65-139.26,0,44.79-.65,94.51-.66,139.26,0Z" style="fill:#ebebeb"></path><path d="M393,247.26c-27.91.66-58.79.66-86.71,0,27.92-.66,58.8-.66,86.71,0Z" style="fill:#ebebeb"></path><path d="M362.31,262.06c-27.91.66-58.8.66-86.72,0,27.92-.65,58.8-.65,86.72,0Z" style="fill:#ebebeb"></path><path d="M607.84,402.17a54.27,54.27,0,0,1,0,14.9,53.88,53.88,0,0,1,0-14.9Z" style="fill:#ebebeb"></path><path d="M539.64,402.17a54.27,54.27,0,0,1,0,14.9,53.88,53.88,0,0,1,0-14.9Z" style="fill:#ebebeb"></path><path d="M351.4,262.06a54.35,54.35,0,0,1,0,14.91,54,54,0,0,1,0-14.91Z" style="fill:#ebebeb"></path><path d="M283.2,262.06a54.35,54.35,0,0,1,0,14.91,54,54,0,0,1,0-14.91Z" style="fill:#ebebeb"></path><path d="M642,417a54,54,0,0,1,0,14.91A54.35,54.35,0,0,1,642,417Z" style="fill:#ebebeb"></path><path d="M573.64,417a54,54,0,0,1,0,14.91,54.35,54.35,0,0,1,0-14.91Z" style="fill:#ebebeb"></path><path d="M317,246.85a53.88,53.88,0,0,1,0,14.9,54.27,54.27,0,0,1,0-14.9Z" style="fill:#ebebeb"></path><path d="M637,167.54c-44.74.66-94.48.65-139.26,0,44.78-.65,94.51-.67,139.26,0Z" style="fill:#ebebeb"></path><path d="M588.81,182.44c-30.07.67-63.51.65-93.59,0,30.09-.64,63.51-.66,93.59,0Z" style="fill:#ebebeb"></path><path d="M539.56,152.63a54.35,54.35,0,0,1,0,14.91,54,54,0,0,1,0-14.91Z" style="fill:#ebebeb"></path><path d="M573.64,167.54a53.88,53.88,0,0,1,0,14.9,54.27,54.27,0,0,1,0-14.9Z" style="fill:#ebebeb"></path><path d="M505.47,167.54a54.27,54.27,0,0,1,0,14.9,54.27,54.27,0,0,1,0-14.9Z" style="fill:#ebebeb"></path><path d="M193.41,167.54c-44.75.66-94.49.65-139.26,0,44.78-.65,94.51-.67,139.26,0Z" style="fill:#ebebeb"></path><path d="M145.2,182.44c-30.07.67-63.51.65-93.6,0,30.1-.64,63.52-.66,93.6,0Z" style="fill:#ebebeb"></path><path d="M95.94,152.63a54,54,0,0,1,0,14.91,54.35,54.35,0,0,1,0-14.91Z" style="fill:#ebebeb"></path><path d="M130,167.54a54.27,54.27,0,0,1,0,14.9,53.88,53.88,0,0,1,0-14.9Z" style="fill:#ebebeb"></path><path d="M61.86,167.54a54.27,54.27,0,0,1,0,14.9,53.88,53.88,0,0,1,0-14.9Z" style="fill:#ebebeb"></path><path d="M658.06,315.59c-19.27.67-38.67.67-57.93,0,19.27-.68,38.66-.68,57.93,0Z" style="fill:#ebebeb"></path><path d="M671.61,330.49c-30.07.67-63.51.65-93.6,0,30.1-.65,63.52-.66,93.6,0Z" style="fill:#ebebeb"></path><path d="M641.92,300.68a54,54,0,0,1,0,14.91,54.35,54.35,0,0,1,0-14.91Z" style="fill:#ebebeb"></path><path d="M607.84,315.59a54.27,54.27,0,0,1,0,14.9,53.88,53.88,0,0,1,0-14.9Z" style="fill:#ebebeb"></path><path d="M425,43V230H538.4V43ZM533.26,224.9H430.17V48.12H533.26Z" style="fill:#ebebeb"></path><rect x="430.17" y="48.12" width="103.09" height="176.78" style="fill:#fff"></rect><rect x="430.17" y="128.53" width="103.09" height="5.14" transform="translate(963.42 262.21) rotate(180)" style="fill:#ebebeb"></rect><path d="M430.17,48.12H533.26V224.9H430.17Zm98.33,4.76H434.93V220.14H528.5Z" style="fill:#dbdbdb"></path><rect x="498.15" y="48.12" width="2.57" height="172.02" style="fill:#dbdbdb"></rect><rect x="462.7" y="48.12" width="2.57" height="172.02" style="fill:#dbdbdb"></rect><path d="M249.28,43V230H362.65V43ZM357.51,224.9H254.42V48.12H357.51Z" style="fill:#ebebeb"></path><rect x="254.42" y="48.12" width="103.09" height="176.78" style="fill:#fff"></rect><rect x="254.42" y="128.53" width="103.09" height="5.14" transform="translate(611.92 262.21) rotate(180)" style="fill:#ebebeb"></rect><path d="M254.42,48.12H357.51V224.9H254.42Zm98.32,4.76H259.18V220.14h93.56Z" style="fill:#dbdbdb"></path><rect x="322.4" y="48.12" width="2.57" height="172.02" style="fill:#dbdbdb"></rect><rect x="286.95" y="48.12" width="2.57" height="172.02" style="fill:#dbdbdb"></rect><path d="M73.53,43V230H186.9V43ZM181.76,224.9H78.67V48.12H181.76Z" style="fill:#ebebeb"></path><rect x="78.67" y="48.12" width="103.09" height="176.78" style="fill:#fff"></rect><rect x="78.67" y="128.53" width="103.09" height="5.14" transform="translate(260.42 262.21) rotate(180)" style="fill:#ebebeb"></rect><path d="M78.67,48.12H181.75V224.9H78.67ZM177,52.88H83.43V220.14H177Z" style="fill:#dbdbdb"></path><rect x="146.65" y="48.12" width="2.57" height="172.02" style="fill:#dbdbdb"></rect><rect x="111.2" y="48.12" width="2.57" height="172.02" style="fill:#dbdbdb"></rect><circle cx="644.18" cy="81.2" r="38.22" transform="translate(456.5 702.76) rotate(-80.38)" style="fill:#ebebeb"></circle><circle cx="645.93" cy="82.05" r="36.47" transform="translate(509.68 718.76) rotate(-85.16)" style="fill:#dbdbdb"></circle><circle cx="645.93" cy="82.05" r="34.17" transform="matrix(0.1, -1, 1, 0.1, 501.04, 716.85)" style="fill:#fff"></circle><path d="M679.32,74.8c-15.56,9.43-41.13,24.89-55.42,33.37a34.17,34.17,0,0,1-9.34-12.55l47.27-43.81A34.21,34.21,0,0,1,679.32,74.8Z" style="fill:#ebebeb;opacity:0.5"></path><path d="M680.07,83.25a33.82,33.82,0,0,1-2.26,11.1L635.2,114.5a33.79,33.79,0,0,1-5.38-2.31C642.69,104.75,666.21,91.22,680.07,83.25Z" style="fill:#ebebeb;opacity:0.5"></path><rect x="645.6" y="50.37" width="0.66" height="5.18" style="fill:#c7c7c7"></rect><rect x="631.05" y="54.26" width="0.66" height="5.18" transform="translate(56.15 323.27) rotate(-30)" style="fill:#c7c7c7"></rect><rect x="620.4" y="64.91" width="0.66" height="5.18" transform="translate(251.86 571.29) rotate(-60)" style="fill:#c7c7c7"></rect><rect x="614.24" y="81.72" width="5.18" height="0.66" style="fill:#c7c7c7"></rect><rect x="618.14" y="96.27" width="5.18" height="0.66" transform="translate(34.87 323.33) rotate(-30)" style="fill:#c7c7c7"></rect><rect x="628.79" y="106.92" width="5.18" height="0.66" transform="translate(223.12 600.67) rotate(-60.04)" style="fill:#c7c7c7"></rect><rect x="645.6" y="108.56" width="0.66" height="5.18" style="fill:#c7c7c7"></rect><rect x="660.15" y="104.66" width="0.66" height="5.18" transform="translate(34.86 344.61) rotate(-30)" style="fill:#c7c7c7"></rect><rect x="670.8" y="94.01" width="0.66" height="5.18" transform="translate(251.87 629.48) rotate(-60)" style="fill:#c7c7c7"></rect><rect x="672.44" y="81.72" width="5.18" height="0.66" style="fill:#c7c7c7"></rect><rect x="668.54" y="67.17" width="5.18" height="0.66" transform="matrix(0.87, -0.5, 0.5, 0.87, 56.17, 344.63)" style="fill:#c7c7c7"></rect><rect x="657.89" y="56.52" width="5.18" height="0.66" transform="translate(281.32 600.64) rotate(-60.03)" style="fill:#c7c7c7"></rect><polygon points="646.42 52.71 647.55 84.36 644.31 84.32 645.54 52.7 646.42 52.71" style="fill:#c7c7c7"></polygon><polygon points="666.14 71.02 644.84 84.61 643.3 81.76 665.72 70.24 666.14 71.02" style="fill:#a6a6a6"></polygon><path d="M647,82.05a1.11,1.11,0,1,1-1.1-1.1A1.11,1.11,0,0,1,647,82.05Z" style="fill:#c7c7c7"></path><polygon points="506.73 346.69 509.89 365.62 531.28 481.15 534.73 481.15 519.17 365.62 516.88 346.69 506.73 346.69" style="fill:#dbdbdb"></polygon><polygon points="516.88 346.69 506.73 346.69 509.89 365.62 519.17 365.62 516.88 346.69" style="fill:#a6a6a6"></polygon><polygon points="439.55 481.15 443 481.15 464.39 365.62 467.55 346.69 457.41 346.69 455.11 365.62 439.55 481.15" style="fill:#dbdbdb"></polygon><polygon points="457.41 346.69 455.11 365.62 464.39 365.62 467.55 346.69 457.41 346.69" style="fill:#a6a6a6"></polygon><polygon points="375.39 481.15 378.83 481.15 400.23 365.62 403.38 346.69 393.24 346.69 390.94 365.62 375.39 481.15" style="fill:#dbdbdb"></polygon><polygon points="390.94 365.62 400.23 365.62 403.38 346.69 393.24 346.69 390.94 365.62" style="fill:#a6a6a6"></polygon><polygon points="380.86 355.58 537.61 355.58 537.61 339.07 478.93 339.07 459.21 224.32 386.83 224.32 380.86 355.58" style="fill:#dbdbdb"></polygon><polygon points="380.86 355.58 389.4 355.58 394.97 224.32 386.83 224.32 380.86 355.58" style="fill:#a6a6a6"></polygon><polygon points="323.85 346.69 327 365.62 348.39 481.15 351.84 481.15 336.29 365.62 333.99 346.69 323.85 346.69" style="fill:#dbdbdb"></polygon><polygon points="333.99 346.69 323.85 346.69 327 365.62 336.29 365.62 333.99 346.69" style="fill:#a6a6a6"></polygon><polygon points="256.67 481.15 260.12 481.15 281.51 365.62 284.67 346.69 274.52 346.69 272.22 365.62 256.67 481.15" style="fill:#dbdbdb"></polygon><polygon points="274.52 346.69 272.22 365.62 281.51 365.62 284.67 346.69 274.52 346.69" style="fill:#a6a6a6"></polygon><polygon points="192.5 481.15 195.95 481.15 217.34 365.62 220.5 346.69 210.36 346.69 208.06 365.62 192.5 481.15" style="fill:#dbdbdb"></polygon><polygon points="208.06 365.62 217.34 365.62 220.5 346.69 210.36 346.69 208.06 365.62" style="fill:#a6a6a6"></polygon><polygon points="197.97 355.58 354.73 355.58 354.73 339.07 296.04 339.07 276.32 224.32 203.95 224.32 197.97 355.58" style="fill:#dbdbdb"></polygon><polygon points="197.97 355.58 206.51 355.58 212.08 224.32 203.95 224.32 197.97 355.58" style="fill:#a6a6a6"></polygon></g><g id="freepik--Floor--inject-412"><path d="M64.25,481.39c199.09-.62,422.41-.62,621.5,0-199.09.61-422.41.61-621.5,0Z" style="fill:#263238"></path></g><g id="freepik--Plant--inject-412"><path d="M626.49,260.22s-26.65-3.73-20.42-35.9C606.07,224.32,635.84,231,626.49,260.22Z" style="fill:#FFC727"></path><path d="M626.49,260.22s-26.65-3.73-20.42-35.9C606.07,224.32,635.84,231,626.49,260.22Z" style="opacity:0.1"></path><path d="M625.14,253.5c-.52-1.62-1.14-3.22-1.82-4.79,0-.21-.05-.41-.06-.61,0-.44-.08-.88-.11-1.33-.08-1-.14-1.92-.2-2.88-.11-1.92-.23-3.84-.26-5.77,0-.1-.16-.1-.16,0,0,1.92,0,3.85,0,5.77,0,1,.1,1.92.16,2.88,0,.22,0,.43,0,.64a57.11,57.11,0,0,0-5.35-9.13,46.83,46.83,0,0,0-2.91-3.7c-1.06-1.21-2.18-2.37-3.26-3.57-.07-.08-.18,0-.11.12a48.14,48.14,0,0,1,5.14,6.82c.8,1.23,1.57,2.49,2.3,3.76l-.25-.09c-.32-.13-.63-.27-1-.39l-2.18-.82c-1.43-.53-2.86-1-4.28-1.6-.09,0-.15.12-.06.16,1.42.56,2.82,1.16,4.22,1.76l2.06.89,1,.43a3.52,3.52,0,0,0,.71.25c.54,1,1.07,1.93,1.56,2.92a69.68,69.68,0,0,1,3.25,7.67l.2.56a15.19,15.19,0,0,0-2.19-1.06l-2.76-1.25c-1.86-.86-3.72-1.73-5.51-2.74-.09-.06-.17.09-.08.14,1.83,1,3.63,2.06,5.46,3.06.92.5,1.84,1,2.78,1.43a8.47,8.47,0,0,0,2.5,1,31.6,31.6,0,0,1,1.74,7.55c.3,3.64.27,7.31.35,10.95,0,.07.1.06.1,0,.27-3.31.42-6.65.43-10A28.75,28.75,0,0,0,625.14,253.5Z" style="fill:#263238"></path><path d="M621,234.59a31.65,31.65,0,0,0-.27,5.67,0,0,0,0,0,.08,0c.11-1.88.13-3.76.34-5.63C621.21,234.53,621.05,234.49,621,234.59Z" style="fill:#263238"></path><path d="M613.42,236.2a21,21,0,0,1-3.43-1.68c-.08-.06-.17.08-.08.14a13.26,13.26,0,0,0,3.46,1.65C613.44,236.33,613.48,236.23,613.42,236.2Z" style="fill:#263238"></path><path d="M627.34,311.28c0-2.95-.08-5.89-.12-8.84-.05-9.77-.13-19.55-.31-29.33q-.21-11.64-.54-23.28a.12.12,0,0,0-.07-.1l0-6.36c0-.05-.06-.08-.13-.08s-.13,0-.12.09q0,3.18,0,6.37a.13.13,0,0,0-.07.09c-.39,13.81-.74,27.63-.82,41.44,0,2.81,0,5.62,0,8.43q-.13,13.52-.1,27c0,1.43,0,2.86,0,4.3,0,8.24.08,16.48.09,24.72,0,.45.49.67,1,.69s1.24-.22,1.24-.72c0-9.09.06-18.18.06-27.27C627.36,322.73,627.38,317,627.34,311.28Z" style="fill:#263238"></path><path d="M616.21,302.33s-12.81-9.49-25-3.08-14.07,31.15-14.07,31.15S595,333,606.27,322.25C617.11,311.93,616.21,302.33,616.21,302.33Z" style="fill:#FFC727"></path><path d="M619.7,302.92a15.22,15.22,0,0,0-7.42-1,9.17,9.17,0,0,0-1.57-.15l-1.81-.14c-1.24-.1-2.49-.17-3.73-.26-2.53-.19-5.07-.35-7.59-.6-.09,0-.11.15,0,.16,2.5.32,5,.67,7.49.93,1.29.13,2.58.26,3.87.35l.93.09-1.13.28a30.78,30.78,0,0,0-5.81,2.36c-1,.19-2,.47-3,.7-1.59.37-3.17.78-4.74,1.2-3.11.81-6.19,1.73-9.28,2.63a.08.08,0,1,0,.05.15c3.08-.75,6.18-1.45,9.27-2.18,1.51-.36,3-.71,4.51-1.08.39-.1.78-.19,1.18-.27a37.57,37.57,0,0,0-9.11,7.91,49.6,49.6,0,0,0-6.33,10c0,.09.08.18.14.09a48.32,48.32,0,0,1,7.66-10.06c-.06.17-.12.34-.17.51l-.71,2.27c-.48,1.51-1,3-1.41,4.53,0,.1.13.13.16,0,.54-1.46,1-2.94,1.57-4.41l.76-2.16c.13-.37.26-.75.38-1.13,0-.11.09-.22.13-.34a44.86,44.86,0,0,1,4.54-3.87,34.52,34.52,0,0,1,6.81-3.9c-.05.22-.09.44-.13.65-.13.59-.26,1.17-.38,1.76-.25,1.21-.49,2.43-.72,3.64-.49,2.48-.79,5-1.25,7.47a.08.08,0,1,0,.16,0c.57-2.49,1.31-4.94,1.87-7.44.28-1.25.56-2.5.82-3.76.12-.58.23-1.17.35-1.76a8.05,8.05,0,0,0,.18-1c.24-.09.46-.2.7-.28,3.36-1.25,7.08-2.15,10.66-1.46a10.42,10.42,0,0,1,7.71,6.18c.12.28.56.1.5-.18C625.09,306.39,622.52,304.1,619.7,302.92Z" style="fill:#263238"></path><path d="M600.08,313.48,599,318.35a36.31,36.31,0,0,0-.89,4.74c0,.06.08.06.1,0a35.41,35.41,0,0,0,1.09-4.77c.32-1.61.63-3.21.94-4.81A.08.08,0,0,0,600.08,313.48Z" style="fill:#263238"></path><path d="M587.69,317.61c-1.63.82-3.21,1.76-4.92,2.44a.08.08,0,1,0,.07.15,52.57,52.57,0,0,0,4.89-2.53S587.73,317.58,587.69,317.61Z" style="fill:#263238"></path><path d="M619.09,284.9s-15.66,1-23-9.33-5.65-25.08-5.65-25.08,16.45,2,23,9.42S619.09,284.9,619.09,284.9Z" style="fill:#FFC727"></path><path d="M626.44,300.35c-.54-1.68-1.21-3.33-1.85-5s-1.25-3.14-1.94-4.69a96.41,96.41,0,0,0-4.7-9.23c-1.1-1.9-2.29-3.75-3.51-5.57,0-.28-.08-.55-.12-.83-.07-.49-.14-1-.22-1.46-.15-1-.33-2-.49-3-.36-2.16-.81-4.31-1.15-6.47,0-.1-.18-.1-.17,0,.32,2.14.53,4.29.83,6.43.15,1.05.29,2.1.45,3.15l.18,1.13a113.72,113.72,0,0,0-7.75-10c-.38-.44-.76-.86-1.15-1.28a2.67,2.67,0,0,0-.14-.36c-.12-.3-.23-.6-.34-.9-.23-.62-.46-1.24-.68-1.87q-.66-1.83-1.17-3.72c0-.1-.18-.06-.15.05.31,1.28.65,2.56,1,3.83.19.62.39,1.22.6,1.82l.12.31c-2-2.19-4.09-4.29-6.2-6.37-.08-.07-.19.05-.12.12A112.12,112.12,0,0,1,608.89,270a11.57,11.57,0,0,0-1.16-.29c-1.2-.23-2.42-.4-3.64-.56-2.55-.32-5.09-.65-7.64-1.05-.1,0-.14.14,0,.16,2.42.48,4.83,1,7.24,1.58,1.13.26,2.28.48,3.42.71a23.35,23.35,0,0,1,2.75.78c.25.37.52.72.77,1.09,1.15,1.67,2.25,3.38,3.33,5.1l-1.6-.32c-1.21-.23-2.42-.45-3.64-.65-2.39-.39-4.78-.81-7.14-1.34a.08.08,0,0,0,0,.15c2.4.56,4.77,1.22,7.15,1.85,1.14.31,2.3.59,3.46.85l1.74.37a3.81,3.81,0,0,0,.7.12Q618,284.16,621,290q1.31,2.56,2.53,5.16c.83,1.78,1.55,3.6,2.32,5.4C626,300.89,626.57,300.74,626.44,300.35Z" style="fill:#263238"></path><path d="M610.41,264.35c-.3-1.49-.61-3-.94-4.47,0-.1-.18-.05-.16.05.3,1.47.58,2.94.85,4.41a43.71,43.71,0,0,0,.88,4.39,0,0,0,0,0,.05,0A31,31,0,0,0,610.41,264.35Z" style="fill:#263238"></path><path d="M601.27,263.92c-.72-.36-1.49-.66-2.25-.95l-1.18-.46-.61-.25a2.6,2.6,0,0,1-.66-.29c-.12-.09-.19.12-.08.14a2.64,2.64,0,0,1,.67.28l.6.26,1.14.51a23.14,23.14,0,0,0,2.31.92A.09.09,0,0,0,601.27,263.92Z" style="fill:#263238"></path><path d="M635.12,272.58s9.48-17.7,23.9-20.45,23.25,12.1,23.25,12.1S671.75,277.66,658.52,280,635.12,272.58,635.12,272.58Z" style="fill:#FFC727"></path><path d="M668.69,260.07a39.33,39.33,0,0,0-11.31.13l.64-.34c1.07-.54,2.13-1.1,3.2-1.65,2.21-1.15,4.45-2.38,6.77-3.31.11,0,0-.19-.07-.14-2.25,1.05-4.59,1.93-6.85,3-1.14.52-2.25,1.06-3.35,1.64-.71.38-1.5.74-2.2,1.19a40.06,40.06,0,0,0-9.16,3l1.8-2c1.34-1.47,2.67-3,4.14-4.36.08-.07,0-.18-.12-.11-1.51,1.37-3.1,2.64-4.56,4.07-.71.69-1.39,1.4-2,2.14-.33.37-.66.75-1,1.14a38,38,0,0,0-19.33,26.11c0,.1.12.15.15.05A43.62,43.62,0,0,1,636,272.74a41.72,41.72,0,0,1,19.32-11.18,42.77,42.77,0,0,1,13.34-1.21A.14.14,0,0,0,668.69,260.07Z" style="fill:#263238"></path><path d="M682.27,264.23S671.75,277.66,658.51,280c-10.09,1.79-18.39-3.48-21.77-6.07l-.72-1.2s6.82-5.75,19.74-9.07S682.27,264.23,682.27,264.23Z" style="opacity:0.1"></path><path d="M660.31,253.76a35.33,35.33,0,0,0-3.2,2.11,19.73,19.73,0,0,0-2.78,2.54.08.08,0,0,0,.12.12c1-.83,1.92-1.66,2.91-2.45a31.23,31.23,0,0,1,3-2.19C660.49,253.84,660.4,253.7,660.31,253.76Z" style="fill:#263238"></path><path d="M668.22,256.75c-.53.23-1.08.42-1.61.64l-1.61.67c-.11,0-.06.23.06.18l1.61-.65,1.6-.68C668.37,256.87,668.32,256.71,668.22,256.75Z" style="fill:#263238"></path><path d="M633.23,294.86s2.53,17.57,15.74,23.71,29.31,0,29.31,0S672,280.57,633.23,294.86Z" style="fill:#FFC727"></path><path d="M669.18,307.15c-1.22-.14-2.43-.35-3.64-.57l-1.77-.34c-.3-.06-.61-.13-.93-.18-.35-.33-.7-.67-1.07-1a52.82,52.82,0,0,0-8.08-5.86,48,48,0,0,0-4.84-2.49l.25,0,4.35.18c2.9.14,5.8.2,8.69.39.11,0,.1-.16,0-.16-2.91-.2-5.8-.52-8.7-.77l-4.23-.37-2.17-.19-.56-.06c-.75-.28-1.51-.55-2.28-.79a20.69,20.69,0,0,0-11.19-.62c-3.32.86-6.64,3-7.5,6.54,0,.12.16.2.21.08,1.24-2.93,4.49-4.4,7.42-5a17.72,17.72,0,0,1,6-.12,14.58,14.58,0,0,0,.66,2.66c.37,1.23.73,2.47,1.1,3.7.75,2.47,1.58,4.91,2.31,7.39a.08.08,0,0,0,.15,0c-.61-2.47-1.13-5-1.72-7.42-.29-1.22-.6-2.43-.9-3.64a18.84,18.84,0,0,0-.67-2.49,32.27,32.27,0,0,1,3.43.8,50.66,50.66,0,0,1,6,2.2c.19,1.25.47,2.49.76,3.72.36,1.56.76,3.09,1.25,4.61a.08.08,0,0,0,.15-.05l-.06-.28h0c-.3-1.44-.61-2.87-.92-4.3-.24-1.16-.47-2.32-.72-3.48,1.64.74,3.26,1.55,4.82,2.44,0,.36.12.73.17,1.05.09.61.2,1.21.31,1.81.25,1.35.52,2.7.85,4a61.47,61.47,0,0,0,2.27,7.64.08.08,0,0,0,0,.1l.07.09c.06.06.15,0,.14-.09-.61-2.6-1.31-5.18-1.88-7.79-.29-1.31-.58-2.61-.84-3.92-.13-.65-.25-1.31-.37-2a5.58,5.58,0,0,1-.09-.59,54,54,0,0,1,5.14,3.43,54.68,54.68,0,0,1,7.87,7.18c.09.11.28,0,.19-.15a46.11,46.11,0,0,0-3.14-3.84c-.67-.72-1.36-1.4-2.06-2.08l.22,0c.62.11,1.24.2,1.86.28,1.22.16,2.45.28,3.67.42C669.24,307.32,669.28,307.16,669.18,307.15Z" style="fill:#263238"></path><path d="M659.9,313.1h0c0-.15,0-.3-.08-.46s-.13-.38-.16-.57h0c-.27-1.17-.5-2.35-.72-3.54,0-.08-.14-.06-.14,0a14.48,14.48,0,0,0,1,4.59,0,0,0,0,0,.09,0Z" style="fill:#263238"></path><path d="M648.84,312.82c0-.05,0-.07-.08-.08-.37-1.55-.72-3.11-1-4.67-.17-.83-.34-1.65-.5-2.47-.09-.45-.17-.89-.25-1.34a4.05,4.05,0,0,0-.28-1.14.08.08,0,0,0-.15,0,7.65,7.65,0,0,0,.33,2.36c.16.86.33,1.71.52,2.57.38,1.73.82,3.45,1.3,5.16a.09.09,0,0,0,.18,0Z" style="fill:#263238"></path><path d="M668,302.09c-2.41-.33-4.82-.68-7.23-1-.11,0-.15.15,0,.16,2.4.36,4.82.66,7.24,1C668,302.26,668.08,302.1,668,302.09Z" style="fill:#263238"></path><path d="M626.46,253.67s-8.08-35.45,30-49.8C656.48,203.87,667,250.54,626.46,253.67Z" style="fill:#FFC727"></path><path d="M634.69,233.56l.41-.25c.72-.39,1.43-.8,2.15-1.2l4.42-2.47c2.91-1.63,5.78-3.32,8.7-4.91.1,0,0-.19-.08-.14-2.93,1.6-5.92,3.09-8.87,4.65l-4.37,2.31-1.78.94c1.27-2.41,2.63-4.77,4.12-7.05,2-3,4.17-5.93,6.44-8.76a.13.13,0,1,0-.18-.18,60.63,60.63,0,0,0-8.81,10.8c0-.12,0-.25,0-.37,0-.88.07-1.76.08-2.65,0-1.73-.06-3.46,0-5.19,0-.1-.16-.1-.16,0-.07,1.7-.28,3.4-.37,5.1,0,.85-.09,1.7-.11,2.55,0,.46-.06,1,0,1.49-.79,1.24-1.54,2.51-2.25,3.79a66.82,66.82,0,0,0-3.41,7.14c0-.88-.09-1.76-.14-2.64-.12-1.94-.35-3.88-.43-5.82,0-.1-.17-.1-.17,0,0,1.95-.05,3.89,0,5.83,0,1,.06,1.94.13,2.91l.06,1.08a64.26,64.26,0,0,0-2.87,9.75,101.75,101.75,0,0,0-1.42,10.7s0,0,0,0a57.84,57.84,0,0,1,2-9.54q.71-2.52,1.5-5c1.59-.75,3.11-1.68,4.64-2.53l4.78-2.62c3.18-1.74,6.35-3.51,9.63-5.05.09-.05,0-.18-.09-.14-3.32,1.5-6.67,2.93-9.93,4.57-1.62.82-3.22,1.69-4.8,2.58-1.32.74-2.68,1.49-3.95,2.35.37-1.1.76-2.2,1.18-3.29A94,94,0,0,1,634.69,233.56Z" style="fill:#263238"></path><path d="M631.48,225.46a.09.09,0,0,0-.17,0c.14,2,.21,4,.42,6.06,0,.11.19.11.18,0C631.84,229.49,631.62,227.48,631.48,225.46Z" style="fill:#263238"></path><path d="M649.74,232.23c-2.39,1-4.79,1.87-7.16,2.86-.07,0,0,.14,0,.11,2.41-.9,4.78-1.88,7.18-2.82C649.88,232.35,649.84,232.19,649.74,232.23Z" style="fill:#263238"></path><path d="M653.36,215.88a62,62,0,0,0-6.77,3.63c-.11.07,0,.24.1.17,2.21-1.29,4.46-2.53,6.76-3.67C653.54,216,653.45,215.83,653.36,215.88Z" style="fill:#263238"></path><rect x="597.85" y="330.34" width="54.94" height="57.91" style="fill:#37474f"></rect><rect x="594.07" y="350.83" width="2.81" height="130.32" style="fill:#263238"></rect><rect x="653.46" y="350.83" width="2.81" height="130.32" style="fill:#263238"></rect><rect x="625.26" y="350.83" width="2.81" height="130.32" style="fill:#263238"></rect><rect x="595.47" y="384.54" width="59.39" height="8.02" style="fill:#263238"></rect></g><g id="freepik--character-2--inject-412"><path d="M399.57,480.74c-2.75.86-83.08-.88-86-2.83-1.13-.73,5.75-76.82,5.75-76.82l50.95,1L364.47,453s29.63,14,32.64,16.54S402.32,479.89,399.57,480.74Z" style="fill:#ad6359"></path><path d="M399.57,480.74c-2.74.86-83.08-.88-86-2.84-.36-.22-.46-7.95.82-18,14.56,2.45,66.56,10.43,70.6,8.05,2.83-1.66.33-4.26-2-6,6.63,3.31,12.83,6.49,14.11,7.56C400.08,472,402.32,479.89,399.57,480.74Z" style="fill:#263238"></path><path d="M365.9,440.76l-50-.7s9.91-119.79,9.49-122.1c-.52-2.95-36-142.08-36-142.08H337.1s37.65,129.68,39,142.17C378.28,338.23,365.9,440.76,365.9,440.76Z" style="fill:#263238"></path><path d="M320.38,428.76c3-.21,5.94-.17,8.91-.21s5.93-.05,8.9,0c5.93.06,11.86.15,17.79.32,1.62,0,3.24.09,4.86.17s3.46.37,5.19.44a.11.11,0,0,1,0,.21c-1.46,0-2.91.23-4.37.27s-3,.05-4.54.05l-8.9,0c-5.92,0-11.86-.13-17.78-.38-3.35-.13-6.73-.18-10.07-.51A.16.16,0,0,1,320.38,428.76Z" style="fill:#37474f"></path><path d="M299.87,187.11c4.27,15.13,8.17,30.39,12,45.63s7.64,30.51,11.44,45.77Q326.16,290,329,301.4c1.85,7.42,4,14.89,4.45,22.57s-.52,15.67-1.18,23.44-1.32,15.62-2,23.42c-1.37,15.63-2.68,31.26-4.38,46.85q-.31,2.93-.62,5.85c0,.17-.27.17-.26,0,1-15.63,2.11-31.26,3.36-46.87q.93-11.71,1.91-23.43c.64-7.8,1.55-15.62,1.79-23.44s-1.19-15.45-3.09-23.07l-5.62-22.39q-5.72-22.89-11.42-45.77c-4.24-17.09-8.47-34.21-12.21-51.41A.07.07,0,0,1,299.87,187.11Z" style="fill:#37474f"></path><path d="M289.37,175.88s15.22,59.69,25.87,101.71l20.31-101.71Z" style="fill:#37474f"></path><path d="M339.58,480.92c-2.75.87-83.08-.87-86-2.83-1.13-.72,3.07-76.86,3.07-76.86l50.27,1-2.43,50.94s29.64,14,32.64,16.53S342.34,480.08,339.58,480.92Z" style="fill:#ad6359"></path><path d="M339.58,480.93c-2.74.85-83.08-.88-86-2.84-.35-.22-.27-7.75,0-18,14.57,2.44,67.37,10.43,71.42,8.05,2.82-1.66.32-4.25-2-6,6.64,3.31,12.83,6.5,14.11,7.57C340.1,472.17,342.33,480.08,339.58,480.93Z" style="fill:#263238"></path><path d="M335.56,175.86s-2.7,33.74-8.26,42.22a85.3,85.3,0,0,0-13.85,6.9s-3.44,90.28-3.37,95.7c.22,20.29-5,119.08-5,119.08l-50.43-.48s5.22-111.72,5.24-119.15c0-7.18,3.44-52.51,6.48-91.82,0,0-4.49-12.55-4-18.89,1.2-15.37,8.1-33.54,8.1-33.54Z" style="fill:#263238"></path><path d="M317.81,208c.19-1.26.38-2.53.58-3.79.35-2.31.82-4.61,1.23-6.91.92-5.24,1.87-10.48,3-15.67,0-.12.24-.09.22,0-.2,2.09-.44,4.18-.74,6.26s-.5,4.19-.79,6.27c-.59,4.13-1.16,8.27-1.87,12.38-.27,1.59-1.26,4.43,1,4.92,1.8.39,3.13-1.39,3.66-2.87a34.73,34.73,0,0,0,1.21-5.71q.56-3.13,1-6.28c.64-4.57,1.35-9.12,2.09-13.67,0-.13.23-.09.23,0a139.34,139.34,0,0,1-1,14q-.45,3.33-1,6.65a23.86,23.86,0,0,1-1.53,6.2,5,5,0,0,1-3.78,3h-.1a.14.14,0,0,1,.06.13c0,.74,0,1.49-.09,2.23s-.22,1.46-.36,2.18a14.83,14.83,0,0,1-.56,2.18c-.12.34-.25.67-.4,1s-.4.6-.59.91a.14.14,0,0,1-.25-.07h0c0-.12,0-.24,0-.36V221h0a4.82,4.82,0,0,1,0-.65c.05-.35.13-.71.21-1.06.16-.7.35-1.4.54-2.1s.34-1.4.52-2.09.42-1.43.58-2.15a.18.18,0,0,1,.05-.07,3.3,3.3,0,0,1-3.18-2A5.81,5.81,0,0,1,317.81,208Z" style="fill:#37474f"></path><path d="M309.37,226.08a40.49,40.49,0,0,1,4.75-3.12,45.44,45.44,0,0,1,5.41-2.81c3.65-1.58,7.41-2.66,11.17-3.91.11,0,.19.15.08.2-3.65,1.45-7.14,3.37-10.67,5.1-1.73.85-3.49,1.65-5.25,2.43s-3.53,1.7-5.35,2.36A.15.15,0,0,1,309.37,226.08Z" style="fill:#37474f"></path><path d="M280.9,197.9c2.57,0,11.44-.64,14.07-3.59a18,18,0,0,0,3.29-5.92,57.54,57.54,0,0,0,2-7.19c0-.12.2-.08.2,0a27.85,27.85,0,0,1-1,8.17c-.62,2.25-1.45,4.76-3.28,6.34s-4.51,2.25-7,2.55a32.32,32.32,0,0,1-8.28-.11C280.73,198.15,280.72,197.9,280.9,197.9Z" style="fill:#37474f"></path><path d="M341.59,198.59a8.61,8.61,0,0,1-3.39-2.05c-1.94-2.92-2.41-12.21-2.58-14.65,0-.12-.06-.08-.06,0,0,2.74.09,5.53.32,8.17a29.13,29.13,0,0,0,1,6.34c.59,1.67,3.85,2.81,4.7,2.44C341.65,198.84,341.65,198.59,341.59,198.59Z" style="fill:#37474f"></path><path d="M256.91,429.5c3-.21,5.95-.17,8.91-.21s5.93-.05,8.9,0c5.93.06,11.86.15,17.79.32,1.62,0,3.24.09,4.86.17s3.47.37,5.2.44a.11.11,0,0,1,0,.21c-1.45,0-2.91.23-4.37.27s-3,.05-4.54.05c-3,0-5.93,0-8.89,0-5.93-.05-11.87-.13-17.79-.38-3.35-.13-6.73-.18-10.06-.51A.16.16,0,0,1,256.91,429.5Z" style="fill:#37474f"></path><path d="M263.07,422.94h0a.63.63,0,0,1-.59-.65L273.84,226.8c-.15-.85-3.36-11.77-3.64-17.35-.3-5.9,5.79-28.88,6.05-29.85a.62.62,0,0,1,.75-.44.61.61,0,0,1,.44.75c-.06.24-6.31,23.77-6,29.48s3.62,17.18,3.63,17.27-11.38,195.69-11.38,195.69A.62.62,0,0,1,263.07,422.94Z" style="fill:#37474f"></path><path d="M314.46,114.62a4.27,4.27,0,0,0,4.75-6.12,3.93,3.93,0,0,0,4.31-2.12,3.76,3.76,0,0,0-1.57-4.74s0,0,0,0a3.87,3.87,0,0,1,1.3,4.58,3.46,3.46,0,0,1-3.31,2,4.71,4.71,0,0,0,2.77-2.55,3.67,3.67,0,0,0-.81-4,5.38,5.38,0,0,0,1.73-4.51,3.68,3.68,0,0,0-2.66-3,4.09,4.09,0,0,0-4-6.38,3.43,3.43,0,0,0-2.75-5.08,2.33,2.33,0,0,0-.64-2.42,3.89,3.89,0,0,0-2.83-.89,2.79,2.79,0,0,0-1.78-2,2.52,2.52,0,0,0-3,1.28,6.86,6.86,0,0,0-4.65-1.56,3.58,3.58,0,0,0-3.1,2.47,5,5,0,0,0-6.93,2.68A3.5,3.5,0,0,0,288,83.5a5.15,5.15,0,0,0-1.19,2.19,2.6,2.6,0,0,0-2.64,1.53,3.46,3.46,0,0,0,.14,3A1.78,1.78,0,0,1,284,91a4.56,4.56,0,0,0-.39,4.28,3.09,3.09,0,0,0-.1,4.64,3.49,3.49,0,0,0,1,4.78,5.07,5.07,0,0,0-.25,4.22,3,3,0,0,0,2.51,2,1.76,1.76,0,0,0,1,2.11,4,4,0,0,0,.94.31,4.07,4.07,0,0,1,1.21.31c.35.23.47.68.68,1a4.49,4.49,0,0,0,.51.66A4.62,4.62,0,0,0,297,116a3.73,3.73,0,0,0,3.84,1.34,9,9,0,0,0,1.35-.36,2,2,0,0,1,1.21-.13c.26.07.51.2.78.27a3.18,3.18,0,0,0,2.47-.58C308.9,119.83,313.54,118.19,314.46,114.62Zm-30.13-26.8a2.78,2.78,0,0,1,2.49-2l0,.15s-.35.13-.52.21a3.46,3.46,0,0,0-.82.6,3.6,3.6,0,0,0-1,1.82,4.25,4.25,0,0,0-.06.94v.12A3.34,3.34,0,0,1,284.33,87.82Zm24.87-9.47a2.65,2.65,0,0,0-3,.51l-.07,0a2.29,2.29,0,0,1,4.3.61h0A2.87,2.87,0,0,0,309.2,78.35Zm-2.42,38.07,0,0a4.8,4.8,0,0,0,6.67-.44C311.77,118.14,309,119,306.78,116.42Z" style="fill:#263238"></path><path d="M315.45,123.39c11.95,24.19,25.41,49.4,35.53,51.48,8.51,1.75,27.17,2.66,50.79,1.12,4.37-.28-7.55-33.86-10.58-33.27-8,1.58-32.25,1.89-33.37.87-1.47-1.35-18.56-18.86-30.42-30C311.44,98.54,309.27,110.88,315.45,123.39Z" style="fill:#ad6359"></path><path d="M396.67,175.78c3.69.49,20.79,1.23,25.6.38s18.45-4.33,18.17-8.08-4.36-3.05-4.36-3.05,5.53-2.38,4.9-6.12-6.93-2.46-6.93-2.46,5.5-2.85,4.61-6.54-7-1.34-7-1.34,5.15-2.37,3.13-5.1c-2.42-3.29-11.43,2.17-16.8,2.72-1.23.12-24.93.76-24.93.76Z" style="fill:#ad6359"></path><path d="M432.17,148.38c-6.64,4-10.23,4.6-17.85,4.44-.15,0-.19.22,0,.24,7.45.83,12.06.73,18.09-4.37C432.67,148.44,432.48,148.19,432.17,148.38Z" style="fill:#263238"></path><path d="M434.57,156.13c-7.25,3.55-11.14,4.23-19.14,4.65-.11,0-.11.2,0,.2,7.88.25,12.48,0,19.26-4.46C435,156.32,434.9,156,434.57,156.13Z" style="fill:#263238"></path><path d="M435.67,165c-7.27,2.93-11.5,3.87-19.31,3.28a.14.14,0,1,0,0,.28c7.91,1.38,13.2.25,19.42-3.33C436.16,165,436.13,164.86,435.67,165Z" style="fill:#263238"></path><path d="M388.39,144.4s7.83-5.73,11.83-7.48,21.29-2.82,21.73.9c.57,4.81-9.29,7.39-14.29,8,0,0,1.33,11.12-5.35,14.51S388.39,144.4,388.39,144.4Z" style="fill:#ad6359"></path><path d="M421.68,139.2c-2.65,4.76-9.26,5.16-14.06,6.14a.44.44,0,0,0-.32.66c.24,4.7-.78,11.4-4.7,14.44a.11.11,0,1,0,.12.19c4.65-2.69,6.19-9.19,5.59-14.32,4.94-.92,11.56-1.62,13.41-7.09C421.74,139.19,421.69,139.17,421.68,139.2Z" style="fill:#263238"></path><path d="M388.06,142.57l8,36s-36.79.84-47.81-3.89c-8.26-3.54-26.86-33.79-34.25-53.46-7.56-20.12,4.94-16.9,13.12-8.47s30.36,29.76,31.11,30S388.06,142.57,388.06,142.57Z" style="fill:#FFC727"></path><path d="M383.21,159.84q-.88-3.87-1.8-7.74c-.62-2.57-1.14-5.19-1.94-7.71,0-.11-.22-.1-.21,0,.32,2.52.92,5.05,1.41,7.55.53,2.66,1.08,5.31,1.63,8,1.1,5.24,2.4,10.43,3.78,15.6,0,.13.2.07.18-.05C385.36,170.24,384.39,165,383.21,159.84Z" style="fill:#263238"></path><path d="M314,121.22c7.39,19.68,26,49.92,34.25,53.47,6.72,2.88,23,3.68,34.67,3.89l-66.33-72.32C312.09,105.58,309.55,109.32,314,121.22Z" style="opacity:0.1"></path><path d="M335.9,156.82l3.78,19.48s-2.7.08-11.6.29l-2.65-7-3.56,7.25-56.38,0,7.37-16.06c5.59-15.43,12.37-38.57,22.79-50.19,8.28-9.24,18.16-8.69,24.53-2.4,1.62,1.59,17.91,24.62,20.06,34.18C341.77,149.22,335.9,156.82,335.9,156.82Z" style="fill:#455a64"></path><path d="M335.9,156.82l3.78,19.48s-2.7.08-11.6.29l-2.65-7-3.56,7.25-56.38,0,7.37-16.06c5.59-15.43,12.37-38.57,22.79-50.19,8.28-9.24,18.16-8.69,24.53-2.4,1.62,1.59,17.91,24.62,20.06,34.18C341.77,149.22,335.9,156.82,335.9,156.82Z" style="fill:#FFC727"></path><path d="M314.5,153.28a54.26,54.26,0,0,1,9.57.94c1.58.32,3.14.73,4.69,1.18.78.22,1.56.41,2.34.6a8.67,8.67,0,0,0,2.47.31c.08,0,.09.13,0,.14a14.11,14.11,0,0,1-2.34.18,13.56,13.56,0,0,1-2.27-.29c-1.6-.3-3.19-.7-4.79-1-3.22-.67-6.45-1.33-9.69-1.71C314.35,153.58,314.35,153.28,314.5,153.28Z" style="fill:#263238"></path><path d="M307,157.45a57.14,57.14,0,0,1,7.79-1.24,37,37,0,0,1,3.94-.1c.63,0,1.26,0,1.89.07s1.39.19,2.08.21c.07,0,.09.14,0,.14-.65,0-1.3.13-1.95.17l-2,.14c-1.31.09-2.62.2-3.93.27-2.62.15-5.23.34-7.84.6C306.93,157.72,306.91,157.48,307,157.45Z" style="fill:#263238"></path><path d="M302.53,105.22c1.88,5.74,7.12,16.88,10.89,22.16A174,174,0,0,0,324.36,141a72.45,72.45,0,0,0,1.43-10.78c0-5.63-1.32-11.52-4.08-20.13-.76-1-1.3-1.69-1.52-1.92A15,15,0,0,0,302.53,105.22Z" style="fill:#ebebeb"></path><path d="M324.36,141c1.66,4.72,2.79,10.84,1.05,15.32.07,4.41.11,8.82,0,13.23-.26-4.42-.4-8.84-.5-13.27,1.74-4.92.67-10.35-.57-15.28Z" style="fill:#263238"></path><path d="M320.88,146.31a1.2,1.2,0,0,0,2.39-.18,1.2,1.2,0,0,0-2.39.18Zm0,0a1.45,1.45,0,0,1,2.89-.22,1.45,1.45,0,0,1-2.89.22Z" style="fill:#263238"></path><path d="M320.77,156.56a1.2,1.2,0,0,0,2.4-.19,1.2,1.2,0,0,0-2.4.19Zm0,0a1.45,1.45,0,0,1,2.89-.23,1.45,1.45,0,0,1-2.89.23Z" style="fill:#263238"></path><path d="M320.67,166.81a1.2,1.2,0,0,0,2.39-.19,1.2,1.2,0,0,0-2.39.19Zm0,0a1.45,1.45,0,0,1,2.89-.23,1.45,1.45,0,0,1-2.89.23Z" style="fill:#263238"></path><polygon points="349.06 115.93 336.57 178 383.81 186.67 396.29 124.61 349.06 115.93" style="fill:#FFC727"></polygon><polygon points="391.38 167.21 387.53 186.35 383.81 186.67 387.97 165.95 391.38 167.21" style="fill:#FFC727"></polygon><g style="opacity:0.2"><polygon points="349.06 115.93 336.57 178 383.81 186.67 396.29 124.61 349.06 115.93"></polygon><polygon points="391.38 167.21 387.53 186.35 383.81 186.67 387.97 165.95 391.38 167.21"></polygon></g><polygon points="349.04 116.03 336.52 178.25 381.49 189.37 394 127.16 349.04 116.03" style="fill:#FFC727"></polygon><polygon points="349.04 116.03 336.52 178.25 381.49 189.37 394 127.16 349.04 116.03" style="opacity:0.1"></polygon><path d="M290,119c-14.91,25.62-26.31,63.48-18.95,70.67,8.19,8,28.86-26.79,28.28-28.4-.45-1.21-.13-19.28,2.15-39.95S293.71,112.71,290,119Z" style="fill:#ad6359"></path><path d="M299.05,166.12c.09-3,3.22-34.9,4.06-46.62s-4.81-14.12-13.26-1.3-21.19,40.14-21.78,59c-.58,18.13,8.35,17.44,18,6.53A125.31,125.31,0,0,0,299.05,166.12Z" style="fill:#FFC727"></path><path d="M299.05,166.12c.23-3.73.52-7.46.82-11.19s.64-7.45,1-11.17l1.1-11.17.59-5.58c.22-1.86.42-3.72.66-5.57-.11,1.86-.25,3.73-.38,5.59l-.44,5.6-1,11.17c-.37,3.73-.71,7.45-1.1,11.17S299.51,162.41,299.05,166.12Z" style="fill:#263238"></path><path d="M302.54,130.1a19.81,19.81,0,0,1,.74-2.87c.15-.47.31-.93.49-1.39s.37-.92.56-1.38a12.36,12.36,0,0,1-.65,2.89A16.8,16.8,0,0,1,302.54,130.1Z" style="fill:#263238"></path><path d="M272.13,190.46c7.84,4,19.4-.36,52.66-10.63,4.6-1.42,4-37.58-1-36.31-6.29,1.59-30.35,9.13-32,9.91C277.48,160,266.82,187.78,272.13,190.46Z" style="fill:#ad6359"></path><path d="M313.18,148.47s11.23-6.86,18.78-11c4.21-2.31,11.78-5.64,15.66-5.92,5.79-.43,30.28,1.49,29.94,7.44-.3,5.39-21.14,1.07-21.14,1.07s21.41,2.5,19.85,8.92-24.45-1.6-24.45-1.6,21.94,3.06,19.28,9.42c-2,4.81-23.14-1.28-23.14-1.28s18.84,2.77,17,7.8c-2,5.56-21.91,1.16-21.91,1.16-6.86,12-15,14.92-21.09,16.29C320.47,181.1,313.18,148.47,313.18,148.47Z" style="fill:#ad6359"></path><path d="M349.08,138.71c2.52.2,5.08.39,7.58.81s5,.95,7.43,1.6a43.18,43.18,0,0,1,9.28,3.47c-5.43-2.29-14.35-4-16.85-4.38s-5-1-7.46-1.41C349,138.79,349,138.7,349.08,138.71Z" style="fill:#263238"></path><path d="M347.37,147.7c3.21.4,6.42.68,9.62,1.22s6.15,1.33,9.28,2.08c.24.06.13.17-.11.12-3.16-.63-6.14-1-9.31-1.56s-6.32-1.31-9.5-1.78C347.31,147.77,347.32,147.69,347.37,147.7Z" style="fill:#263238"></path><path d="M344.52,155.16a71.84,71.84,0,0,1,14.56,3c.24.07.08.2-.17.14-4.82-1.08-8.6-2-14.4-2.95C344.42,155.31,344.41,155.15,344.52,155.16Z" style="fill:#263238"></path><path d="M319.67,144l-10.59,43.52s-29.67,7.93-37.27,3.2c-5-3.11,5-31.85,21.29-37.87Z" style="fill:#FFC727"></path><path d="M277.59,167.29a29.76,29.76,0,0,1,15.52-14.52c.08,0,.15.09.07.13-6.71,3.37-13.78,11.62-15.47,14.47C277.66,167.44,277.55,167.37,277.59,167.29Z" style="fill:#263238"></path><path d="M299.23,186.42c.91-4.84,2.07-9.64,3.25-14.43s2.36-9.59,3.66-14.36c.73-2.69,1.45-5.38,2.28-8,0-.07.14-.05.13,0-.91,4.84-2.05,9.65-3.2,14.44s-2.35,9.59-3.59,14.37c-.71,2.7-1.46,5.39-2.29,8.06C299.43,186.6,299.2,186.57,299.23,186.42Z" style="fill:#263238"></path><path d="M319.52,143.54a42.6,42.6,0,0,0-5.55,1.53c-1.83.58-3.65,1.2-5.47,1.83-3.61,1.25-11.4,3.49-17.53,6.8-.07,0,.46.18.52.14,2.84-1.73,26-8.81,27.81-9.61a3.38,3.38,0,0,0,0,.45c0,.1.15.17.21.06.14-.26.2-.53.31-.79A.28.28,0,0,0,319.52,143.54Z" style="fill:#263238"></path><path d="M322.26,110l7.4,10,.17.24-.29.07-3.83,1.06.12-.37,4.3,5.14.12.14-.06.17-5.49,14.76-.17.47-.4-.31c-5.53-4.42-11-8.9-16.53-13.35l.07-.21,1.75-5,.13.35L303,119.24l-.12-.07V119c0-4.28,0-8.57,0-12.86.15,4.28.35,8.57.45,12.85l-.12-.19,6.66,3.75.21.12-.08.23-1.7,5-.1-.36c5.47,4.39,11,8.73,16.41,13.14l-.57.16,5.57-14.73.05.31-4.17-5.25-.22-.28.34-.08,3.85-1-.11.32L322.26,110Z" style="fill:#263238"></path><path d="M306,106.51c.24,1.26,5.83,9.59,11.53,9.57,1.86,0,2.25-10.14,2.25-10.14l.2-.75,2.8-10.38-12-8.42-1.73-1.13s-.58,2.89-1.26,6.5c0,.17-.07.33-.1.51s-.09.4-.12.59c-.11.54-.22,1.09-.31,1.64s-.15.82-.22,1.26l-.21,1.31A70.92,70.92,0,0,0,306,106.51Z" style="fill:#ad6359"></path><path d="M307.79,91.76A21.52,21.52,0,0,0,320,105.19l2.8-10.38-12-8.42-1.73-1.13S308.47,88.15,307.79,91.76Z" style="fill:#263238"></path><path d="M337.47,78.08c2.7,18.67-8.18,22.4-12.21,23-3.66.53-16.17,1.84-20.78-16.45S307.7,59.15,316,57.51,334.78,59.41,337.47,78.08Z" style="fill:#ad6359"></path><path d="M334.62,76.31a9.47,9.47,0,0,1-1.3.09,2.06,2.06,0,0,1-1.34-.16.67.67,0,0,1-.23-.78,1.67,1.67,0,0,1,1.47-.83,2.48,2.48,0,0,1,1.72.41A.72.72,0,0,1,334.62,76.31Z" style="fill:#263238"></path><path d="M321.41,77.85c.44-.09.83-.24,1.26-.36a2.12,2.12,0,0,0,1.2-.62.66.66,0,0,0-.06-.81,1.65,1.65,0,0,0-1.66-.27,2.44,2.44,0,0,0-1.47,1A.72.72,0,0,0,321.41,77.85Z" style="fill:#263238"></path><path d="M324.47,80.92s-.09.08-.08.13c.19,1.27.2,2.76-.9,3.32,0,0,0,.08,0,.07C324.89,84.07,324.86,82.1,324.47,80.92Z" style="fill:#263238"></path><path d="M323.17,79.73c-2.07.09-1.73,4.23.19,4.14S324.91,79.65,323.17,79.73Z" style="fill:#263238"></path><path d="M322.38,80c-.34.26-.66.7-1.1.78s-.91-.31-1.27-.7c0,0-.07,0-.07.05.05.8.42,1.58,1.28,1.63s1.28-.7,1.42-1.51C322.66,80.12,322.52,79.91,322.38,80Z" style="fill:#263238"></path><path d="M331.86,79.74s.1.05.1.11c0,1.28.27,2.75,1.45,3.12,0,0,0,.07,0,.07C332,82.91,331.68,81,331.86,79.74Z" style="fill:#263238"></path><path d="M332.94,78.34c2.05-.26,2.42,3.87.52,4.11S331.22,78.56,332.94,78.34Z" style="fill:#263238"></path><path d="M333.82,78.53c.35.19.71.56,1.1.55s.75-.48,1-.94c0,0,.06,0,.07,0,.09.79-.1,1.64-.84,1.85s-1.25-.43-1.51-1.2C333.59,78.69,333.69,78.46,333.82,78.53Z" style="fill:#263238"></path><path d="M325,92c.27.34.52.79,1,.89a3.44,3.44,0,0,0,1.42-.15,0,0,0,0,1,0,.07,1.76,1.76,0,0,1-1.72.5,1.4,1.4,0,0,1-.87-1.26C324.86,92,325,92,325,92Z" style="fill:#263238"></path><path d="M330.88,86.12a28,28,0,0,1,.5,2.77,19.21,19.21,0,0,0-5.11,1.2c-.38.17-.41-.16,0-.47a7.65,7.65,0,0,1,4.27-1.44c0-.25-.71-2.88-.57-2.9a7.54,7.54,0,0,1,2.07.28c-.77-3.93-2.05-7.35-2.76-11.28a.12.12,0,0,1,.23-.08,62.17,62.17,0,0,1,3.52,12C333.15,86.75,331.25,86.24,330.88,86.12Z" style="fill:#263238"></path><path d="M328.84,89s-.24,2.35-1.5,2.92c-1.45.66-2.46-1-1-2.29A4.74,4.74,0,0,1,328.84,89Z" style="fill:#263238"></path><path d="M328.53,90.32a2.65,2.65,0,0,1-1.19,1.57,1.13,1.13,0,0,1-1.63-.52h0s0,0,0-.06C327,90,328,90,328.53,90.32Z" style="fill:#ff99ba"></path><path d="M306.6,85.33c3.88-.67,2.62-9.6,2.62-9.6s2.13-1.24,4.13-6.15c0,0-1.19,4.16-3.51,6.17-.39.34,12.74-3.17,12.35-13.6,0,0,4.48,8.29,14.25,9.81.31.05-2.37-9-4.68-10.88a19.68,19.68,0,0,0-4.36-2.67,19.33,19.33,0,0,0-14.59-1.36c-8,2.52-12,12-12,15.63C300.69,79.83,304.76,85.65,306.6,85.33Z" style="fill:#263238"></path><path d="M310.3,75.9c7.23-1.49,12.27-7.08,11.67-14.61a.17.17,0,0,1,.33,0c2.2,7.38-5.06,14.23-12.05,14.8C310.09,76.06,310.13,75.94,310.3,75.9Z" style="fill:#263238"></path><path d="M322,61.86s.05-.06.07,0c2.49,3.53,5.47,10,10.86,8.85.15,0,.21.17.07.21C328,72.46,323.23,66.1,322,61.86Z" style="fill:#263238"></path><path d="M309.38,83.87s-4.44-5.64-7-4,1,10,4.19,11a3.2,3.2,0,0,0,4.17-2Z" style="fill:#ad6359"></path><path d="M303.44,82.21a0,0,0,0,0,0,.09c2.24.76,3.52,2.73,4.45,4.8a1.76,1.76,0,0,0-2.66-.33c-.06,0,0,.13.06.11a2,2,0,0,1,2.2.56,9.23,9.23,0,0,1,1.13,1.69c.11.19.46.06.37-.16,0,0,0,0,0,0C308.86,86.12,306.46,82.32,303.44,82.21Z" style="fill:#263238"></path><path d="M320,105.23l-3.06,8.7-11.09-10.36-2.86,3.6s11.13,16.74,11.16,16l3.21-7.53,5.31,4.91-1-12.85Z" style="fill:#ebebeb"></path><path d="M322.55,114.13c-.23-2.12-.41-4.25-.74-6.36,0-.07-.13-.1-.14,0-.34,2.07.59,10.16.66,12.1l0,0c-.22-.21-4.91-4.31-4.95-4.24-.71,1.21-3.07,6.69-3.22,7.18-1.76-2.66-9.21-13.12-11.26-15.61a.07.07,0,0,0-.13.07c1.58,2.82,11.21,16.64,11.33,16.59a81.87,81.87,0,0,0,3.35-8c.8.9,5.56,5.55,5.56,5.23A67.94,67.94,0,0,0,322.55,114.13Z" style="fill:#263238"></path></g><g id="freepik--character-3--inject-412"><path d="M567.82,480.79c-2.81.88-82.35-.83-85.34-2.81-1.14-.74-1.57-12.35-1.68-26.38q0-4.55,0-9.33c0-3.77,2.62-40.4,2.62-40.4l51,1-1.89,40.39-.44,9.33s30.16,14.28,33.21,16.81S570.61,479.93,567.82,480.79Z" style="fill:#d3766a"></path><path d="M567.82,480.79c-2.81.87-82.35-.83-85.35-2.8-1.12-.74-1.56-12.36-1.67-26.39,0-3,0-6.14,0-9.33,0-.68.09-2.45.23-4.89H532.8l-.27,5.84-.45,9.34s30.17,14.27,33.21,16.8S570.61,479.93,567.82,480.79Z" style="fill:#ebebeb"></path><path d="M568.06,480.92c-1.83.56-35.71.05-60.38-.91-5.7-.23-10.92-.49-15.13-.75-5.8-.37-9.69-.76-10.31-1.17-1.38-.93-1.74-18-1.72-35.92l52,1-.44,9.38s30.33,14.35,33.4,16.89S570.86,480,568.06,480.92Z" style="fill:#FFC727"></path><path d="M568.06,480.92c-1.83.56-35.71.05-60.38-.91-5.7-.23-10.92-.49-15.13-.75-5.8-.37-9.69-.76-10.31-1.17-1.38-.93-1.74-18-1.72-35.92l52,1-.44,9.38s30.33,14.35,33.4,16.89S570.86,480,568.06,480.92Z" style="fill:#FFC727"></path><path d="M568.06,480.92c-1.83.56-35.71.05-60.38-.91-5.7-.23-10.92-.49-15.13-.75-5.8-.37-9.69-.76-10.31-1.17-1.38-.93-1.74-18-1.72-35.92l52,1-.44,9.38s30.33,14.35,33.4,16.89S570.86,480,568.06,480.92Z" style="opacity:0.7000000000000001"></path><path d="M567,477.69c-13.41-.61-67.52-1.84-80.81-1.43-.11,0-.11.08,0,.09,13.27.9,67.39,1.68,80.8,1.56C567.25,477.91,567.26,477.71,567,477.69Z" style="fill:#FFC727"></path><path d="M534.08,449.58c-5.26-1.1-11.73-.43-15.84,3.25-.16.14,0,.36.21.31A74.39,74.39,0,0,1,534,450.25.34.34,0,0,0,534.08,449.58Z" style="fill:#FFC727"></path><path d="M537.83,452c-5.25-1.1-11.72-.43-15.83,3.24-.16.15,0,.37.21.32a74.29,74.29,0,0,1,15.59-2.9A.33.33,0,0,0,537.83,452Z" style="fill:#FFC727"></path><path d="M541.59,454.33c-5.25-1.09-11.72-.42-15.83,3.25-.16.14,0,.37.21.32a74.29,74.29,0,0,1,15.59-2.9A.34.34,0,0,0,541.59,454.33Z" style="fill:#FFC727"></path><path d="M545.35,456.71c-5.25-1.1-11.72-.43-15.83,3.25-.16.14,0,.36.21.31a74.27,74.27,0,0,1,15.59-2.89A.34.34,0,0,0,545.35,456.71Z" style="fill:#FFC727"></path><path d="M544.08,437.59c-2-2.9-5.9-1.7-8.14.1a28.29,28.29,0,0,0-8.39,11.91.15.15,0,0,0,.12.2.65.65,0,0,0,.82.67c4.39-1.52,9.27-2.6,13.07-5.42C543.77,443.4,546,440.33,544.08,437.59Zm-9.41,9.22c-2.14.8-4.31,1.49-6.42,2.37,1.65-2.32,3.18-4.7,5-6.85a30.8,30.8,0,0,1,2.86-3c1.6-1.4,7.88-4.3,6.83,1.46C542.41,444,537.23,445.85,534.67,446.81Z" style="fill:#FFC727"></path><path d="M514.17,447.94c4.31,1.95,9.31,2,13.93,2.51a.66.66,0,0,0,.65-.84.14.14,0,0,0,.07-.21,28.17,28.17,0,0,0-10.73-9.85c-2.58-1.28-6.63-1.63-8,1.64C508.84,444.27,511.66,446.8,514.17,447.94Zm-2.3-3.81c-2.26-5.41,4.5-3.92,6.36-2.89a28.64,28.64,0,0,1,3.42,2.28,81.27,81.27,0,0,1,6.4,5.61c-2.25-.41-4.52-.62-6.78-.94C518.57,447.8,513.12,447.11,511.87,444.13Z" style="fill:#FFC727"></path><path d="M480.54,449c.07,15.23.5,28.29,1.7,29.09.63.42,4.52.81,10.31,1.18,4.21.26,9.43.52,15.13.74,4.59.18,9.5.35,14.46.49C508.31,469.92,492.75,458.19,480.54,449Z" style="opacity:0.1"></path><path d="M535.33,447.08H478.91S490.27,325.9,489.82,323.6c-.56-3-3.89-16.29-8.32-33.71-1.39-5.45-2.89-11.3-4.45-17.36-4.21-16.4-8.84-34.31-12.88-49.9-6.07-23.36-10.8-41.5-10.8-41.5h47.82s5.57,17.66,12.59,40.64C525.22,259.13,540.52,310.54,542,323,544.47,343.22,535.33,447.08,535.33,447.08Z" style="fill:#FFC727"></path><path d="M532.83,437.45c-8.62-.18-6.14-.25-14.76-.33-4.22,0-31.93-.28-35.87.37a.09.09,0,0,0,0,.17c3.94.66,31.65.41,35.87.37,8.62-.08,6.14-.15,14.76-.33A.13.13,0,0,0,532.83,437.45Z" style="fill:#263238"></path><path d="M500.44,315.55c-1.85-8.16-4.61-16.15-7-24.16q-7.34-24.39-14.76-48.77-3.71-12.18-7.44-24.37c-1.26-4.09-2.52-8.19-3.81-12.29s-2.68-8-3.81-12c-.46-1.64-.72-.74-.12,1.35,1.18,4.2,2.36,8.42,3.59,12.61q3.65,12.48,7.33,24.93,7.34,24.79,14.8,49.55,3.74,12.42,7.47,24.83a101.06,101.06,0,0,1,3.05,12,55.25,55.25,0,0,1,.5,12.85c-.54,8.63-7.91,75.5-9.46,92.68-.2,2.18-.39,4.35-.55,6.53-.06.73.45.82.53.12,1.86-17,8.64-74.43,10.22-91.35.4-4.25.85-8.51.85-12.78A52.08,52.08,0,0,0,500.44,315.55Z" style="fill:#263238"></path><path d="M495.76,181.13c-3.32,25.68-9.65,73.83-14.26,108.76-10.79-42.33-28.13-108.76-28.13-108.76Z" style="fill:#000102;opacity:0.1"></path><path d="M507.92,480.79c-2.8.88-82.35-.83-85.34-2.81-1.13-.74-1.56-12.35-1.68-26.38,0-3,0-6.14,0-9.33,0-3.77,2.62-40.4,2.62-40.4l51,1-1.88,40.39-.44,9.33s30.16,14.28,33.2,16.81S510.71,479.93,507.92,480.79Z" style="fill:#d3766a"></path><path d="M507.92,480.79c-2.8.87-82.35-.83-85.35-2.8-1.12-.74-1.55-12.36-1.67-26.39,0-3,0-6.14,0-9.33,0-.68.09-2.45.23-4.89H472.9l-.27,5.84-.45,9.34s30.17,14.27,33.21,16.8S510.71,479.93,507.92,480.79Z" style="fill:#ebebeb"></path><path d="M508.16,480.92c-1.83.56-35.71.05-60.37-.91-5.71-.23-10.93-.49-15.13-.75-5.81-.37-9.69-.76-10.32-1.17-1.38-.93-1.74-18-1.72-35.92l52,1-.44,9.38s30.33,14.35,33.4,16.89S511,480,508.16,480.92Z" style="fill:#FFC727"></path><path d="M508.16,480.92c-1.83.56-35.71.05-60.37-.91-5.71-.23-10.93-.49-15.13-.75-5.81-.37-9.69-.76-10.32-1.17-1.38-.93-1.74-18-1.72-35.92l52,1-.44,9.38s30.33,14.35,33.4,16.89S511,480,508.16,480.92Z" style="fill:#FFC727"></path><path d="M508.16,480.92c-1.83.56-35.71.05-60.37-.91-5.71-.23-10.93-.49-15.13-.75-5.81-.37-9.69-.76-10.32-1.17-1.38-.93-1.74-18-1.72-35.92l52,1-.44,9.38s30.33,14.35,33.4,16.89S511,480,508.16,480.92Z" style="opacity:0.7000000000000001"></path><path d="M507.08,477.69c-13.4-.61-67.51-1.84-80.81-1.43-.11,0-.11.08,0,.09,13.27.9,67.39,1.68,80.8,1.56C507.36,477.91,507.36,477.71,507.08,477.69Z" style="fill:#FFC727"></path><path d="M474.18,449.58c-5.26-1.1-11.73-.43-15.84,3.25-.16.14,0,.36.22.31a74.18,74.18,0,0,1,15.58-2.89A.34.34,0,0,0,474.18,449.58Z" style="fill:#FFC727"></path><path d="M477.94,452c-5.26-1.1-11.73-.43-15.84,3.24-.16.15,0,.37.22.32a74.2,74.2,0,0,1,15.58-2.9A.33.33,0,0,0,477.94,452Z" style="fill:#FFC727"></path><path d="M481.7,454.33c-5.26-1.09-11.73-.42-15.84,3.25-.16.14,0,.37.22.32a74.2,74.2,0,0,1,15.58-2.9A.34.34,0,0,0,481.7,454.33Z" style="fill:#FFC727"></path><path d="M485.46,456.71c-5.26-1.1-11.73-.43-15.84,3.25-.16.14,0,.36.21.31a74.39,74.39,0,0,1,15.59-2.89A.34.34,0,0,0,485.46,456.71Z" style="fill:#FFC727"></path><path d="M484.18,437.59c-2-2.9-5.9-1.7-8.14.1a28.18,28.18,0,0,0-8.38,11.91.14.14,0,0,0,.12.2.64.64,0,0,0,.81.67c4.39-1.52,9.27-2.6,13.07-5.42C483.87,443.4,486.09,440.33,484.18,437.59Zm-9.4,9.22c-2.15.8-4.31,1.49-6.42,2.37a84.35,84.35,0,0,1,5-6.85,29.73,29.73,0,0,1,2.87-3c1.6-1.4,7.88-4.3,6.82,1.46C482.51,444,477.33,445.85,474.78,446.81Z" style="fill:#FFC727"></path><path d="M454.28,447.94c4.3,1.95,9.31,2,13.92,2.51a.66.66,0,0,0,.65-.84.14.14,0,0,0,.08-.21,28.19,28.19,0,0,0-10.74-9.85c-2.57-1.28-6.63-1.63-8,1.64C448.94,444.27,451.76,446.8,454.28,447.94ZM452,444.13c-2.26-5.41,4.5-3.92,6.36-2.89a29.58,29.58,0,0,1,3.43,2.28,83,83,0,0,1,6.39,5.61c-2.25-.41-4.51-.62-6.78-.94C458.68,447.8,453.22,447.11,452,444.13Z" style="fill:#FFC727"></path><path d="M499.64,181.13s-1.1,22.87-6.34,41c-.42,1.5-.88,3-1.37,4.39a85.5,85.5,0,0,0-13.78,7.08s-.55,18.41-1.1,38.94c-.61,22.94-1.25,48.54-1.11,54,.48,20.31-1.49,121.4-1.49,121.4l-56.4.23s9.14-114.13,9.06-121.57c-.1-12,2.74-64.82,4.93-103.37a304.38,304.38,0,0,1,5.27-42.06Z" style="fill:#FFC727"></path><path d="M472.52,437.87c-8.62-.14-6.14-.22-14.76-.27-4.22,0-31.93-.15-35.87.52a.1.1,0,0,0,0,.18c3.95.63,31.66.27,35.88.22,8.61-.12,6.14-.18,14.75-.4A.13.13,0,0,0,472.52,437.87Z" style="fill:#263238"></path><path d="M439.22,189.3c-1,31.47-2.13,62.94-3.54,94.4s-7.76,134-9.66,151.5c0,.12.16.16.18,0,4.11-31.22,5.34-66.83,7.36-98.24s3.38-62.88,4.46-94.33c.6-17.8,1.06-35.6,1.6-53.39C439.62,189,439.23,189.05,439.22,189.3Z" style="fill:#263238"></path><path d="M492.61,226.51a97.24,97.24,0,0,0-15.24,7.1.17.17,0,0,0,.14.31c5.14-2.2,10.37-4.31,15.37-6.79A.34.34,0,0,0,492.61,226.51Z" style="fill:#263238"></path><path d="M494.39,194c0-.16-.32-.2-.32,0a146.47,146.47,0,0,1-.94,15.8c-.25,2.44-2.44,15.9-7,14.94-.77-.16-1.16-.85-1.27-1.92a15.56,15.56,0,0,1,.63-4.13c.52-2.82.94-5.65,1.22-8.49a71.81,71.81,0,0,0-.11-15.92.15.15,0,0,0-.3,0,135,135,0,0,1-1.5,22c-.59,3.5-2.53,8.78,1.44,9.3s6.71-8.31,7.21-10.72A74.72,74.72,0,0,0,494.39,194Z" style="fill:#263238"></path><path d="M486.23,225a24.6,24.6,0,0,0-1,3,7.12,7.12,0,0,0-.42,2.49c0,.16.23.17.31.07a8.82,8.82,0,0,0,1.07-2.43c.35-.93.72-1.86,1-2.81A.51.51,0,0,0,486.23,225Z" style="fill:#263238"></path><path d="M487,107.9c21.61,20.88,40.14,50.49,34.41,64.27-3.87,9.3-22.27-10.34-22.29-11.91,0-1.19-12.38-29.67-19.85-47S482.49,103.53,487,107.9Z" style="fill:#FFC727"></path><path d="M519.82,174.16c-5.84,3.47-20.66-12.49-20.68-13.9,0-1.19-12.38-29.67-19.84-47-3.49-8.09-3-10.74-1.08-10.82Z" style="fill:#000102;opacity:0.1"></path><path d="M433.76,197.1c.18.21,73.44-.91,73.44-.91s2-2.3.8-7.89c-4.5-21.55-18.76-73.57-25.4-82.24-3.26-4.25-14.78-12.16-22.22.56-6.11,10.43-24.74,63.5-28.23,83A10.89,10.89,0,0,0,433.76,197.1Z" style="fill:#FFC727"></path><path d="M519.82,156.77c2.94,2.55,2.58,21.83-9,45.74-1.85,3.82-29.09-1.15-28.87-5.68.36-7.14,13.17-27.42,14.13-28.76C504.11,156.85,515.86,153.32,519.82,156.77Z" style="fill:#d3766a"></path><path d="M468.3,223a4.64,4.64,0,0,0,5.2.94,6.84,6.84,0,0,0,2.39,4c2.27,1.69,5.91-1.13,5.91-1.13a8.46,8.46,0,0,0,3.19,3.83c2.34,1.4,6.42-.92,6.42-.92a7.41,7.41,0,0,0,4.93,1.61c4.76-.4,8.1-6.87,10.26-11s4.21-18.8,4.92-21.36l-25.35-13s-15.48,15.55-17.34,20.72C467.26,211.07,465.84,220.31,468.3,223Z" style="fill:#d3766a"></path><path d="M473.42,223.79c.55-5,2.57-9.63,4.32-14.34,0-.1.2,0,.16.07-1.8,4.65-2.64,9.6-4.25,14.32A.12.12,0,0,1,473.42,223.79Z" style="fill:#263238"></path><path d="M481.63,226.75a13.3,13.3,0,0,1,1.14-3.26c.48-1.12,1-2.24,1.51-3.34,1-2.22,2.13-4.42,3.29-6.58.05-.09.21,0,.16.06-1,2.22-2,4.44-3,6.7q-.71,1.69-1.38,3.39a15.45,15.45,0,0,1-1.43,3.15A.17.17,0,0,1,481.63,226.75Z" style="fill:#263238"></path><path d="M491.45,229.62a9.15,9.15,0,0,1,1.19-2.88c.5-1,1-2,1.47-3,1-2,1.94-4,2.83-6.07.05-.1.21,0,.17.06-.91,2.09-1.78,4.18-2.7,6.25-.45,1-.91,2-1.37,3.05a8.75,8.75,0,0,1-1.49,2.65S491.45,229.67,491.45,229.62Z" style="fill:#263238"></path><path d="M518.42,200.83,486,181.45s13.75-19.43,19.24-23.89,14-3.95,16,0C523.57,162.44,525.47,176.71,518.42,200.83Z" style="fill:#FFC727"></path><path d="M505.23,157.56a171.59,171.59,0,0,0-14.77,17.64c-1.48,2.09-3,4.17-4.32,6.34l-.06-.25c.47.36.95.69,1.41,1.06-.6-.25-1.17-.55-1.76-.82a92.2,92.2,0,0,1,19.5-24Z" style="fill:#263238"></path><path d="M492.94,175.3c3.36,1.62,6.65,3.42,9.92,5.23s6.57,3.61,9.81,5.51c1.83,1.07,3.66,2.13,5.46,3.26,0,0,0,.12,0,.1-3.36-1.61-6.65-3.4-9.93-5.19s-6.57-3.61-9.83-5.46c-1.84-1.05-3.67-2.14-5.46-3.27C492.78,175.42,492.84,175.26,492.94,175.3Z" style="fill:#263238"></path><polygon points="486.41 182.51 481.94 188.62 511.08 206.37 514.85 199.87 486.41 182.51" style="fill:#a6a6a6"></polygon><path d="M452.27,112.87c-5.68,8-19.33,37.27-19.8,45.23-.51,8.56,7.32,38.12,11.5,45.64,2.06,3.69,30.89-10.64,28.68-14.59-1.48-2.66-13.45-30.86-14-34.2s4.38-20.79,7.33-37C468.79,102.77,462,99.14,452.27,112.87Z" style="fill:#d3766a"></path><path d="M487.32,224.65a4.72,4.72,0,0,1-5.33.88,7.05,7.05,0,0,1-2.51,4.07c-2.34,1.69-6-1.24-6-1.24a8.68,8.68,0,0,1-3.33,3.86c-2.4,1.4-6.54-1-6.54-1a7.65,7.65,0,0,1-5.06,1.56c-4.86-.48-8.17-7.15-10.32-11.36s-4.29-18.19-5-20.82l26.95-14S485.2,202.72,487,208C488.56,212.52,489.86,222,487.32,224.65Z" style="fill:#d3766a"></path><path d="M482.07,225.41c-.49-5.15-2.47-9.88-4.19-14.71a.09.09,0,0,0-.17.06c1.77,4.78,2.55,9.86,4.12,14.7A.12.12,0,0,0,482.07,225.41Z" style="fill:#263238"></path><path d="M473.64,228.31a13.9,13.9,0,0,0-1.12-3.35c-.48-1.15-1-2.3-1.49-3.44-1-2.28-2.11-4.54-3.26-6.77,0-.1-.21,0-.17.06,1,2.28,2,4.57,2.94,6.89.46,1.16.92,2.32,1.36,3.49a16.64,16.64,0,0,0,1.41,3.24A.18.18,0,0,0,473.64,228.31Z" style="fill:#263238"></path><path d="M463.55,231.09a9.3,9.3,0,0,0-1.17-3c-.49-1-1-2.07-1.45-3.1-1-2.07-1.92-4.14-2.81-6.25,0-.1-.21,0-.16.07.89,2.14,1.75,4.29,2.66,6.42.44,1,.89,2.1,1.35,3.14a8.81,8.81,0,0,0,1.48,2.73S463.55,231.14,463.55,231.09Z" style="fill:#263238"></path><path d="M470.19,186.55a167.18,167.18,0,0,1,12.52,14.08c1.86,2.52,4,5.05,4.94,8.11,1.57,5.25,4,20.08-5.7,16.88l.13-.07c-.53,1.8-1.43,4.12-3.5,4.47,2.07-.43,2.87-2.8,3.34-4.62l.11,0a5.47,5.47,0,0,0,4.41-.29c3.14-2.6,1.92-9.57,1.29-13.2-1.05-6.32-5.67-10.93-9.44-15.83-2.64-3.24-5.36-6.41-8.1-9.58Z" style="fill:#263238"></path><polygon points="440.07 196.11 442.78 203.17 473.49 188.29 470.07 181.6 440.07 196.11" style="fill:#a6a6a6"></polygon><path d="M484.93,184.74a5.16,5.16,0,0,1-1.45-1.89.45.45,0,0,1,.23-.56.44.44,0,0,1,.56.24,4.54,4.54,0,0,0,.77,1.15l.09.09,0,0,.14.14.14.11a.43.43,0,1,1-.52.68Z" style="fill:#c7c7c7"></path><path d="M482.23,181.6a5.15,5.15,0,0,1-2-1.23.43.43,0,0,1,0-.6.44.44,0,0,1,.6,0,4.1,4.1,0,0,0,1.13.79l.12.06s.17.07.06,0l.17.07.17.06a.42.42,0,1,1-.23.81Z" style="fill:#c7c7c7"></path><path d="M478.75,179.54a5.21,5.21,0,0,1-2.39.07.42.42,0,0,1,.2-.82,4.61,4.61,0,0,0,1.39,0l.13,0s.18,0,.06,0l.19,0,.17,0a.42.42,0,0,1,.25.81Z" style="fill:#c7c7c7"></path><path d="M474.82,180a5.13,5.13,0,0,1-1.79,1.58.43.43,0,0,1-.57-.19.44.44,0,0,1,.2-.57,4.65,4.65,0,0,0,1.09-.85l.09-.1s.12-.14,0,0l.12-.15.11-.14a.43.43,0,0,1,.59-.13.44.44,0,0,1,.12.59Z" style="fill:#c7c7c7"></path><path d="M472.06,183.13a5.23,5.23,0,0,1-1,2.17.43.43,0,1,1-.65-.55,4.32,4.32,0,0,0,.65-1.22s0-.08.05-.13.05-.17,0-.05a1.21,1.21,0,0,0,.05-.18,1.16,1.16,0,0,0,0-.18.43.43,0,0,1,.49-.35.42.42,0,0,1,.35.49Z" style="fill:#c7c7c7"></path><path d="M473.25,183.2l.24-.31a1.42,1.42,0,0,0-.27-2l-.09-.07a1.4,1.4,0,0,0-2,.27l-.24.3a1.41,1.41,0,0,0,.26,2l.09.07A1.41,1.41,0,0,0,473.25,183.2Zm-.42-.42a.83.83,0,0,1-1.18.15l-.06,0a.83.83,0,0,1-.15-1.18l.14-.18a.84.84,0,0,1,1.18-.16l.05,0a.84.84,0,0,1,.16,1.18Z" style="fill:#a6a6a6"></path><path d="M473,182.93l.18-.24a1.1,1.1,0,0,0-.2-1.54l-.07-.05a1.1,1.1,0,0,0-1.54.2l-.19.24a1.1,1.1,0,0,0,.21,1.54l.07,0A1.1,1.1,0,0,0,473,182.93Zm-.14-.15a.83.83,0,0,1-1.18.15l-.06,0a.83.83,0,0,1-.15-1.18l.14-.18a.84.84,0,0,1,1.18-.16l.05,0a.84.84,0,0,1,.16,1.18Z" style="fill:#c7c7c7;opacity:0.4"></path><path d="M475.59,180.85l.36-.13a1.39,1.39,0,0,0,.85-1.8l0-.11A1.42,1.42,0,0,0,475,178l-.36.13a1.39,1.39,0,0,0-.85,1.8l0,.11A1.41,1.41,0,0,0,475.59,180.85Zm-.13-.58a.84.84,0,0,1-1.08-.51l0-.06a.84.84,0,0,1,.51-1.08l.22-.08a.85.85,0,0,1,1.08.51l0,.07a.83.83,0,0,1-.51,1.07Z" style="fill:#a6a6a6"></path><path d="M475.5,180.48l.28-.11a1.1,1.1,0,0,0,.67-1.4l0-.08a1.11,1.11,0,0,0-1.41-.67l-.28.1a1.11,1.11,0,0,0-.67,1.41l0,.08A1.12,1.12,0,0,0,475.5,180.48Zm0-.21a.84.84,0,0,1-1.08-.51l0-.06a.84.84,0,0,1,.51-1.08l.22-.08a.85.85,0,0,1,1.08.51l0,.07a.83.83,0,0,1-.51,1.07Z" style="fill:#c7c7c7;opacity:0.4"></path><path d="M479,180.88l.37.11a1.41,1.41,0,0,0,1.76-.93l0-.11a1.41,1.41,0,0,0-.93-1.76l-.37-.12a1.43,1.43,0,0,0-1.77.94l0,.11A1.41,1.41,0,0,0,479,180.88Zm.24-.54a.85.85,0,0,1-.56-1.05l0-.07a.86.86,0,0,1,1.06-.56l.22.07a.85.85,0,0,1,.56,1.05l0,.07a.86.86,0,0,1-1.06.56Z" style="fill:#a6a6a6"></path><path d="M479.13,180.52l.29.09a1.1,1.1,0,0,0,1.37-.73l0-.08a1.1,1.1,0,0,0-.73-1.37l-.29-.09a1.09,1.09,0,0,0-1.37.73l0,.08A1.09,1.09,0,0,0,479.13,180.52Zm.09-.18a.85.85,0,0,1-.56-1.05l0-.07a.86.86,0,0,1,1.06-.56l.22.07a.85.85,0,0,1,.56,1.05l0,.07a.86.86,0,0,1-1.06.56Z" style="fill:#c7c7c7;opacity:0.4"></path><path d="M481.79,182.66l.24.31a1.42,1.42,0,0,0,2,.25l.09-.08a1.41,1.41,0,0,0,.25-2l-.24-.31a1.42,1.42,0,0,0-2-.25l-.09.07A1.41,1.41,0,0,0,481.79,182.66Zm.52-.3a.84.84,0,0,1,.14-1.18l.06,0a.84.84,0,0,1,1.18.14l.14.19a.84.84,0,0,1-.15,1.18l-.05,0a.83.83,0,0,1-1.18-.15Z" style="fill:#a6a6a6"></path><path d="M482.12,182.46l.19.24a1.1,1.1,0,0,0,1.54.19l.07,0a1.1,1.1,0,0,0,.19-1.55l-.18-.24a1.11,1.11,0,0,0-1.54-.19l-.07.06A1.1,1.1,0,0,0,482.12,182.46Zm.19-.1a.84.84,0,0,1,.14-1.18l.06,0a.84.84,0,0,1,1.18.14l.14.19a.84.84,0,0,1-.15,1.18l-.05,0a.83.83,0,0,1-1.18-.15Z" style="fill:#c7c7c7;opacity:0.4"></path><path d="M470.2,185a5.48,5.48,0,0,1,1.07-2.35.46.46,0,1,1,.7.59,4.77,4.77,0,0,0-.7,1.32.58.58,0,0,0,0,.14s-.06.18,0,0l-.06.2c0,.06,0,.13,0,.19a.46.46,0,1,1-.9-.14Z" style="fill:#a6a6a6"></path><path d="M472.07,183a.44.44,0,0,0-.15-.4.47.47,0,0,0-.65.06A5.48,5.48,0,0,0,470.2,185a.42.42,0,0,0,.11.37v0a5.64,5.64,0,0,1,1.08-2.34A.46.46,0,0,1,472,183Z" style="fill:#c7c7c7;opacity:0.4"></path><path d="M472.35,181a5.57,5.57,0,0,1,1.93-1.71.46.46,0,0,1,.41.83,4.53,4.53,0,0,0-1.18.92l-.1.1s-.13.15,0,.05a1,1,0,0,0-.13.16l-.12.15a.47.47,0,0,1-.63.14.48.48,0,0,1-.14-.64Z" style="fill:#a6a6a6"></path><path d="M474.88,179.89a.47.47,0,0,0,0-.43.48.48,0,0,0-.62-.21,5.66,5.66,0,0,0-1.93,1.71.47.47,0,0,0-.05.4l0,0a5.47,5.47,0,0,1,1.93-1.71.45.45,0,0,1,.61.21A.08.08,0,0,1,474.88,179.89Z" style="fill:#c7c7c7;opacity:0.4"></path><path d="M476.24,178.7a5.62,5.62,0,0,1,2.58-.08.46.46,0,1,1-.22.89,4.71,4.71,0,0,0-1.5,0l-.14,0s-.19,0-.06,0l-.2,0-.19.05a.48.48,0,0,1-.58-.3.47.47,0,0,1,.31-.58Z" style="fill:#a6a6a6"></path><path d="M478.87,179.49a.45.45,0,0,0,.29-.31.48.48,0,0,0-.34-.56,5.62,5.62,0,0,0-2.58.08.46.46,0,0,0-.29.27h0a5.49,5.49,0,0,1,2.58-.08.47.47,0,0,1,.34.55S478.88,179.48,478.87,179.49Z" style="fill:#c7c7c7;opacity:0.4"></path><path d="M480.58,179.53a5.77,5.77,0,0,1,2.21,1.34.48.48,0,0,1,0,.65.46.46,0,0,1-.65,0,4.82,4.82,0,0,0-1.23-.85l-.13-.06-.06,0-.19-.08-.18-.06a.47.47,0,0,1-.32-.57.48.48,0,0,1,.57-.32Z" style="fill:#a6a6a6"></path><path d="M482.36,181.63a.45.45,0,0,0,.41-.11.48.48,0,0,0,0-.65,5.77,5.77,0,0,0-2.21-1.34.45.45,0,0,0-.39.08h0a5.53,5.53,0,0,1,2.21,1.34.48.48,0,0,1,0,.65Z" style="fill:#c7c7c7;opacity:0.4"></path><path d="M484.15,182.21a5.55,5.55,0,0,1,1.57,2,.46.46,0,1,1-.85.34,4.85,4.85,0,0,0-.84-1.24.94.94,0,0,0-.1-.1s-.14-.14,0,0l-.15-.14-.15-.13a.46.46,0,0,1-.09-.64.47.47,0,0,1,.65-.09Z" style="fill:#a6a6a6"></path><path d="M485,184.81a.45.45,0,0,0,.42.05.47.47,0,0,0,.26-.6,5.55,5.55,0,0,0-1.57-2,.43.43,0,0,0-.39-.07h0a5.58,5.58,0,0,1,1.58,2,.46.46,0,0,1-.26.59Z" style="fill:#c7c7c7;opacity:0.4"></path><path d="M470.67,179.78,438,195.42s-8.59-27.2-7-38,19-44,25.14-50.88c9.91-11,12.42-1.82,10.2,10.47-1,5.64-7.68,35.48-6.55,37.84C460.86,157,470.67,179.78,470.67,179.78Z" style="fill:#FFC727"></path><path d="M465.29,121.63c-1.51,10-4.32,22.85-5,32.81a1.75,1.75,0,0,0,.15.78c1.3,3.54,2.88,7,4.36,10.5,2,4.67,4,9.34,5.9,14l0,.05h-.05l-1.68.66,1.64-.75,0,.07c-4-8.16-8.08-16.29-11.27-24.79.09-6.24,1.62-12.39,2.7-18.5q1.47-7.47,3.23-14.88Z" style="fill:#263238"></path><path d="M465.81,123.08a8.79,8.79,0,0,1-1.61,4.74,21.21,21.21,0,0,1,1.61-4.74Z" style="fill:#263238"></path><path d="M440.07,194.34c-.7.43-1.4.85-2.11,1.26l-.06-.14a115.08,115.08,0,0,1-6.74-27.59,60.21,60.21,0,0,1-.27-9.49c.82,12.6,4,24.85,7.25,37l-.18-.07,2.11-1Z" style="fill:#263238"></path><path d="M437.5,185.82c3.26-1.8,6.63-3.44,10-5.06s6.74-3.26,10.17-4.8c1.93-.87,3.86-1.75,5.82-2.56.05,0,.11.06.06.09-3.26,1.8-6.63,3.45-10,5.09s-6.75,3.26-10.15,4.84c-1.93.9-3.86,1.76-5.83,2.56C437.5,186,437.4,185.88,437.5,185.82Z" style="fill:#263238"></path><path d="M477,111.91c-4.24,1.39-10.83-5.29-12.87-10.89-.14-.38,2.52-14.35,3-17.18.09-.59,17.14,7,17.14,7a45.54,45.54,0,0,0-3.38,10.63,6,6,0,0,0-.05,1.18c0,.06,0,.12,0,.2C480.77,105.15,479.14,111.2,477,111.91Z" style="fill:#d3766a"></path><path d="M480.74,102.88a11.21,11.21,0,0,1-1.84-.18C469.59,101.07,468,89.14,467.72,84c3.19,1,16.46,6.91,16.46,6.91a45.51,45.51,0,0,0-3.38,10.64,5.85,5.85,0,0,0-.06,1.17A1.33,1.33,0,0,1,480.74,102.88Z" style="fill:#263238"></path><path d="M463.44,63.91c-2.19,6.3.49,24.85,4.87,29.13,6.35,6.2,17.1,7.18,22.45-.54C496,85,492,60.91,487.11,57,479.86,51.21,466.67,54.6,463.44,63.91Z" style="fill:#d3766a"></path><path d="M480.51,76s-.09.07-.08.12c.21,1.25.25,2.71-.83,3.28a0,0,0,0,0,0,.07C481,79.06,480.91,77.11,480.51,76Z" style="fill:#263238"></path><path d="M479.21,74.82c-2,.13-1.63,4.18.26,4.06S480.92,74.71,479.21,74.82Z" style="fill:#263238"></path><path d="M487.91,75.11s.11,0,.11.1c.09,1.26.4,2.69,1.57,3,0,0,0,.07,0,.07C488.19,78.21,487.79,76.31,487.91,75.11Z" style="fill:#263238"></path><path d="M488.91,73.68c2-.35,2.56,3.68.7,4S487.22,74,488.91,73.68Z" style="fill:#263238"></path><path d="M477.82,72.51c.56-.08,1.07-.24,1.63-.37a2.71,2.71,0,0,0,1.59-.69.86.86,0,0,0,0-1,2.17,2.17,0,0,0-2.12-.48,3.16,3.16,0,0,0-2,1.14A.92.92,0,0,0,477.82,72.51Z" style="fill:#263238"></path><path d="M490.47,71.3a15.51,15.51,0,0,1-1.67,0,2.73,2.73,0,0,1-1.71-.31.85.85,0,0,1-.23-1,2.14,2.14,0,0,1,1.95-.95,3.1,3.1,0,0,1,2.16.65A.92.92,0,0,1,490.47,71.3Z" style="fill:#263238"></path><path d="M480.32,87c.32.27.65.66,1.11.66a3.33,3.33,0,0,0,1.33-.41s.09,0,.06.06a1.7,1.7,0,0,1-1.54.8,1.36,1.36,0,0,1-1.08-1C480.18,87,480.27,87,480.32,87Z" style="fill:#263238"></path><path d="M481.25,85.44a45.8,45.8,0,0,0,5.54-.34l-.42-2.93c.37.15,2.25.85,2.18.34a65.24,65.24,0,0,0-2.53-13,.12.12,0,0,0-.23,0c.35,4.08,1.41,8.07,1.82,12.16a7.8,7.8,0,0,0-2.08-.49,25.86,25.86,0,0,0,.37,3.17,41.58,41.58,0,0,0-4.68.73C481.06,85.23,481.13,85.44,481.25,85.44Z" style="fill:#263238"></path><path d="M463.86,81.74c1,5,2.57,9.46,4.45,11.3,6.35,6.2,17.1,7.18,22.45-.54,1.79-2.58,2.5-7.13,2.45-12.16-1.91,4.34-5.52,2-5.52,2l-2-.32c-2.37,3.61-9.78,2.1-13.1-.19-2.42-1.66-4.05-7.48-4.05-7.48Z" style="fill:#263238;opacity:0.30000000000000004"></path><path d="M463.17,79.33c2.74.73,4.86-2.53,5.54-4.24s-.66-11.14.64-13.7,4.11-4,6.36-3.38,5.18,3.56,6.84,3.39,2-3.76,3.16-3.77c2.54,0,5.28,6.19,5.77,9,0,0-.06-11.91-12.22-12.86-11.86-.93-15.58,7.25-16.58,10.83C460.78,71.44,463.17,79.33,463.17,79.33Z" style="fill:#263238"></path><path d="M468.2,78.4s-3.94-6.11-6.7-4.73.06,10.14,3.19,11.44a3.23,3.23,0,0,0,4.39-1.58Z" style="fill:#d3766a"></path><path d="M462.37,76.16a0,0,0,0,0,0,.09c2.19,1,3.29,3.09,4,5.26a1.78,1.78,0,0,0-2.65-.59c-.06,0,0,.13.06.12a2,2,0,0,1,2.16.78,9.77,9.77,0,0,1,1,1.8c.09.2.46.11.39-.12l0,0C467.46,80.61,465.41,76.56,462.37,76.16Z" style="fill:#263238"></path><path d="M464.09,101s4.66,8,12.22,8.21c2.77.09,4.3-4.9,4.3-4.9s1.41,14.63-.44,18.32A33.87,33.87,0,0,1,464.09,101Z" style="fill:#fff"></path><path d="M464.09,101c2.52,9,8.41,17.11,16.64,21.58l-.79.34c1.5-6.08,1.33-12.42.67-18.61a42.8,42.8,0,0,1,.23,19.56A31.68,31.68,0,0,1,464.09,101Z" style="fill:#FFC727"></path><path d="M464.09,101c2.52,9,8.41,17.11,16.64,21.58l-.79.34c1.5-6.08,1.33-12.42.67-18.61a42.8,42.8,0,0,1,.23,19.56A31.68,31.68,0,0,1,464.09,101Z" style="fill:#000102;opacity:0.2"></path></g><g id="freepik--Table--inject-412"><rect x="499.12" y="258.28" width="96.36" height="222.87" style="fill:#FFC727"></rect><rect x="499.12" y="258.28" width="96.36" height="222.87" style="opacity:0.5"></rect><rect x="184.52" y="258.28" width="96.36" height="222.87" style="fill:#FFC727"></rect><rect x="184.52" y="258.28" width="96.36" height="222.87" style="opacity:0.5"></rect><rect x="280.88" y="258.28" width="314.59" height="39.95" style="fill:#FFC727"></rect><rect x="280.88" y="258.28" width="314.59" height="39.95" style="opacity:0.4"></rect><path d="M281.5,283.25c100.58-.46,213.4-.47,314,0-100.58.46-213.4.46-314,0Z" style="opacity:0.1"></path><rect x="280.89" y="258.28" width="12.96" height="222.87" style="fill:#FFC727"></rect><rect x="280.89" y="258.28" width="12.96" height="222.87" style="opacity:0.4"></rect><rect x="582.51" y="258.28" width="12.96" height="222.87" style="fill:#FFC727"></rect><rect x="582.51" y="258.28" width="12.96" height="222.87" style="opacity:0.4"></rect></g><g id="freepik--character-1--inject-412"><path d="M240.07,483.21c-2.79.87-82-.83-85-2.8-1.13-.73-1.56-12.3-1.67-26.27q0-4.53,0-9.3c0-3.74,2.6-40.23,2.6-40.23l50.81,1-1.88,40.23-.44,9.29s30,14.22,33.08,16.74S242.85,482.35,240.07,483.21Z" style="fill:#d3766a"></path><path d="M240.08,483.21c-2.8.87-82-.83-85-2.79-1.11-.74-1.55-12.31-1.66-26.28,0-3,0-6.12,0-9.3,0-.67.09-2.43.23-4.86H205.2l-.27,5.81-.45,9.3s30.05,14.22,33.08,16.74S242.85,482.35,240.08,483.21Z" style="fill:#ebebeb"></path><path d="M240.31,483.33c-1.82.57-35.56.06-60.12-.9-5.69-.23-10.88-.48-15.07-.74-5.78-.38-9.65-.76-10.28-1.17-1.37-.93-1.73-17.88-1.71-35.77l51.83,1-.44,9.34s30.2,14.3,33.26,16.83S243.1,482.45,240.31,483.33Z" style="fill:#37474f"></path><path d="M240.31,483.33c-1.82.57-35.56.06-60.12-.9-5.69-.23-10.88-.48-15.07-.74-5.78-.38-9.65-.76-10.28-1.17-1.37-.93-1.73-17.88-1.71-35.77l51.83,1-.44,9.34s30.2,14.3,33.26,16.83S243.1,482.45,240.31,483.33Z" style="fill:#263238"></path><path d="M239.23,480.12c-13.34-.61-67.23-1.83-80.47-1.42-.11,0-.11.08,0,.09,13.21.89,67.11,1.67,80.47,1.55C239.51,480.34,239.52,480.14,239.23,480.12Z" style="fill:#37474f"></path><path d="M206.47,452.13c-5.24-1.1-11.68-.43-15.77,3.23-.16.14,0,.37.21.32a73.63,73.63,0,0,1,15.52-2.89A.33.33,0,0,0,206.47,452.13Z" style="fill:#37474f"></path><path d="M210.21,454.49c-5.23-1.09-11.68-.42-15.77,3.24-.16.14,0,.36.22.31a73.61,73.61,0,0,1,15.52-2.88A.34.34,0,0,0,210.21,454.49Z" style="fill:#37474f"></path><path d="M214,456.86c-5.24-1.09-11.68-.42-15.78,3.23-.16.15,0,.37.22.32a74.27,74.27,0,0,1,15.52-2.89A.33.33,0,0,0,214,456.86Z" style="fill:#37474f"></path><path d="M217.7,459.23c-5.23-1.1-11.68-.43-15.77,3.23-.16.14,0,.37.21.32a73.72,73.72,0,0,1,15.53-2.89A.33.33,0,0,0,217.7,459.23Z" style="fill:#37474f"></path><path d="M216.43,440.18c-2-2.89-5.87-1.69-8.11.11A28.13,28.13,0,0,0,200,452.15a.14.14,0,0,0,.12.19c0,.4.36.83.81.68,4.38-1.52,9.24-2.59,13-5.4C216.12,446,218.33,442.91,216.43,440.18Zm-9.36,9.19c-2.14.79-4.3,1.48-6.4,2.36,1.64-2.31,3.16-4.68,5-6.83a30.5,30.5,0,0,1,2.85-2.95c1.59-1.38,7.85-4.28,6.8,1.47C214.77,446.58,209.61,448.42,207.07,449.37Z" style="fill:#37474f"></path><path d="M186.65,450.49c4.29,1.94,9.27,2,13.87,2.5.47.06.72-.44.64-.83.08,0,.14-.12.08-.21a28,28,0,0,0-10.69-9.81c-2.57-1.28-6.61-1.62-8,1.63C181.33,446.84,184.14,449.36,186.65,450.49Zm-2.29-3.79c-2.26-5.39,4.47-3.9,6.32-2.88a29,29,0,0,1,3.42,2.27,82.42,82.42,0,0,1,6.37,5.59c-2.24-.41-4.5-.62-6.75-.94C191,450.35,185.6,449.67,184.36,446.7Z" style="fill:#37474f"></path><path d="M153.15,451.53c.07,15.18.5,28.18,1.7,29,.62.41,4.49.8,10.27,1.17,4.19.27,9.39.52,15.07.74,4.56.18,9.45.35,14.39.49C180.81,472.39,165.32,460.71,153.15,451.53Z" style="opacity:0.1"></path><path d="M207.71,449.63H151.53s11.31-120.68,10.87-123c-.56-2.94-3.88-16.22-8.3-33.57-1.38-5.43-2.87-11.26-4.42-17.3-4.19-16.32-8.81-34.17-12.83-49.69-6-23.26-10.76-41.33-10.76-41.33h47.62s5.55,17.59,12.55,40.48c11.39,37.2,26.62,88.4,28.13,100.85C216.82,346.2,207.71,449.63,207.71,449.63Z" style="fill:#37474f"></path><path d="M205.23,440.05c-8.59-.18-6.12-.25-14.7-.33-4.2-.05-31.8-.29-35.73.36a.1.1,0,0,0,0,.18c3.93.65,31.53.41,35.73.37,8.58-.08,6.11-.15,14.7-.33A.13.13,0,0,0,205.23,440.05Z" style="fill:#263238"></path><path d="M173,318.64c-1.84-8.12-4.59-16.08-7-24.06q-7.3-24.3-14.7-48.57-3.69-12.13-7.41-24.27c-1.26-4.08-2.51-8.16-3.79-12.24s-2.67-7.94-3.8-12c-.46-1.64-.71-.74-.12,1.34,1.18,4.19,2.35,8.39,3.57,12.57q3.63,12.42,7.31,24.82,7.31,24.69,14.74,49.35,3.71,12.36,7.44,24.72a102.85,102.85,0,0,1,3,12,55.28,55.28,0,0,1,.49,12.79c-.54,8.6-7.88,75.2-9.42,92.31-.2,2.17-.39,4.33-.55,6.5-.06.73.45.82.53.12,1.85-16.91,8.6-74.12,10.18-91,.4-4.23.85-8.47.85-12.72A52.83,52.83,0,0,0,173,318.64Z" style="fill:#263238"></path><path d="M168.31,184.77C165,210.34,158.7,258.3,154.1,293.09c-10.74-42.16-28-108.32-28-108.32Z" style="fill:#000102;opacity:0.1"></path><path d="M180.42,483.21c-2.79.87-82-.83-85-2.8-1.13-.73-1.56-12.3-1.68-26.27,0-3,0-6.12,0-9.3,0-3.74,2.61-40.23,2.61-40.23l50.81,1-1.88,40.23-.44,9.29s30,14.22,33.07,16.74S183.2,482.35,180.42,483.21Z" style="fill:#d3766a"></path><path d="M180.42,483.21c-2.79.87-82-.83-85-2.79-1.12-.74-1.55-12.31-1.67-26.28,0-3,0-6.12,0-9.3,0-.67.1-2.43.23-4.86h51.59l-.28,5.81-.44,9.3s30,14.22,33.07,16.74S183.2,482.35,180.42,483.21Z" style="fill:#ebebeb"></path><path d="M180.66,483.33c-1.82.57-35.57.06-60.13-.9-5.68-.23-10.88-.48-15.07-.74-5.77-.38-9.65-.76-10.27-1.17-1.38-.93-1.73-17.88-1.71-35.77l51.82,1-.44,9.34s30.21,14.3,33.27,16.83S183.45,482.45,180.66,483.33Z" style="fill:#37474f"></path><path d="M180.66,483.33c-1.82.57-35.57.06-60.13-.9-5.68-.23-10.88-.48-15.07-.74-5.77-.38-9.65-.76-10.27-1.17-1.38-.93-1.73-17.88-1.71-35.77l51.82,1-.44,9.34s30.21,14.3,33.27,16.83S183.45,482.45,180.66,483.33Z" style="fill:#263238"></path><path d="M179.58,480.12c-13.35-.61-67.23-1.83-80.47-1.42-.11,0-.11.08,0,.09,13.22.89,67.12,1.67,80.48,1.55C179.86,480.34,179.86,480.14,179.58,480.12Z" style="fill:#37474f"></path><path d="M146.81,452.13c-5.23-1.1-11.67-.43-15.77,3.23-.16.14.05.37.22.32a73.63,73.63,0,0,1,15.52-2.89A.33.33,0,0,0,146.81,452.13Z" style="fill:#37474f"></path><path d="M150.56,454.49c-5.23-1.09-11.68-.42-15.77,3.24-.16.14,0,.36.21.31a73.73,73.73,0,0,1,15.52-2.88A.34.34,0,0,0,150.56,454.49Z" style="fill:#37474f"></path><path d="M154.3,456.86c-5.23-1.09-11.68-.42-15.77,3.23-.16.15,0,.37.22.32a74.27,74.27,0,0,1,15.52-2.89A.33.33,0,0,0,154.3,456.86Z" style="fill:#37474f"></path><path d="M158.05,459.23c-5.24-1.1-11.68-.43-15.78,3.23-.16.14,0,.37.22.32A73.63,73.63,0,0,1,158,459.89.33.33,0,0,0,158.05,459.23Z" style="fill:#37474f"></path><path d="M156.78,440.18c-2-2.89-5.88-1.69-8.11.11a28,28,0,0,0-8.35,11.86.13.13,0,0,0,.12.19c0,.4.36.83.81.68,4.37-1.52,9.24-2.59,13-5.4C156.47,446,158.68,442.91,156.78,440.18Zm-9.37,9.19c-2.13.79-4.29,1.48-6.39,2.36a83.29,83.29,0,0,1,5-6.83A30.5,30.5,0,0,1,148.9,442c1.59-1.38,7.84-4.28,6.79,1.47C155.11,446.58,150,448.42,147.41,449.37Z" style="fill:#37474f"></path><path d="M127,450.49c4.3,1.94,9.28,2,13.87,2.5a.65.65,0,0,0,.65-.83c.08,0,.14-.12.08-.21a28.05,28.05,0,0,0-10.7-9.81c-2.56-1.28-6.6-1.62-7.94,1.63C121.68,446.84,124.49,449.36,127,450.49Zm-2.29-3.79c-2.25-5.39,4.48-3.9,6.33-2.88a28.85,28.85,0,0,1,3.41,2.27,80.59,80.59,0,0,1,6.37,5.59c-2.24-.41-4.49-.62-6.75-.94C131.38,450.35,125.94,449.67,124.7,446.7Z" style="fill:#37474f"></path><path d="M172.17,184.77s-1.1,22.78-6.31,40.83c-.42,1.49-.87,3-1.36,4.36A84.71,84.71,0,0,0,150.77,237s-.55,18.33-1.09,38.77c-.61,22.86-1.25,48.35-1.11,53.76.47,20.23-1.48,120.91-1.48,120.91l-56.18.22S100,337,99.94,329.61c-.1-11.91,2.72-64.56,4.91-103a303.85,303.85,0,0,1,5.25-41.89Z" style="fill:#37474f"></path><path d="M145.17,440.46c-8.59-.14-6.12-.22-14.7-.26-4.2,0-31.8-.15-35.73.52-.08,0-.08.16,0,.17,3.93.63,31.53.28,35.73.22,8.58-.12,6.12-.18,14.7-.4A.13.13,0,0,0,145.17,440.46Z" style="fill:#263238"></path><path d="M112,192.91c-1,31.34-2.13,62.68-3.53,94s-7.73,133.41-9.62,150.89c0,.11.17.16.18,0,4.09-31.09,5.32-66.56,7.33-97.85s3.37-62.61,4.44-93.94c.6-17.72,1.07-35.45,1.6-53.17C112.4,192.63,112,192.66,112,192.91Z" style="fill:#263238"></path><path d="M165.17,230A95.47,95.47,0,0,0,150,237a.17.17,0,0,0,.14.31c5.11-2.2,10.32-4.3,15.31-6.77A.34.34,0,0,0,165.17,230Z" style="fill:#263238"></path><path d="M166.94,197.55c0-.16-.32-.2-.32,0a142.56,142.56,0,0,1-.93,15.73c-.25,2.43-2.43,15.84-7,14.89-.77-.16-1.15-.85-1.27-1.92a15.41,15.41,0,0,1,.63-4.11c.52-2.81.94-5.62,1.21-8.46a70.68,70.68,0,0,0-.1-15.86.15.15,0,0,0-.3,0,135,135,0,0,1-1.49,21.9c-.59,3.49-2.52,8.74,1.43,9.26s6.68-8.27,7.18-10.68A73.7,73.7,0,0,0,166.94,197.55Z" style="fill:#263238"></path><path d="M158.81,228.46a24.94,24.94,0,0,0-1,3,6.82,6.82,0,0,0-.43,2.48c0,.16.23.17.32.07a8.9,8.9,0,0,0,1.06-2.42c.35-.93.71-1.86,1-2.8A.51.51,0,0,0,158.81,228.46Z" style="fill:#263238"></path><path d="M164.78,116.06c26.67,21.89,56.89,62.12,50.61,77.28-4.24,10.23-33.88-19.17-34-20.88-.07-1.28-16-31.76-25.63-50.3S159.2,111.48,164.78,116.06Z" style="fill:#eb9481"></path><path d="M164.78,116.06c26.67,21.89,56.89,62.12,50.61,77.28-4.24,10.23-33.88-19.17-34-20.88-.07-1.28-16-31.76-25.63-50.3S159.2,111.48,164.78,116.06Z" style="fill:#ebebeb"></path><path d="M155.78,122.16c9.63,18.54,25.56,49,25.64,50.31.05.92,8.61,9.8,17.2,16.27L153,110.81C151.74,111.83,152.1,115.05,155.78,122.16Z" style="fill:#000102;opacity:0.1"></path><path d="M181.22,203.57h-75.1c-.2-.24-2.63-5.66-2.28-8.07,1.26-8.58,21.76-72.49,31.29-83.3,5.41-6.15,17.8-4,20.79,0,12.81,17.38,28.2,71.29,28.37,83.73C184.32,198.57,181.4,203.38,181.22,203.57Z" style="fill:#ebebeb"></path><polygon points="148.03 129.38 151.93 122.78 156.15 127.97 154.76 132.8 150.27 133.11 148.03 129.38" style="fill:#263238"></polygon><polygon points="150.27 133.11 147.97 182.65 156.65 197.38 162.46 182.09 154.76 132.8 150.27 133.11" style="fill:#263238"></polygon><path d="M151.93,122.78c3.54,20.82,9.33,62,2.68,81.36,2-6.53,2.26-13.45,2.38-20.23s-.23-13.63-.73-20.43c-.94-13.61-2.5-27.18-4.33-40.7Z" style="fill:#263238"></path><path d="M135.67,158l-5.48-3.74,1.18-11.69,13.71.62-1.18,11.93Zm-4.95-4,5,3.42,7.69-2.68,1.09-11.1-12.71-.57Z" style="fill:#000102;opacity:0.1"></path><path d="M165.17,158.07l-5.73-2.93-.81-11.91,9.55-.63.8,11.67Zm-5.25-3.25,5.16,2.64,3.39-3.38-.76-11-8.54.57Z" style="fill:#000102;opacity:0.1"></path><polygon points="158.55 142.17 167.66 141.32 167.26 139.45 158.55 140.36 158.55 142.17" style="fill:#FFC727"></polygon><path d="M141.24,136.24a23,23,0,0,1-.47,4c-.33.84-2.69,1.19-2.69,1.19s-2.06-.63-2.26-1.27a25.42,25.42,0,0,1,.31-4.26,3.48,3.48,0,0,0,2.89-1.12A2.39,2.39,0,0,0,141.24,136.24Z" style="fill:#FFC727"></path><rect x="105.4" y="203.57" width="77.42" height="5.51" transform="translate(288.23 412.66) rotate(180)" style="fill:#263238"></rect><path d="M163.14,210.6h-15.5v-8.54h15.5Zm-13.5-2h11.5v-4.54h-11.5Z" style="fill:#ebebeb"></path><path d="M125.49,116.22c-28,20.17-60.67,58.43-55.35,74,3.58,10.47,35-17,35.21-18.71.15-1.28,18-30.69,28.74-48.6S131.35,112,125.49,116.22Z" style="fill:#eb9481"></path><path d="M125.49,116.22c-28,20.17-60.67,58.43-55.35,74,3.58,10.47,35-17,35.21-18.71.15-1.28,18-30.69,28.74-48.6S131.35,112,125.49,116.22Z" style="fill:#ebebeb"></path><path d="M129.58,130.36c-7.48,14-15.59,27.78-24.23,41.11,7.48-14,15.59-27.78,24.23-41.11Z" style="fill:#263238"></path><path d="M129.12,134.07a11.68,11.68,0,0,1-4.48,4.76c1.32-1.42,3.09-3.43,4.48-4.76Z" style="fill:#263238"></path><rect x="71.24" y="162.8" width="145.64" height="8.11" transform="translate(171.29 385.6) rotate(-146.29)" style="fill:#263238"></rect><rect x="159.9" y="204.15" width="27.73" height="8.11" transform="translate(443.4 179.22) rotate(123.71)" style="fill:#263238"></rect><path d="M213.09,196.92c-7.21,2.66-11.76.63-39.67-11.65-3.86-1.7-2.22-30.44,2.29-30.57,7.11-.19,28.19,11,29.59,11.8C217,173.61,218,195.11,213.09,196.92Z" style="fill:#eb9481"></path><path d="M141,172.57c.66,3.54,4.3,2.8,4.3,2.8a6.7,6.7,0,0,0-.89,4.49c.55,2.71,5,3,5,3a8.27,8.27,0,0,0-.18,4.88c.78,2.55,5.26,3.53,5.26,3.53a7.28,7.28,0,0,0,2.54,4.39c3.71,2.82,10.39.34,14.62-1.27,6.29-2.4,14.84-10,17-11.4l-7.5-27.25a19.17,19.17,0,0,0-7.78-1c-7.25.71-17.18,3.59-20.3,5C148.15,162.1,140.34,169.1,141,172.57Z" style="fill:#eb9481"></path><path d="M145.33,174.86c3.69-3.3,8.16-5.34,12.5-7.62a.09.09,0,0,1,.08.15c-4.35,2.22-8.2,5.28-12.45,7.66C145.35,175.12,145.23,175,145.33,174.86Z" style="fill:#263238"></path><path d="M149.41,182.51a12.51,12.51,0,0,1,3-1.62c1.08-.51,2.18-1,3.28-1.46,2.21-.93,4.43-1.82,6.69-2.64.1,0,.18.11.07.16-2.19.93-4.38,1.9-6.53,2.93-1.08.51-2.16,1-3.23,1.56a14.66,14.66,0,0,1-3.09,1.36A.17.17,0,0,1,149.41,182.51Z" style="fill:#263238"></path><path d="M154.62,191.27a8.75,8.75,0,0,1,2.75-1.32l3-1.24c2-.83,4-1.66,6-2.56a.09.09,0,0,1,.08.15c-2,.93-4,1.88-6,2.79-1,.44-2,.89-3,1.32a8.37,8.37,0,0,1-2.81,1A.06.06,0,0,1,154.62,191.27Z" style="fill:#263238"></path><path d="M185.77,156.28l6.77,39.22s18.91,5.51,21.94.9,2-18.8-5.36-27.17C203.16,162.44,185.77,156.28,185.77,156.28Z" style="fill:#ebebeb"></path><polygon points="192.1 157.68 179.92 153.33 186.28 194.67 197.94 197.38 192.1 157.68" style="fill:#ebebeb"></polygon><path d="M192.46,160.13A318.47,318.47,0,0,1,197.73,196a323.46,323.46,0,0,1-5.27-35.84Z" style="fill:#263238"></path><path d="M180.25,155.45c-.19-.77-.35-1.55-.51-2.32,4.31,1.25,8.57,2.68,12.81,4.18,0,.19.19,1.29.22,1.5l-.28-.38c2.26,1.07,4.49,2.18,6.65,3.43a45.52,45.52,0,0,1,6.25,4.11c-2.15-1.25-4.37-2.36-6.6-3.45s-4.63-2.23-7-3.3c0-.15-.19-1.28-.22-1.47l.32.4c-4.05-1.47-8.08-3-12.05-4.69l.19-.15c.07.71.13,1.42.18,2.14Z" style="fill:#263238"></path><path d="M203.28,163c-1.1-.2-2.41-.53-3.5-.8-.38-.1-.77-.19-1.16-.33a6.63,6.63,0,0,1,4.66,1.13Z" style="fill:#263238"></path><path d="M71.47,192.42c6.28,4,18.41,4.44,43-13.65,3.39-2.5-4.51-30.19-8.94-29.32-7,1.36-25.1,16.86-26.28,18C69.31,177,67.06,189.63,71.47,192.42Z" style="fill:#eb9481"></path><path d="M131.19,133.15c2.61,2.48,0,5.12,0,5.12a6.75,6.75,0,0,1,4.25,1.7c2,1.94-.18,5.88-.18,5.88a8.34,8.34,0,0,1,4.19,2.51c1.71,2,.1,6.33.1,6.33a7.26,7.26,0,0,1,2.3,4.52c.35,4.66-5.37,8.9-9,11.58-5.43,4-16.46,7-18.82,8.08L95.22,157.75a19.16,19.16,0,0,1,3.37-7.09,83.92,83.92,0,0,1,15.27-14.29C118.51,133.45,128.63,130.71,131.19,133.15Z" style="fill:#eb9481"></path><path d="M130.75,138c-4.78,1.31-8.92,3.95-13.19,6.35-.1.06,0,.21.08.15,4.23-2.44,8.88-4,13.2-6.28C131,138.18,130.88,138,130.75,138Z" style="fill:#263238"></path><path d="M135,145.61a12.37,12.37,0,0,0-3,1.6c-1,.63-2,1.29-3,2-2,1.34-3.94,2.73-5.85,4.18-.08.06,0,.21.09.14,2-1.33,4-2.64,6-3.89,1-.62,2-1.24,3.07-1.85a15.29,15.29,0,0,0,2.82-1.86A.17.17,0,0,0,135,145.61Z" style="fill:#263238"></path><path d="M139.46,154.75a9.29,9.29,0,0,0-2.6,1.58l-2.68,1.88c-1.8,1.24-3.6,2.48-5.44,3.66a.09.09,0,0,0,.09.15c1.87-1.19,3.76-2.35,5.63-3.56.91-.59,1.82-1.18,2.73-1.79a8.55,8.55,0,0,0,2.34-1.83A.06.06,0,0,0,139.46,154.75Z" style="fill:#263238"></path><path d="M109.85,182.81,87.29,160.54S77.6,167.22,74,173.26s-7,13.66-3.92,18.11S86.67,199,109.85,182.81Z" style="fill:#ebebeb"></path><polygon points="109.5 185.04 118.83 178.76 92.33 153.56 83.96 160.99 109.5 185.04" style="fill:#ebebeb"></polygon><path d="M108.91,184.49A263.64,263.64,0,0,1,85.06,162a262.24,262.24,0,0,1,23.85,22.46Z" style="fill:#263238"></path><path d="M94.21,155.32c-.67-.54-1.32-1.1-2-1.66h.19c-1.34,1.3-2.72,2.56-4.07,3.84l-4.15,3.76v-.55c.48.43,1,.9,1.41,1.34a107.08,107.08,0,0,0-10.23,9.18,57.77,57.77,0,0,1,9.45-9.5l0,.56c-.47-.43-.94-.88-1.4-1.33l.3-.26L87.93,157c1.47-1.22,2.91-2.47,4.41-3.66.63.64,1.26,1.28,1.87,1.94Z" style="fill:#263238"></path><path d="M80,166.4a14.55,14.55,0,0,1-3.15,1.83A4.38,4.38,0,0,1,80,166.4Z" style="fill:#263238"></path><path d="M117.58,177.58c.51.38,1,.79,1.49,1.18l-.16.12a87.51,87.51,0,0,1-9.28,6.36l-.16.09-.13-.11c-.43-.4-.86-.79-1.27-1.21h.16c-1.38.85-1.2.67-.09-.26.52.35,1,.73,1.51,1.1h-.29c1.49-1.15,3-2.21,4.6-3.25s3.16-2,4.79-3l0,.23c-.39-.43-.78-.85-1.15-1.29Z" style="fill:#263238"></path><path d="M153.81,121.15c-4.12,1.42-12-4.28-15.4-9.21-.23-.34-.06-4.17-.08-8.83,0-2.83-.12-6-.41-8.85-.06-.59,18.43,2.54,18.43,2.54a46.41,46.41,0,0,0-.62,11.19,6.79,6.79,0,0,0,.25,1.16c0,.06,0,.12,0,.19C156.62,111.54,157.78,119.77,153.81,121.15Z" style="fill:#eb9481"></path><path d="M139,94.22c1.33,4.76,5.54,16.17,15.16,15.41a10.67,10.67,0,0,0,1.83-.28,1,1,0,0,0,0-.2,6.59,6.59,0,0,1-.25-1.16,46,46,0,0,1,.62-11.2S143,94.54,139,94.22Z" style="fill:#263238"></path><path d="M135.88,71.22c-2.19,6.33.52,25,4.93,29.25,6.39,6.23,17.18,7.19,22.55-.57,5.21-7.51,1.24-31.73-3.71-35.67C152.35,58.44,139.11,61.86,135.88,71.22Z" style="fill:#eb9481"></path><path d="M152.47,82.7s-.09.07-.08.13c.22,1.25.25,2.71-.82,3.29,0,0,0,.08,0,.07C153,85.8,152.88,83.85,152.47,82.7Z" style="fill:#263238"></path><path d="M151.17,81.55c-2,.13-1.63,4.2.26,4.08S152.88,81.44,151.17,81.55Z" style="fill:#263238"></path><path d="M159.72,82s.1.05.11.1c.08,1.27.4,2.7,1.58,3,0,0,0,.07,0,.07C160,85.08,159.6,83.18,159.72,82Z" style="fill:#263238"></path><path d="M160.71,80.53c2-.36,2.59,3.7.72,4S159,80.83,160.71,80.53Z" style="fill:#263238"></path><path d="M149.25,79.6a15.54,15.54,0,0,0,1.65-.33,2.61,2.61,0,0,0,1.61-.66.84.84,0,0,0,0-1,2.13,2.13,0,0,0-2.11-.53,3.23,3.23,0,0,0-2,1.1A.92.92,0,0,0,149.25,79.6Z" style="fill:#263238"></path><path d="M162.52,78.84a15.65,15.65,0,0,1-1.67-.13,2.7,2.7,0,0,1-1.69-.45.88.88,0,0,1-.14-1.05,2.17,2.17,0,0,1,2-.78,3.13,3.13,0,0,1,2.11.84A.93.93,0,0,1,162.52,78.84Z" style="fill:#263238"></path><path d="M153,94.52c.34.26.68.64,1.14.63a3.24,3.24,0,0,0,1.33-.45s.08,0,.06.06a1.69,1.69,0,0,1-1.54.84,1.33,1.33,0,0,1-1.1-1C152.85,94.52,153,94.48,153,94.52Z" style="fill:#263238"></path><path d="M154,92.44a45.44,45.44,0,0,0,5.49-.54L159,89c.38.15,2.27.78,2.19.27a65.61,65.61,0,0,0-3-12.83c0-.14-.25-.08-.23.06.49,4,1.69,8,2.25,12a7.71,7.71,0,0,0-2.09-.41,25.44,25.44,0,0,0,.48,3.13,44.68,44.68,0,0,0-4.63.89C153.82,92.23,153.9,92.44,154,92.44Z" style="fill:#263238"></path><path d="M136.3,89c2.76-.68,4.17-4.68,4.17-10,0-4,1.16-9.87,5.18-10.66,4.48-.87,6.47,2.24,9.27,2.07,2.57-.16,2.79-3,4.69-3s3.2,2.28,4.31,5.87c-1.12-4.35-2.48-8.45-4.11-9.74-7.29-5.79-21.18-2.73-24.41,6.62C134.15,73.82,135,82.38,136.3,89Z" style="fill:#263238"></path><path d="M139.28,86.44s-4.09-6-6.83-4.6.27,10.18,3.44,11.42a3.26,3.26,0,0,0,4.38-1.68Z" style="fill:#eb9481"></path><path d="M133.38,84.32a0,0,0,0,0,0,.08c2.22.95,3.37,3,4.15,5.2a1.79,1.79,0,0,0-2.67-.53c-.06,0,0,.13.06.12a2,2,0,0,1,2.19.73,9.61,9.61,0,0,1,1,1.79c.1.21.46.11.39-.13l0,0C138.59,88.68,136.43,84.65,133.38,84.32Z" style="fill:#263238"></path><path d="M156.25,109.72l-4.72,11L138.1,106.47l-4,4.41s13,22.46,13.07,21.46l4.74-9.42,6.43,6.75L158.17,113Z" style="fill:#ebebeb"></path><path d="M158.73,121.45c-.12-2.75-.17-5.51-.42-8.25,0-.1-.16-.14-.19,0-.6,2.64-.07,13.13-.13,15.64l0,0c-.27-.29-6-6-6-5.86-1,1.49-4.5,8.35-4.74,9-2.05-3.56-9.92-16.54-12.36-19.93-.07-.09-.22,0-.17.09,1.8,3.76,12.21,21.24,12.38,21.19a108,108,0,0,0,5-10c1,1.23,6.7,7.6,6.73,7.19A84.81,84.81,0,0,0,158.73,121.45Z" style="fill:#263238"></path><path d="M128.82,77.64c.51.62,3.26-.23,3.67-.15,0,0,2.27,1.37,2.27,1.37s10.05-11,12.71-12.27,15.2-2.19,15.2-2.19l.64-6.14s4.84-4.44,4.78-7.21c0-1.66-14.1-4.14-24.18,1C131.11,58.65,126,74.24,128.82,77.64Z" style="fill:#37474f"></path><path d="M132.49,77.49s2.27,1.37,2.27,1.37,10.05-11,12.71-12.27,15.21-2.19,15.21-2.19.64-5.65.63-6.14c0,0-14.73.15-18.89,4.05S134.47,72,132.49,77.49Z" style="fill:#263238"></path><path d="M158.83,57.94a29.93,29.93,0,0,1-.28,3.93c-.22.87-2.23,1.61-2.23,1.61s-2.12-.38-2.39-1a25.09,25.09,0,0,1-.21-4.26,3.44,3.44,0,0,0,2.72-1.47A2.42,2.42,0,0,0,158.83,57.94Z" style="fill:#FFC727"></path><path d="M134.76,78.86s6-3.85,10.34-4.87c3.72-.86,14.2-2.78,17.15-3,4.31-.32,10.4-6.33,8.58-7.63-3-2.17-20,1.59-23.43,3.12C142.1,68.85,134.76,78.86,134.76,78.86Z" style="fill:#37474f"></path><path d="M136.8,76.25a1.15,1.15,0,1,1-1.18-1.12A1.14,1.14,0,0,1,136.8,76.25Z" style="fill:#ebebeb"></path></g><g id="freepik--speech-bubble--inject-412"><polygon points="336.85 27.03 336.85 61.55 341.7 61.55 341.7 69.92 350.07 61.55 396.01 61.55 396.01 27.03 336.85 27.03" style="fill:#fff"></polygon><path d="M336.85,27l.3,34.51-.3-.29,4.85,0H342v.32l.05,8.38-.63-.27,8.33-8.41c.14-.15.1-.12.3-.12L396,61.06l-.49.48L395.59,27l.42.43c-14.74-.06-44.41-.29-59.16-.43Zm0,0c15-.13,44.62-.37,59.59-.43V27l.06,34.51V62H396c.12-.16-47.06.2-45.64-.18L342,70.18l-.64.63v-.89l0-8.38.33.33-4.85,0h-.3v-.3L336.85,27Z" style="fill:#263238"></path><path d="M377.62,44.29a2.8,2.8,0,1,0,2.8-2.8A2.8,2.8,0,0,0,377.62,44.29Z" style="fill:#263238"></path><path d="M363.63,44.29a2.8,2.8,0,1,0,2.8-2.8A2.8,2.8,0,0,0,363.63,44.29Z" style="fill:#263238"></path><path d="M349.64,44.29a2.81,2.81,0,1,0,2.8-2.8A2.8,2.8,0,0,0,349.64,44.29Z" style="fill:#263238"></path></g></svg>
